<svg width="18" height="18" viewBox="0 0 18 18" fill="none" xmlns="http://www.w3.org/2000/svg">
<g clip-path="url(#clip0)">
<path d="M15.749 11.9992V5.99922C15.7488 5.73618 15.6793 5.47783 15.5477 5.2501C15.416 5.02236 15.2268 4.83325 14.999 4.70172L9.74902 1.70172C9.52099 1.57007 9.26233 1.50076 8.99902 1.50076C8.73572 1.50076 8.47705 1.57007 8.24902 1.70172L2.99902 4.70172C2.77122 4.83325 2.58201 5.02236 2.45037 5.2501C2.31873 5.47783 2.24929 5.73618 2.24902 5.99922V11.9992C2.24929 12.2623 2.31873 12.5206 2.45037 12.7484C2.58201 12.9761 2.77122 13.1652 2.99902 13.2967L8.24902 16.2967C8.47705 16.4284 8.73572 16.4977 8.99902 16.4977C9.26233 16.4977 9.52099 16.4284 9.74902 16.2967L14.999 13.2967C15.2268 13.1652 15.416 12.9761 15.5477 12.7484C15.6793 12.5206 15.7488 12.2623 15.749 11.9992Z" stroke="white" stroke-width="1.5" stroke-linecap="round" stroke-linejoin="round"/>
<path d="M5.62476 3.15747L8.99976 5.10747L12.3748 3.15747" stroke="white" stroke-width="1.5" stroke-linecap="round" stroke-linejoin="round"/>
<path d="M5.62463 14.8424V10.9499L2.24963 8.99991" stroke="white" stroke-width="1.5" stroke-linecap="round" stroke-linejoin="round"/>
<path d="M15.75 8.99991L12.375 10.9499V14.8424" stroke="white" stroke-width="1.5" stroke-linecap="round" stroke-linejoin="round"/>
<path d="M2.45203 5.21994L8.99953 9.00744L15.547 5.21994" stroke="white" stroke-width="1.5" stroke-linecap="round" stroke-linejoin="round"/>
<path d="M8.99988 16.5599V8.99991" stroke="white" stroke-width="1.5" stroke-linecap="round" stroke-linejoin="round"/>
</g>
<defs>
<clipPath id="clip0">
<rect width="18" height="18" fill="white" transform="translate(-0.00012207)"/>
</clipPath>
</defs>
</svg>
