<svg width="22" height="21" viewBox="0 0 22 21" fill="none" xmlns="http://www.w3.org/2000/svg">
<path d="M20.1833 0.069458H1.08056C0.621154 0.069458 0.25 0.440612 0.25 0.900014V20.0028C0.25 20.4622 0.621154 20.8333 1.08056 20.8333H20.1833C20.6427 20.8333 21.0139 20.4622 21.0139 20.0028V0.900014C21.0139 0.440612 20.6427 0.069458 20.1833 0.069458ZM6.40909 17.7629H3.32825V7.85332H6.40909V17.7629ZM4.86997 6.49848C4.51679 6.49848 4.17154 6.39375 3.87789 6.19753C3.58423 6.00132 3.35535 5.72243 3.2202 5.39614C3.08504 5.06985 3.04968 4.7108 3.11858 4.36441C3.18748 4.01802 3.35755 3.69984 3.60729 3.45011C3.85702 3.20037 4.1752 3.0303 4.52159 2.9614C4.86798 2.8925 5.22703 2.92786 5.55332 3.06302C5.87961 3.19817 6.1585 3.42705 6.35472 3.7207C6.55093 4.01436 6.65566 4.35961 6.65566 4.71278C6.65306 5.69907 5.85365 6.49848 4.86997 6.49848ZM17.9434 17.7629H14.8652V12.9431C14.8652 11.7933 14.8444 10.3164 13.2638 10.3164C11.6624 10.3164 11.4158 11.5675 11.4158 12.86V17.7629H8.34013V7.85332H11.2938V9.20817H11.3353C11.7454 8.42952 12.7499 7.60675 14.2501 7.60675C17.3698 7.60675 17.9434 9.65978 17.9434 12.3279V17.7629Z" fill="white"/>
</svg>
