<svg width="283" height="47" viewBox="0 0 283 47" fill="none" xmlns="http://www.w3.org/2000/svg">
<rect x="1.50085" y="13.8091" width="18.2062" height="5.96408" rx="2.98204" transform="rotate(-30 1.50085 13.8091)" fill="#DB4437"/>
<rect x="4.45306" y="10.8362" width="18.2062" height="5.96408" rx="2.98204" transform="rotate(29.5587 4.45306 10.8362)" fill="#4285F4"/>
<rect x="41.4385" y="15.8083" width="18.2062" height="5.96408" rx="2.98204" transform="rotate(150 41.4385 15.8083)" fill="#F4B400"/>
<rect x="38.4863" y="18.7813" width="18.2062" height="5.96408" rx="2.98204" transform="rotate(-150.441 38.4863 18.7813)" fill="#0F9D58"/>
<path d="M54.5024 7.16923H59.0887C60.5038 7.16923 61.7357 7.4535 62.7843 8.02206C63.833 8.59061 64.6416 9.38659 65.2102 10.41C65.7787 11.4334 66.063 12.6147 66.063 13.954C66.063 15.2932 65.7787 16.4746 65.2102 17.498C64.6416 18.5213 63.833 19.3173 62.7843 19.8859C61.7357 20.4544 60.5038 20.7387 59.0887 20.7387H54.5024V7.16923ZM58.975 18.3129C60.4406 18.3129 61.5588 17.9275 62.3295 17.1568C63.1002 16.3735 63.4856 15.3059 63.4856 13.954C63.4856 12.6021 63.1002 11.5408 62.3295 10.7701C61.5588 9.98673 60.4406 9.59506 58.975 9.59506H57.0609V18.3129H58.975ZM72.4049 21.0419C71.4447 21.0419 70.5792 20.8208 69.8085 20.3786C69.0378 19.9364 68.4313 19.33 67.9891 18.5593C67.5596 17.7759 67.3448 16.8978 67.3448 15.925C67.3448 15.0026 67.5596 14.1498 67.9891 13.3665C68.4187 12.5705 69.0125 11.9388 69.7706 11.4713C70.5287 11.0038 71.3752 10.7701 72.3101 10.7701C73.3083 10.7701 74.1674 10.9849 74.8876 11.4144C75.6077 11.844 76.151 12.4315 76.5174 13.1769C76.8965 13.9224 77.086 14.7499 77.086 15.6596C77.086 15.9502 77.067 16.2282 77.0291 16.4935H69.7706C69.8969 17.2642 70.2002 17.8517 70.6803 18.256C71.173 18.6477 71.7605 18.8435 72.4428 18.8435C73.0114 18.8435 73.4978 18.7235 73.9021 18.4834C74.319 18.2308 74.6475 17.8959 74.8876 17.479L76.8965 18.4645C75.911 20.1828 74.4138 21.0419 72.4049 21.0419ZM74.6981 14.731C74.6728 14.4278 74.5591 14.1309 74.3569 13.8403C74.1674 13.537 73.8958 13.2907 73.542 13.1011C73.2009 12.899 72.7966 12.7979 72.3291 12.7979C71.7353 12.7979 71.2236 12.9748 70.794 13.3286C70.3771 13.6697 70.0738 14.1372 69.8843 14.731H74.6981ZM77.7332 11.0733H80.557L83.0018 17.3653H83.1534L85.6361 11.0733H88.422L84.2905 20.7387H81.8267L77.7332 11.0733ZM94.0218 21.0419C93.0616 21.0419 92.1961 20.8208 91.4254 20.3786C90.6547 19.9364 90.0482 19.33 89.606 18.5593C89.1764 17.7759 88.9617 16.8978 88.9617 15.925C88.9617 15.0026 89.1764 14.1498 89.606 13.3665C90.0356 12.5705 90.6294 11.9388 91.3875 11.4713C92.1456 11.0038 92.9921 10.7701 93.927 10.7701C94.9251 10.7701 95.7843 10.9849 96.5045 11.4144C97.2246 11.844 97.7679 12.4315 98.1343 13.1769C98.5134 13.9224 98.7029 14.7499 98.7029 15.6596C98.7029 15.9502 98.6839 16.2282 98.646 16.4935H91.3875C91.5138 17.2642 91.8171 17.8517 92.2972 18.256C92.7899 18.6477 93.3774 18.8435 94.0597 18.8435C94.6282 18.8435 95.1147 18.7235 95.519 18.4834C95.9359 18.2308 96.2644 17.8959 96.5045 17.479L98.5134 18.4645C97.5279 20.1828 96.0307 21.0419 94.0218 21.0419ZM96.3149 14.731C96.2897 14.4278 96.176 14.1309 95.9738 13.8403C95.7843 13.537 95.5127 13.2907 95.1589 13.1011C94.8178 12.899 94.4135 12.7979 93.946 12.7979C93.3522 12.7979 92.8405 12.9748 92.4109 13.3286C91.9939 13.6697 91.6907 14.1372 91.5012 14.731H96.3149ZM100.615 7.16923H103.098V20.7387H100.615V7.16923ZM110.07 21.0419C109.072 21.0419 108.181 20.8208 107.398 20.3786C106.615 19.9238 106.002 19.311 105.56 18.5403C105.13 17.757 104.915 16.8789 104.915 15.906C104.915 14.9458 105.13 14.074 105.56 13.2907C106.002 12.5073 106.615 11.8945 107.398 11.4523C108.181 10.9975 109.072 10.7701 110.07 10.7701C111.056 10.7701 111.94 10.9975 112.723 11.4523C113.507 11.8945 114.113 12.5073 114.543 13.2907C114.985 14.074 115.206 14.9458 115.206 15.906C115.206 16.8789 114.985 17.757 114.543 18.5403C114.113 19.311 113.507 19.9238 112.723 20.3786C111.94 20.8208 111.056 21.0419 110.07 21.0419ZM110.07 18.7488C110.55 18.7488 110.992 18.6351 111.397 18.4076C111.801 18.1802 112.123 17.8517 112.363 17.4221C112.603 16.9926 112.723 16.4872 112.723 15.906C112.723 15.3374 112.603 14.8384 112.363 14.4088C112.123 13.9792 111.801 13.6507 111.397 13.4233C110.992 13.1959 110.55 13.0822 110.07 13.0822C109.59 13.0822 109.148 13.1959 108.743 13.4233C108.339 13.6507 108.011 13.9792 107.758 14.4088C107.518 14.8384 107.398 15.3374 107.398 15.906C107.398 16.4746 107.518 16.9799 107.758 17.4221C108.011 17.8517 108.339 18.1802 108.743 18.4076C109.148 18.6351 109.59 18.7488 110.07 18.7488ZM116.937 11.0733H119.268V12.2483H119.42C119.685 11.8314 120.071 11.4839 120.576 11.206C121.081 10.9154 121.663 10.7701 122.32 10.7701C123.191 10.7701 123.981 10.9912 124.689 11.4334C125.409 11.863 125.971 12.4694 126.375 13.2528C126.78 14.0361 126.982 14.9205 126.982 15.906C126.982 16.9041 126.78 17.7949 126.375 18.5782C125.971 19.3489 125.409 19.9554 124.689 20.3976C123.981 20.8272 123.191 21.0419 122.32 21.0419C121.663 21.0419 121.075 20.903 120.557 20.625C120.052 20.347 119.673 19.9996 119.42 19.5826H119.268L119.42 20.9472V24.8323H116.937V11.0733ZM121.884 18.7488C122.351 18.7488 122.787 18.6287 123.191 18.3887C123.596 18.1486 123.918 17.8138 124.158 17.3842C124.398 16.9547 124.518 16.4619 124.518 15.906C124.518 15.3501 124.398 14.8573 124.158 14.4278C123.918 13.9982 123.596 13.6697 123.191 13.4423C122.787 13.2022 122.351 13.0822 121.884 13.0822C121.429 13.0822 120.999 13.2022 120.595 13.4423C120.191 13.6697 119.869 13.9982 119.628 14.4278C119.388 14.8573 119.268 15.3501 119.268 15.906C119.268 16.4619 119.388 16.9547 119.628 17.3842C119.869 17.8138 120.191 18.1486 120.595 18.3887C120.999 18.6287 121.429 18.7488 121.884 18.7488ZM133.424 21.0419C132.464 21.0419 131.599 20.8208 130.828 20.3786C130.057 19.9364 129.451 19.33 129.009 18.5593C128.579 17.7759 128.364 16.8978 128.364 15.925C128.364 15.0026 128.579 14.1498 129.009 13.3665C129.438 12.5705 130.032 11.9388 130.79 11.4713C131.548 11.0038 132.395 10.7701 133.33 10.7701C134.328 10.7701 135.187 10.9849 135.907 11.4144C136.627 11.844 137.171 12.4315 137.537 13.1769C137.916 13.9224 138.106 14.7499 138.106 15.6596C138.106 15.9502 138.087 16.2282 138.049 16.4935H130.79C130.917 17.2642 131.22 17.8517 131.7 18.256C132.193 18.6477 132.78 18.8435 133.462 18.8435C134.031 18.8435 134.517 18.7235 134.922 18.4834C135.339 18.2308 135.667 17.8959 135.907 17.479L137.916 18.4645C136.931 20.1828 135.433 21.0419 133.424 21.0419ZM135.718 14.731C135.692 14.4278 135.579 14.1309 135.377 13.8403C135.187 13.537 134.915 13.2907 134.562 13.1011C134.22 12.899 133.816 12.7979 133.349 12.7979C132.755 12.7979 132.243 12.9748 131.814 13.3286C131.397 13.6697 131.093 14.1372 130.904 14.731H135.718ZM140.018 11.0733H142.349V12.362H142.501C142.741 11.9072 143.114 11.5345 143.619 11.2439C144.124 10.9406 144.68 10.789 145.287 10.789C145.729 10.789 146.133 10.8585 146.5 10.9975V13.4802C146.158 13.3538 145.868 13.2654 145.628 13.2148C145.4 13.1517 145.154 13.1201 144.889 13.1201C144.156 13.1201 143.575 13.3854 143.145 13.9161C142.716 14.4467 142.501 15.1163 142.501 15.925V20.7387H140.018V11.0733ZM156.409 21.0419C155.221 21.0419 154.172 20.7071 153.263 20.0375C152.353 19.3679 151.715 18.4203 151.349 17.1947L153.755 16.2471C153.945 16.9673 154.267 17.5422 154.722 17.9717C155.177 18.4013 155.745 18.6161 156.428 18.6161C156.996 18.6161 157.483 18.4771 157.887 18.1992C158.291 17.9086 158.493 17.5106 158.493 17.0052C158.493 16.4998 158.298 16.0892 157.906 15.7733C157.527 15.4448 156.845 15.0974 155.859 14.731L155.025 14.4278C154.153 14.1245 153.408 13.6634 152.789 13.0443C152.17 12.4126 151.86 11.6229 151.86 10.6753C151.86 9.96777 152.043 9.32341 152.41 8.74223C152.776 8.16104 153.294 7.70619 153.964 7.3777C154.634 7.03656 155.392 6.866 156.238 6.866C157.464 6.866 158.43 7.15659 159.138 7.73778C159.845 8.30633 160.332 8.97596 160.597 9.74667L158.342 10.6943C158.203 10.2773 157.956 9.92987 157.603 9.65191C157.262 9.36132 156.819 9.21602 156.276 9.21602C155.72 9.21602 155.259 9.34868 154.893 9.61401C154.539 9.8667 154.362 10.2015 154.362 10.6185C154.362 11.0228 154.532 11.3702 154.874 11.6608C155.215 11.9388 155.777 12.2104 156.56 12.4757L157.413 12.76C158.588 13.1643 159.485 13.7013 160.104 14.3709C160.736 15.0279 161.052 15.8934 161.052 16.9673C161.052 17.8517 160.824 18.6035 160.37 19.2226C159.915 19.829 159.327 20.2839 158.607 20.5871C157.9 20.8903 157.167 21.0419 156.409 21.0419ZM166.86 20.8903C166.38 20.8903 165.938 20.8208 165.534 20.6819C165.129 20.5302 164.801 20.3281 164.548 20.0754C163.954 19.5068 163.657 18.6982 163.657 17.6496V13.1959H161.971V11.0733H163.657V8.34424H166.14V11.0733H168.509V13.1959H166.14V17.1947C166.14 17.6875 166.247 18.0412 166.462 18.256C166.639 18.4582 166.942 18.5593 167.372 18.5593C167.612 18.5593 167.808 18.5277 167.959 18.4645C168.124 18.4013 168.332 18.2939 168.585 18.1423V20.5681C168.041 20.7829 167.467 20.8903 166.86 20.8903ZM174.061 21.0419C172.899 21.0419 172.014 20.6819 171.408 19.9617C170.802 19.2415 170.498 18.2371 170.498 16.9484V11.0733H172.981V16.6451C172.981 17.3021 173.139 17.8201 173.455 18.1992C173.771 18.5656 174.188 18.7488 174.706 18.7488C175.413 18.7488 175.975 18.4898 176.392 17.9717C176.809 17.4537 177.018 16.7967 177.018 16.0008V11.0733H179.5V20.7387H177.169V19.5258H177.018C176.727 19.9933 176.317 20.366 175.786 20.6439C175.268 20.9093 174.693 21.0419 174.061 21.0419ZM185.977 21.0419C185.105 21.0419 184.309 20.8272 183.589 20.3976C182.882 19.9554 182.319 19.3489 181.903 18.5782C181.498 17.7949 181.296 16.9041 181.296 15.906C181.296 14.9205 181.498 14.0361 181.903 13.2528C182.319 12.4694 182.882 11.863 183.589 11.4334C184.309 10.9912 185.105 10.7701 185.977 10.7701C186.634 10.7701 187.215 10.9154 187.721 11.206C188.226 11.4839 188.611 11.8314 188.877 12.2483H189.028L188.877 10.8838V7.16923H191.341V20.7387H189.028V19.5826H188.877C188.624 19.9996 188.239 20.347 187.721 20.625C187.215 20.903 186.634 21.0419 185.977 21.0419ZM186.394 18.7488C186.862 18.7488 187.298 18.6287 187.702 18.3887C188.106 18.1486 188.428 17.8138 188.668 17.3842C188.908 16.9547 189.028 16.4619 189.028 15.906C189.028 15.3501 188.908 14.8573 188.668 14.4278C188.428 13.9982 188.106 13.6697 187.702 13.4423C187.298 13.2022 186.862 13.0822 186.394 13.0822C185.939 13.0822 185.51 13.2022 185.105 13.4423C184.701 13.6697 184.379 13.9982 184.139 14.4278C183.899 14.8573 183.779 15.3501 183.779 15.906C183.779 16.4619 183.899 16.9547 184.139 17.3842C184.379 17.8138 184.701 18.1486 185.105 18.3887C185.51 18.6287 185.939 18.7488 186.394 18.7488ZM198.22 21.0419C197.259 21.0419 196.394 20.8208 195.623 20.3786C194.853 19.9364 194.246 19.33 193.804 18.5593C193.374 17.7759 193.159 16.8978 193.159 15.925C193.159 15.0026 193.374 14.1498 193.804 13.3665C194.233 12.5705 194.827 11.9388 195.585 11.4713C196.343 11.0038 197.19 10.7701 198.125 10.7701C199.123 10.7701 199.982 10.9849 200.702 11.4144C201.422 11.844 201.966 12.4315 202.332 13.1769C202.711 13.9224 202.901 14.7499 202.901 15.6596C202.901 15.9502 202.882 16.2282 202.844 16.4935H195.585C195.712 17.2642 196.015 17.8517 196.495 18.256C196.988 18.6477 197.575 18.8435 198.258 18.8435C198.826 18.8435 199.312 18.7235 199.717 18.4834C200.134 18.2308 200.462 17.8959 200.702 17.479L202.711 18.4645C201.726 20.1828 200.229 21.0419 198.22 21.0419ZM200.513 14.731C200.488 14.4278 200.374 14.1309 200.172 13.8403C199.982 13.537 199.71 13.2907 199.357 13.1011C199.016 12.899 198.611 12.7979 198.144 12.7979C197.55 12.7979 197.038 12.9748 196.609 13.3286C196.192 13.6697 195.889 14.1372 195.699 14.731H200.513ZM204.813 11.0733H207.144V12.2862H207.296C207.586 11.8187 207.997 11.4523 208.528 11.187C209.058 10.909 209.633 10.7701 210.252 10.7701C211.415 10.7701 212.299 11.1238 212.906 11.8314C213.512 12.5389 213.815 13.5054 213.815 14.731V20.7387H211.333V15.0342C211.333 14.4151 211.175 13.935 210.859 13.5939C210.543 13.2528 210.101 13.0822 209.532 13.0822C208.863 13.0822 208.319 13.3412 207.902 13.8592C207.498 14.3772 207.296 15.0279 207.296 15.8112V20.7387H204.813V11.0733ZM219.884 20.8903C219.404 20.8903 218.962 20.8208 218.558 20.6819C218.154 20.5302 217.825 20.3281 217.572 20.0754C216.979 19.5068 216.682 18.6982 216.682 17.6496V13.1959H214.995V11.0733H216.682V8.34424H219.164V11.0733H221.533V13.1959H219.164V17.1947C219.164 17.6875 219.272 18.0412 219.486 18.256C219.663 18.4582 219.967 18.5593 220.396 18.5593C220.636 18.5593 220.832 18.5277 220.984 18.4645C221.148 18.4013 221.356 18.2939 221.609 18.1423V20.5681C221.066 20.7829 220.491 20.8903 219.884 20.8903ZM234.436 21.0419C233.122 21.0419 231.922 20.7324 230.835 20.1133C229.748 19.4816 228.889 18.6287 228.258 17.5548C227.639 16.4682 227.329 15.268 227.329 13.954C227.329 12.64 227.639 11.446 228.258 10.3721C228.889 9.28551 229.748 8.43268 230.835 7.81359C231.922 7.18186 233.122 6.866 234.436 6.866C236.483 6.866 238.176 7.60512 239.515 9.08336L237.715 10.8269C236.843 9.80353 235.756 9.29183 234.455 9.29183C233.608 9.29183 232.838 9.48766 232.143 9.87933C231.448 10.2584 230.898 10.8017 230.494 11.5092C230.102 12.2167 229.906 13.0316 229.906 13.954C229.906 14.8763 230.102 15.6912 230.494 16.3987C230.898 17.1063 231.448 17.6559 232.143 18.0476C232.838 18.4266 233.608 18.6161 234.455 18.6161C235.883 18.6161 237.077 18.0223 238.037 16.8346L239.856 18.5593C239.186 19.3679 238.39 19.987 237.468 20.4165C236.558 20.8335 235.548 21.0419 234.436 21.0419ZM241.699 7.16923H244.182V20.7387H241.699V7.16923ZM250.109 21.0419C248.947 21.0419 248.062 20.6819 247.456 19.9617C246.849 19.2415 246.546 18.2371 246.546 16.9484V11.0733H249.029V16.6451C249.029 17.3021 249.187 17.8201 249.503 18.1992C249.818 18.5656 250.235 18.7488 250.753 18.7488C251.461 18.7488 252.023 18.4898 252.44 17.9717C252.857 17.4537 253.065 16.7967 253.065 16.0008V11.0733H255.548V20.7387H253.217V19.5258H253.065C252.775 19.9933 252.364 20.366 251.834 20.6439C251.316 20.9093 250.741 21.0419 250.109 21.0419ZM263.349 21.0419C262.692 21.0419 262.105 20.903 261.587 20.625C261.081 20.347 260.702 19.9996 260.45 19.5826H260.298V20.7387H257.967V7.16923H260.45V10.8838L260.298 12.2483H260.45C260.715 11.8314 261.1 11.4839 261.606 11.206C262.111 10.9154 262.692 10.7701 263.349 10.7701C264.221 10.7701 265.011 10.9912 265.718 11.4334C266.439 11.863 267.001 12.4694 267.405 13.2528C267.809 14.0361 268.011 14.9205 268.011 15.906C268.011 16.9041 267.809 17.7949 267.405 18.5782C267.001 19.3489 266.439 19.9554 265.718 20.3976C265.011 20.8272 264.221 21.0419 263.349 21.0419ZM262.913 18.7488C263.381 18.7488 263.817 18.6287 264.221 18.3887C264.625 18.1486 264.948 17.8138 265.188 17.3842C265.428 16.9547 265.548 16.4619 265.548 15.906C265.548 15.3501 265.428 14.8573 265.188 14.4278C264.948 13.9982 264.625 13.6697 264.221 13.4423C263.817 13.2022 263.381 13.0822 262.913 13.0822C262.459 13.0822 262.029 13.2022 261.625 13.4423C261.22 13.6697 260.898 13.9982 260.658 14.4278C260.418 14.8573 260.298 15.3501 260.298 15.906C260.298 16.4619 260.418 16.9547 260.658 17.3842C260.898 17.8138 261.22 18.1486 261.625 18.3887C262.029 18.6287 262.459 18.7488 262.913 18.7488ZM273.507 21.0419C272.332 21.0419 271.378 20.8019 270.645 20.3218C269.925 19.8417 269.42 19.2162 269.129 18.4455L271.347 17.479C271.549 17.9338 271.833 18.2813 272.199 18.5213C272.578 18.7488 273.014 18.8625 273.507 18.8625C273.962 18.8625 274.341 18.793 274.644 18.654C274.947 18.5024 275.099 18.2623 275.099 17.9338C275.099 17.618 274.96 17.3842 274.682 17.2326C274.404 17.0684 273.987 16.9231 273.431 16.7967L272.294 16.5504C271.511 16.3608 270.86 16.0197 270.342 15.527C269.824 15.0216 269.565 14.3962 269.565 13.6507C269.565 13.0948 269.729 12.5958 270.058 12.1535C270.399 11.7113 270.854 11.3702 271.422 11.1302C272.004 10.8901 272.642 10.7701 273.337 10.7701C275.333 10.7701 276.666 11.4713 277.335 12.8737L275.213 13.8024C274.834 13.1201 274.227 12.779 273.393 12.779C272.964 12.779 272.623 12.8611 272.37 13.0253C272.117 13.1769 271.991 13.3728 271.991 13.6128C271.991 14.0677 272.421 14.4088 273.28 14.6362L274.701 14.9774C275.661 15.2174 276.381 15.5838 276.862 16.0766C277.354 16.5693 277.601 17.1758 277.601 17.8959C277.601 18.515 277.417 19.0646 277.051 19.5447C276.697 20.0122 276.205 20.3786 275.573 20.6439C274.954 20.9093 274.265 21.0419 273.507 21.0419Z" fill="#434343"/>
<path d="M56.2717 42.8831C55.5842 42.8831 54.9836 42.696 54.4701 42.3217C53.9565 41.9387 53.5953 41.4034 53.3864 40.7158L54.4309 40.285C54.7442 41.3121 55.3579 41.8256 56.2717 41.8256C56.7853 41.8256 57.1944 41.6471 57.499 41.2903C57.8123 40.9334 57.969 40.4634 57.969 39.8803V33.3263H59.0787V39.7889C59.0787 40.4417 58.9569 41.0031 58.7132 41.4731C58.4782 41.9344 58.1474 42.2869 57.7209 42.5306C57.3031 42.7656 56.8201 42.8831 56.2717 42.8831ZM63.6257 42.8831C62.8945 42.8831 62.2244 42.6611 61.6151 42.2172C61.0058 41.7734 60.588 41.151 60.3617 40.3503L61.4193 39.9194C61.5672 40.4765 61.8414 40.9334 62.2418 41.2903C62.6421 41.6471 63.1121 41.8256 63.6518 41.8256C64.1914 41.8256 64.6484 41.682 65.0226 41.3947C65.3969 41.0988 65.584 40.6984 65.584 40.1936C65.584 39.7584 65.423 39.4016 65.101 39.123C64.7876 38.8358 64.2697 38.5704 63.5473 38.3267L62.9598 38.1178C62.2983 37.8828 61.7587 37.5738 61.3409 37.1908C60.9231 36.8078 60.7142 36.2769 60.7142 35.598C60.7142 35.1541 60.8361 34.745 61.0798 34.3708C61.3235 33.9878 61.663 33.6832 62.0982 33.4569C62.5333 33.2306 63.0208 33.1174 63.5604 33.1174C64.1 33.1174 64.57 33.2175 64.9704 33.4177C65.3708 33.6179 65.6885 33.8616 65.9235 34.1488C66.1672 34.4361 66.3369 34.7189 66.4326 34.9975L65.3882 35.4413C65.3011 35.1193 65.101 34.8277 64.7876 34.5666C64.483 34.3055 64.0783 34.1749 63.5734 34.1749C63.0947 34.1749 62.6857 34.3099 62.3462 34.5797C62.0068 34.8495 61.837 35.1889 61.837 35.598C61.837 35.9636 61.9807 36.2639 62.2679 36.4989C62.5551 36.7252 62.9903 36.9384 63.5734 37.1386L64.1871 37.3475C64.9791 37.6347 65.5971 37.9959 66.041 38.4311C66.4849 38.8576 66.7068 39.4407 66.7068 40.1806C66.7068 40.7811 66.5501 41.2859 66.2368 41.695C65.9322 42.1041 65.5449 42.4044 65.0748 42.5959C64.6048 42.7873 64.1218 42.8831 63.6257 42.8831ZM70.944 42.8831C70.2129 42.8831 69.5427 42.6611 68.9334 42.2172C68.3241 41.7734 67.9064 41.151 67.6801 40.3503L68.7376 39.9194C68.8855 40.4765 69.1597 40.9334 69.5601 41.2903C69.9605 41.6471 70.4305 41.8256 70.9701 41.8256C71.5097 41.8256 71.9667 41.682 72.3409 41.3947C72.7152 41.0988 72.9023 40.6984 72.9023 40.1936C72.9023 39.7584 72.7413 39.4016 72.4193 39.123C72.1059 38.8358 71.5881 38.5704 70.8657 38.3267L70.2781 38.1178C69.6167 37.8828 69.077 37.5738 68.6592 37.1908C68.2415 36.8078 68.0326 36.2769 68.0326 35.598C68.0326 35.1541 68.1544 34.745 68.3981 34.3708C68.6418 33.9878 68.9813 33.6832 69.4165 33.4569C69.8517 33.2306 70.3391 33.1174 70.8787 33.1174C71.4183 33.1174 71.8883 33.2175 72.2887 33.4177C72.6891 33.6179 73.0068 33.8616 73.2418 34.1488C73.4855 34.4361 73.6552 34.7189 73.751 34.9975L72.7065 35.4413C72.6195 35.1193 72.4193 34.8277 72.1059 34.5666C71.8013 34.3055 71.3966 34.1749 70.8918 34.1749C70.4131 34.1749 70.004 34.3099 69.6645 34.5797C69.3251 34.8495 69.1554 35.1889 69.1554 35.598C69.1554 35.9636 69.299 36.2639 69.5862 36.4989C69.8734 36.7252 70.3086 36.9384 70.8918 37.1386L71.5054 37.3475C72.2974 37.6347 72.9154 37.9959 73.3593 38.4311C73.8032 38.8576 74.0251 39.4407 74.0251 40.1806C74.0251 40.7811 73.8685 41.2859 73.5551 41.695C73.2505 42.1041 72.8632 42.4044 72.3932 42.5959C71.9232 42.7873 71.4401 42.8831 70.944 42.8831ZM80.9798 33.3263H82.2332L85.7843 42.6742H84.5701L83.6301 40.1022H79.5959L78.6559 42.6742H77.4417L80.9798 33.3263ZM83.2515 39.0578L82.0112 35.6894L81.6326 34.6841H81.5804L81.2148 35.6894L79.9745 39.0578H83.2515ZM89.6266 42.8831C88.9825 42.8831 88.4037 42.7308 87.8902 42.4261C87.3766 42.1128 86.9763 41.6907 86.689 41.1597C86.4018 40.6201 86.2582 40.0152 86.2582 39.345C86.2582 38.6748 86.4018 38.0699 86.689 37.5303C86.9763 36.9906 87.3766 36.5685 87.8902 36.2639C88.4037 35.9592 88.9825 35.8069 89.6266 35.8069C90.349 35.8069 90.9539 35.9766 91.4413 36.3161C91.9374 36.6468 92.2899 37.0907 92.4988 37.6478L91.4935 38.0655C91.3281 37.6565 91.0801 37.3475 90.7493 37.1386C90.4273 36.921 90.0356 36.8122 89.5743 36.8122C89.1827 36.8122 88.8171 36.921 88.4777 37.1386C88.1382 37.3475 87.864 37.6434 87.6552 38.0264C87.455 38.4093 87.3549 38.8489 87.3549 39.345C87.3549 39.8411 87.455 40.2807 87.6552 40.6636C87.864 41.0466 88.1382 41.3469 88.4777 41.5645C88.8171 41.7734 89.1827 41.8778 89.5743 41.8778C90.0443 41.8778 90.4491 41.769 90.7885 41.5514C91.128 41.3338 91.3804 41.0248 91.5457 40.6245L92.538 41.0422C92.3117 41.5906 91.9461 42.0345 91.4413 42.3739C90.9452 42.7134 90.3403 42.8831 89.6266 42.8831ZM95.8021 42.8831C95.3147 42.8831 94.8795 42.7873 94.4965 42.5959C94.1136 42.4044 93.8176 42.1433 93.6087 41.8125C93.3999 41.4731 93.2954 41.0901 93.2954 40.6636C93.2954 39.9586 93.5609 39.4103 94.0918 39.0186C94.6227 38.6182 95.2929 38.418 96.1024 38.418C96.5028 38.418 96.8727 38.4616 97.2121 38.5486C97.5603 38.6356 97.8257 38.7357 98.0085 38.8489V38.4442C98.0085 37.948 97.8344 37.552 97.4863 37.2561C97.1381 36.9515 96.6986 36.7991 96.1677 36.7991C95.7934 36.7991 95.4496 36.8818 95.1363 37.0472C94.8229 37.2039 94.5749 37.4258 94.3921 37.713L93.5565 37.0864C93.8176 36.686 94.1745 36.3727 94.6271 36.1464C95.0884 35.9201 95.5976 35.8069 96.1546 35.8069C97.0598 35.8069 97.7692 36.0463 98.2827 36.525C98.8049 36.995 99.066 37.6391 99.066 38.4572V42.6742H98.0085V41.7211H97.9563C97.7648 42.0432 97.4776 42.3173 97.0946 42.5436C96.7116 42.7699 96.2808 42.8831 95.8021 42.8831ZM95.9065 41.9039C96.2808 41.9039 96.629 41.8082 96.951 41.6167C97.273 41.4252 97.5298 41.1684 97.7213 40.8464C97.9128 40.5244 98.0085 40.1719 98.0085 39.7889C97.7996 39.6496 97.5429 39.5365 97.2382 39.4494C96.9336 39.3624 96.6115 39.3189 96.2721 39.3189C95.6628 39.3189 95.2015 39.4451 94.8882 39.6975C94.5836 39.9499 94.4312 40.2763 94.4312 40.6767C94.4312 41.0422 94.5705 41.3382 94.849 41.5645C95.1276 41.7908 95.4801 41.9039 95.9065 41.9039ZM103.366 42.8831C102.774 42.8831 102.235 42.7308 101.747 42.4261C101.269 42.1215 100.89 41.7037 100.611 41.1728C100.333 40.6332 100.194 40.0239 100.194 39.345C100.194 38.6748 100.333 38.0699 100.611 37.5303C100.89 36.9906 101.269 36.5685 101.747 36.2639C102.235 35.9592 102.774 35.8069 103.366 35.8069C103.88 35.8069 104.337 35.9244 104.737 36.1594C105.137 36.3857 105.442 36.6686 105.651 37.008H105.703L105.651 36.0811V33.3263H106.761V42.6742H105.703V41.695H105.651C105.442 42.0258 105.137 42.3086 104.737 42.5436C104.337 42.7699 103.88 42.8831 103.366 42.8831ZM103.497 41.8778C103.888 41.8778 104.25 41.7734 104.58 41.5645C104.92 41.3556 105.19 41.0596 105.39 40.6767C105.599 40.2937 105.703 39.8498 105.703 39.345C105.703 38.8402 105.599 38.3963 105.39 38.0133C105.19 37.6304 104.92 37.3344 104.58 37.1255C104.25 36.9166 103.888 36.8122 103.497 36.8122C103.114 36.8122 102.753 36.9166 102.413 37.1255C102.074 37.3344 101.799 37.6347 101.591 38.0264C101.39 38.4093 101.29 38.8489 101.29 39.345C101.29 39.8411 101.39 40.285 101.591 40.6767C101.799 41.0596 102.074 41.3556 102.413 41.5645C102.753 41.7734 103.114 41.8778 103.497 41.8778ZM111.3 42.8831C110.664 42.8831 110.094 42.7308 109.59 42.4261C109.085 42.1215 108.689 41.7037 108.401 41.1728C108.123 40.6332 107.984 40.0282 107.984 39.3581C107.984 38.714 108.114 38.1221 108.375 37.5825C108.645 37.0428 109.024 36.612 109.511 36.29C109.999 35.9679 110.564 35.8069 111.208 35.8069C111.861 35.8069 112.427 35.9549 112.906 36.2508C113.384 36.538 113.75 36.9384 114.002 37.4519C114.263 37.9654 114.394 38.553 114.394 39.2144C114.394 39.345 114.381 39.4581 114.355 39.5539H109.093C109.12 40.0587 109.241 40.4852 109.459 40.8333C109.677 41.1815 109.951 41.4426 110.281 41.6167C110.621 41.7908 110.973 41.8778 111.339 41.8778C112.192 41.8778 112.849 41.4774 113.31 40.6767L114.25 41.1336C113.963 41.6733 113.571 42.0997 113.075 42.4131C112.588 42.7264 111.996 42.8831 111.3 42.8831ZM113.219 38.64C113.202 38.3615 113.123 38.0829 112.984 37.8044C112.845 37.5259 112.623 37.2909 112.318 37.0994C112.022 36.9079 111.648 36.8122 111.195 36.8122C110.673 36.8122 110.229 36.9819 109.864 37.3214C109.507 37.6521 109.272 38.0917 109.159 38.64H113.219ZM115.693 36.0158H116.75V36.995H116.802C116.994 36.6555 117.281 36.3727 117.664 36.1464C118.047 35.9201 118.452 35.8069 118.878 35.8069C119.366 35.8069 119.788 35.9244 120.145 36.1594C120.51 36.3944 120.771 36.7077 120.928 37.0994C121.163 36.7077 121.472 36.3944 121.855 36.1594C122.247 35.9244 122.699 35.8069 123.213 35.8069C123.979 35.8069 124.553 36.0419 124.936 36.5119C125.328 36.9732 125.524 37.6042 125.524 38.405V42.6742H124.427V38.5747C124.427 37.9567 124.301 37.5085 124.048 37.23C123.796 36.9515 123.422 36.8122 122.926 36.8122C122.595 36.8122 122.295 36.9079 122.025 37.0994C121.755 37.2909 121.542 37.5477 121.385 37.8697C121.237 38.1917 121.163 38.5399 121.163 38.9142V42.6742H120.053V38.5878C120.053 37.9611 119.927 37.5085 119.675 37.23C119.422 36.9515 119.052 36.8122 118.565 36.8122C118.234 36.8122 117.934 36.9123 117.664 37.1125C117.394 37.304 117.181 37.5651 117.024 37.8958C116.876 38.2179 116.802 38.566 116.802 38.9403V42.6742H115.693V36.0158ZM128.975 42.2564L126.22 36.0158H127.421L129.51 40.9639H129.536L131.547 36.0158H132.748L128.635 45.4942H127.486L128.975 42.2564ZM139.772 42.8831C139.12 42.8831 138.532 42.7264 138.01 42.4131C137.488 42.0997 137.078 41.6733 136.783 41.1336C136.495 40.594 136.352 39.9978 136.352 39.345C136.352 38.6922 136.495 38.096 136.783 37.5564C137.078 37.0167 137.488 36.5902 138.01 36.2769C138.532 35.9636 139.12 35.8069 139.772 35.8069C140.425 35.8069 141.013 35.9636 141.535 36.2769C142.057 36.5902 142.462 37.0167 142.749 37.5564C143.045 38.096 143.193 38.6922 143.193 39.345C143.193 39.9978 143.045 40.594 142.749 41.1336C142.462 41.6733 142.057 42.0997 141.535 42.4131C141.013 42.7264 140.425 42.8831 139.772 42.8831ZM139.772 41.8778C140.181 41.8778 140.56 41.7777 140.908 41.5775C141.265 41.3686 141.548 41.0727 141.757 40.6897C141.974 40.3068 142.083 39.8585 142.083 39.345C142.083 38.8315 141.974 38.3832 141.757 38.0003C141.548 37.6173 141.265 37.3257 140.908 37.1255C140.56 36.9166 140.181 36.8122 139.772 36.8122C139.363 36.8122 138.98 36.9166 138.623 37.1255C138.267 37.3257 137.979 37.6173 137.762 38.0003C137.553 38.3832 137.448 38.8315 137.448 39.345C137.448 39.8585 137.553 40.3068 137.762 40.6897C137.979 41.0727 138.267 41.3686 138.623 41.5775C138.98 41.7777 139.363 41.8778 139.772 41.8778ZM145.061 37.0211H143.833V36.0158H145.061V35.2977C145.061 34.88 145.156 34.5144 145.348 34.2011C145.539 33.8877 145.796 33.6484 146.118 33.483C146.44 33.3089 146.797 33.2219 147.189 33.2219C147.563 33.2219 147.889 33.2741 148.168 33.3786V34.4622C148.011 34.4012 147.863 34.3534 147.724 34.3186C147.585 34.275 147.419 34.2533 147.228 34.2533C146.941 34.2533 146.693 34.3577 146.484 34.5666C146.275 34.7668 146.17 35.0497 146.17 35.4152V36.0158H147.881V37.0211H146.17V42.6742H145.061V37.0211ZM153.89 34.3838H151.266V33.3263H157.611V34.3838H155V42.6742H153.89V34.3838ZM160.705 42.8831C160.069 42.8831 159.499 42.7308 158.995 42.4261C158.49 42.1215 158.094 41.7037 157.806 41.1728C157.528 40.6332 157.389 40.0282 157.389 39.3581C157.389 38.714 157.519 38.1221 157.78 37.5825C158.05 37.0428 158.429 36.612 158.916 36.29C159.404 35.9679 159.969 35.8069 160.613 35.8069C161.266 35.8069 161.832 35.9549 162.311 36.2508C162.789 36.538 163.155 36.9384 163.407 37.4519C163.668 37.9654 163.799 38.553 163.799 39.2144C163.799 39.345 163.786 39.4581 163.76 39.5539H158.498C158.525 40.0587 158.646 40.4852 158.864 40.8333C159.082 41.1815 159.356 41.4426 159.686 41.6167C160.026 41.7908 160.378 41.8778 160.744 41.8778C161.597 41.8778 162.254 41.4774 162.715 40.6767L163.655 41.1336C163.368 41.6733 162.977 42.0997 162.48 42.4131C161.993 42.7264 161.401 42.8831 160.705 42.8831ZM162.624 38.64C162.607 38.3615 162.528 38.0829 162.389 37.8044C162.25 37.5259 162.028 37.2909 161.723 37.0994C161.427 36.9079 161.053 36.8122 160.6 36.8122C160.078 36.8122 159.634 36.9819 159.269 37.3214C158.912 37.6521 158.677 38.0917 158.564 38.64H162.624ZM168.177 42.8831C167.533 42.8831 166.954 42.7308 166.441 42.4261C165.927 42.1128 165.527 41.6907 165.24 41.1597C164.953 40.6201 164.809 40.0152 164.809 39.345C164.809 38.6748 164.953 38.0699 165.24 37.5303C165.527 36.9906 165.927 36.5685 166.441 36.2639C166.954 35.9592 167.533 35.8069 168.177 35.8069C168.9 35.8069 169.505 35.9766 169.992 36.3161C170.488 36.6468 170.841 37.0907 171.05 37.6478L170.044 38.0655C169.879 37.6565 169.631 37.3475 169.3 37.1386C168.978 36.921 168.586 36.8122 168.125 36.8122C167.733 36.8122 167.368 36.921 167.028 37.1386C166.689 37.3475 166.415 37.6434 166.206 38.0264C166.006 38.4093 165.906 38.8489 165.906 39.345C165.906 39.8411 166.006 40.2807 166.206 40.6636C166.415 41.0466 166.689 41.3469 167.028 41.5645C167.368 41.7734 167.733 41.8778 168.125 41.8778C168.595 41.8778 169 41.769 169.339 41.5514C169.679 41.3338 169.931 41.0248 170.097 40.6245L171.089 41.0422C170.862 41.5906 170.497 42.0345 169.992 42.3739C169.496 42.7134 168.891 42.8831 168.177 42.8831ZM172.289 33.3263H173.398V36.0811L173.346 36.995H173.398C173.581 36.6555 173.868 36.3727 174.26 36.1464C174.66 35.9201 175.096 35.8069 175.566 35.8069C176.375 35.8069 176.993 36.0463 177.419 36.525C177.846 36.995 178.059 37.6216 178.059 38.405V42.6742H176.949V38.5747C176.949 37.9742 176.797 37.5303 176.493 37.243C176.188 36.9558 175.792 36.8122 175.304 36.8122C174.956 36.8122 174.634 36.9166 174.338 37.1255C174.051 37.3344 173.82 37.6042 173.646 37.935C173.481 38.2657 173.398 38.6095 173.398 38.9664V42.6742H172.289V33.3263ZM179.658 36.0158H180.715V36.995H180.768C180.95 36.6642 181.242 36.3857 181.642 36.1594C182.043 35.9244 182.469 35.8069 182.922 35.8069C183.723 35.8069 184.332 36.0419 184.75 36.5119C185.176 36.9732 185.389 37.6042 185.389 38.405V42.6742H184.28V38.5747C184.28 37.9567 184.132 37.5085 183.836 37.23C183.54 36.9515 183.135 36.8122 182.622 36.8122C182.265 36.8122 181.943 36.9123 181.655 37.1125C181.377 37.3127 181.159 37.5781 181.003 37.9089C180.846 38.2309 180.768 38.5704 180.768 38.9272V42.6742H179.658V36.0158ZM187.629 34.7886C187.411 34.7886 187.224 34.7102 187.068 34.5536C186.911 34.3969 186.833 34.2098 186.833 33.9922C186.833 33.7746 186.911 33.5918 187.068 33.4438C187.224 33.2872 187.411 33.2088 187.629 33.2088C187.847 33.2088 188.034 33.2872 188.19 33.4438C188.347 33.5918 188.425 33.7746 188.425 33.9922C188.425 34.2098 188.347 34.3969 188.19 34.5536C188.042 34.7102 187.855 34.7886 187.629 34.7886ZM187.081 36.0158H188.177V42.6742H187.081V36.0158ZM192.874 42.8831C192.229 42.8831 191.651 42.7308 191.137 42.4261C190.624 42.1128 190.223 41.6907 189.936 41.1597C189.649 40.6201 189.505 40.0152 189.505 39.345C189.505 38.6748 189.649 38.0699 189.936 37.5303C190.223 36.9906 190.624 36.5685 191.137 36.2639C191.651 35.9592 192.229 35.8069 192.874 35.8069C193.596 35.8069 194.201 35.9766 194.688 36.3161C195.184 36.6468 195.537 37.0907 195.746 37.6478L194.74 38.0655C194.575 37.6565 194.327 37.3475 193.996 37.1386C193.674 36.921 193.283 36.8122 192.821 36.8122C192.43 36.8122 192.064 36.921 191.725 37.1386C191.385 37.3475 191.111 37.6434 190.902 38.0264C190.702 38.4093 190.602 38.8489 190.602 39.345C190.602 39.8411 190.702 40.2807 190.902 40.6636C191.111 41.0466 191.385 41.3469 191.725 41.5645C192.064 41.7734 192.43 41.8778 192.821 41.8778C193.291 41.8778 193.696 41.769 194.035 41.5514C194.375 41.3338 194.627 41.0248 194.793 40.6245L195.785 41.0422C195.559 41.5906 195.193 42.0345 194.688 42.3739C194.192 42.7134 193.587 42.8831 192.874 42.8831ZM199.049 42.8831C198.562 42.8831 198.126 42.7873 197.743 42.5959C197.361 42.4044 197.065 42.1433 196.856 41.8125C196.647 41.4731 196.542 41.0901 196.542 40.6636C196.542 39.9586 196.808 39.4103 197.339 39.0186C197.87 38.6182 198.54 38.418 199.349 38.418C199.75 38.418 200.12 38.4616 200.459 38.5486C200.807 38.6356 201.073 38.7357 201.255 38.8489V38.4442C201.255 37.948 201.081 37.552 200.733 37.2561C200.385 36.9515 199.946 36.7991 199.415 36.7991C199.04 36.7991 198.697 36.8818 198.383 37.0472C198.07 37.2039 197.822 37.4258 197.639 37.713L196.803 37.0864C197.065 36.686 197.421 36.3727 197.874 36.1464C198.335 35.9201 198.845 35.8069 199.402 35.8069C200.307 35.8069 201.016 36.0463 201.53 36.525C202.052 36.995 202.313 37.6391 202.313 38.4572V42.6742H201.255V41.7211H201.203C201.012 42.0432 200.725 42.3173 200.342 42.5436C199.959 42.7699 199.528 42.8831 199.049 42.8831ZM199.153 41.9039C199.528 41.9039 199.876 41.8082 200.198 41.6167C200.52 41.4252 200.777 41.1684 200.968 40.8464C201.16 40.5244 201.255 40.1719 201.255 39.7889C201.047 39.6496 200.79 39.5365 200.485 39.4494C200.181 39.3624 199.859 39.3189 199.519 39.3189C198.91 39.3189 198.448 39.4451 198.135 39.6975C197.831 39.9499 197.678 40.2763 197.678 40.6767C197.678 41.0422 197.817 41.3382 198.096 41.5645C198.375 41.7908 198.727 41.9039 199.153 41.9039ZM203.857 33.3263H204.967V42.6742H203.857V33.3263ZM209.867 33.3263H215.272V34.3838H210.964V37.478H214.854V38.5225H210.964V41.6167H215.272V42.6742H209.867V33.3263ZM219.401 42.8831C218.809 42.8831 218.27 42.7308 217.782 42.4261C217.303 42.1215 216.925 41.7037 216.646 41.1728C216.368 40.6332 216.228 40.0239 216.228 39.345C216.228 38.6748 216.368 38.0699 216.646 37.5303C216.925 36.9906 217.303 36.5685 217.782 36.2639C218.27 35.9592 218.809 35.8069 219.401 35.8069C219.915 35.8069 220.371 35.9244 220.772 36.1594C221.172 36.3857 221.477 36.6686 221.686 37.008H221.738L221.686 36.0811V33.3263H222.795V42.6742H221.738V41.695H221.686C221.477 42.0258 221.172 42.3086 220.772 42.5436C220.371 42.7699 219.915 42.8831 219.401 42.8831ZM219.532 41.8778C219.923 41.8778 220.284 41.7734 220.615 41.5645C220.955 41.3556 221.224 41.0596 221.425 40.6767C221.634 40.2937 221.738 39.8498 221.738 39.345C221.738 38.8402 221.634 38.3963 221.425 38.0133C221.224 37.6304 220.955 37.3344 220.615 37.1255C220.284 36.9166 219.923 36.8122 219.532 36.8122C219.149 36.8122 218.787 36.9166 218.448 37.1255C218.109 37.3344 217.834 37.6347 217.625 38.0264C217.425 38.4093 217.325 38.8489 217.325 39.345C217.325 39.8411 217.425 40.285 217.625 40.6767C217.834 41.0596 218.109 41.3556 218.448 41.5645C218.787 41.7734 219.149 41.8778 219.532 41.8778ZM226.85 42.8831C226.049 42.8831 225.436 42.6481 225.009 42.1781C224.591 41.7081 224.383 41.0509 224.383 40.2067V36.0158H225.492V40.0369C225.492 40.6723 225.636 41.138 225.923 41.4339C226.21 41.7298 226.598 41.8778 227.085 41.8778C227.459 41.8778 227.79 41.7777 228.077 41.5775C228.373 41.3773 228.6 41.1162 228.756 40.7942C228.922 40.4721 229.004 40.1327 229.004 39.7758V36.0158H230.114V42.6742H229.057V41.7081H229.004C228.822 42.0388 228.53 42.3173 228.13 42.5436C227.729 42.7699 227.303 42.8831 226.85 42.8831ZM234.705 42.8831C234.061 42.8831 233.482 42.7308 232.969 42.4261C232.455 42.1128 232.055 41.6907 231.768 41.1597C231.48 40.6201 231.337 40.0152 231.337 39.345C231.337 38.6748 231.48 38.0699 231.768 37.5303C232.055 36.9906 232.455 36.5685 232.969 36.2639C233.482 35.9592 234.061 35.8069 234.705 35.8069C235.428 35.8069 236.033 35.9766 236.52 36.3161C237.016 36.6468 237.369 37.0907 237.577 37.6478L236.572 38.0655C236.407 37.6565 236.159 37.3475 235.828 37.1386C235.506 36.921 235.114 36.8122 234.653 36.8122C234.261 36.8122 233.896 36.921 233.556 37.1386C233.217 37.3475 232.943 37.6434 232.734 38.0264C232.534 38.4093 232.434 38.8489 232.434 39.345C232.434 39.8411 232.534 40.2807 232.734 40.6636C232.943 41.0466 233.217 41.3469 233.556 41.5645C233.896 41.7734 234.261 41.8778 234.653 41.8778C235.123 41.8778 235.528 41.769 235.867 41.5514C236.207 41.3338 236.459 41.0248 236.624 40.6245L237.617 41.0422C237.39 41.5906 237.025 42.0345 236.52 42.3739C236.024 42.7134 235.419 42.8831 234.705 42.8831ZM240.881 42.8831C240.393 42.8831 239.958 42.7873 239.575 42.5959C239.192 42.4044 238.896 42.1433 238.687 41.8125C238.479 41.4731 238.374 41.0901 238.374 40.6636C238.374 39.9586 238.64 39.4103 239.17 39.0186C239.701 38.6182 240.372 38.418 241.181 38.418C241.581 38.418 241.951 38.4616 242.291 38.5486C242.639 38.6356 242.904 38.7357 243.087 38.8489V38.4442C243.087 37.948 242.913 37.552 242.565 37.2561C242.217 36.9515 241.777 36.7991 241.246 36.7991C240.872 36.7991 240.528 36.8818 240.215 37.0472C239.902 37.2039 239.654 37.4258 239.471 37.713L238.635 37.0864C238.896 36.686 239.253 36.3727 239.706 36.1464C240.167 35.9201 240.676 35.8069 241.233 35.8069C242.138 35.8069 242.848 36.0463 243.361 36.525C243.884 36.995 244.145 37.6391 244.145 38.4572V42.6742H243.087V41.7211H243.035C242.843 42.0432 242.556 42.3173 242.173 42.5436C241.79 42.7699 241.359 42.8831 240.881 42.8831ZM240.985 41.9039C241.359 41.9039 241.708 41.8082 242.03 41.6167C242.352 41.4252 242.608 41.1684 242.8 40.8464C242.991 40.5244 243.087 40.1719 243.087 39.7889C242.878 39.6496 242.622 39.5365 242.317 39.4494C242.012 39.3624 241.69 39.3189 241.351 39.3189C240.741 39.3189 240.28 39.4451 239.967 39.6975C239.662 39.9499 239.51 40.2763 239.51 40.6767C239.51 41.0422 239.649 41.3382 239.928 41.5645C240.206 41.7908 240.559 41.9039 240.985 41.9039ZM248.12 42.7786C247.85 42.7786 247.598 42.7351 247.363 42.6481C247.136 42.561 246.945 42.4435 246.788 42.2956C246.614 42.1302 246.484 41.9387 246.397 41.7211C246.31 41.5035 246.266 41.2381 246.266 40.9247V37.0211H245.104V36.0158H246.266V34.1358H247.376V36.0158H248.995V37.0211H247.376V40.6506C247.376 41.0161 247.445 41.2859 247.585 41.46C247.75 41.6515 247.989 41.7472 248.303 41.7472C248.555 41.7472 248.799 41.6733 249.034 41.5253V42.6089C248.903 42.6698 248.768 42.7134 248.629 42.7395C248.499 42.7656 248.329 42.7786 248.12 42.7786ZM251.059 34.7886C250.841 34.7886 250.654 34.7102 250.497 34.5536C250.341 34.3969 250.262 34.2098 250.262 33.9922C250.262 33.7746 250.341 33.5918 250.497 33.4438C250.654 33.2872 250.841 33.2088 251.059 33.2088C251.276 33.2088 251.463 33.2872 251.62 33.4438C251.777 33.5918 251.855 33.7746 251.855 33.9922C251.855 34.2098 251.777 34.3969 251.62 34.5536C251.472 34.7102 251.285 34.7886 251.059 34.7886ZM250.51 36.0158H251.607V42.6742H250.51V36.0158ZM256.355 42.8831C255.703 42.8831 255.115 42.7264 254.593 42.4131C254.071 42.0997 253.662 41.6733 253.366 41.1336C253.078 40.594 252.935 39.9978 252.935 39.345C252.935 38.6922 253.078 38.096 253.366 37.5564C253.662 37.0167 254.071 36.5902 254.593 36.2769C255.115 35.9636 255.703 35.8069 256.355 35.8069C257.008 35.8069 257.596 35.9636 258.118 36.2769C258.64 36.5902 259.045 37.0167 259.332 37.5564C259.628 38.096 259.776 38.6922 259.776 39.345C259.776 39.9978 259.628 40.594 259.332 41.1336C259.045 41.6733 258.64 42.0997 258.118 42.4131C257.596 42.7264 257.008 42.8831 256.355 42.8831ZM256.355 41.8778C256.764 41.8778 257.143 41.7777 257.491 41.5775C257.848 41.3686 258.131 41.0727 258.34 40.6897C258.557 40.3068 258.666 39.8585 258.666 39.345C258.666 38.8315 258.557 38.3832 258.34 38.0003C258.131 37.6173 257.848 37.3257 257.491 37.1255C257.143 36.9166 256.764 36.8122 256.355 36.8122C255.946 36.8122 255.563 36.9166 255.207 37.1255C254.85 37.3257 254.562 37.6173 254.345 38.0003C254.136 38.3832 254.031 38.8315 254.031 39.345C254.031 39.8585 254.136 40.3068 254.345 40.6897C254.562 41.0727 254.85 41.3686 255.207 41.5775C255.563 41.7777 255.946 41.8778 256.355 41.8778ZM260.937 36.0158H261.995V36.995H262.047C262.23 36.6642 262.521 36.3857 262.922 36.1594C263.322 35.9244 263.748 35.8069 264.201 35.8069C265.002 35.8069 265.611 36.0419 266.029 36.5119C266.455 36.9732 266.669 37.6042 266.669 38.405V42.6742H265.559V38.5747C265.559 37.9567 265.411 37.5085 265.115 37.23C264.819 36.9515 264.414 36.8122 263.901 36.8122C263.544 36.8122 263.222 36.9123 262.935 37.1125C262.656 37.3127 262.439 37.5781 262.282 37.9089C262.125 38.2309 262.047 38.5704 262.047 38.9272V42.6742H260.937V36.0158Z" fill="#585858"/>
</svg>
