<svg width="22" height="22" viewBox="0 0 22 22" fill="none" xmlns="http://www.w3.org/2000/svg">
<path d="M10.9705 7.31391C8.95551 7.31391 7.31116 8.95825 7.31116 10.9732C7.31116 12.9881 8.95551 14.6325 10.9705 14.6325C12.9854 14.6325 14.6297 12.9881 14.6297 10.9732C14.6297 8.95825 12.9854 7.31391 10.9705 7.31391ZM21.9456 10.9732C21.9456 9.45787 21.9593 7.95627 21.8742 6.44369C21.7891 4.68679 21.3883 3.12755 20.1036 1.84281C18.8161 0.555337 17.2596 0.15729 15.5027 0.0721905C13.9874 -0.0129093 12.4858 0.00081653 10.9732 0.00081653C9.45787 0.00081653 7.95627 -0.0129093 6.44369 0.0721905C4.68679 0.15729 3.12755 0.558083 1.84281 1.84281C0.555337 3.13029 0.15729 4.68679 0.0721905 6.44369C-0.0129093 7.95902 0.00081653 9.46061 0.00081653 10.9732C0.00081653 12.4858 -0.0129093 13.9901 0.0721905 15.5027C0.15729 17.2596 0.558083 18.8188 1.84281 20.1036C3.13029 21.3911 4.68679 21.7891 6.44369 21.8742C7.95902 21.9593 9.46062 21.9456 10.9732 21.9456C12.4885 21.9456 13.9901 21.9593 15.5027 21.8742C17.2596 21.7891 18.8188 21.3883 20.1036 20.1036C21.3911 18.8161 21.7891 17.2596 21.8742 15.5027C21.962 13.9901 21.9456 12.4885 21.9456 10.9732ZM10.9705 16.6035C7.8547 16.6035 5.34014 14.0889 5.34014 10.9732C5.34014 7.85744 7.8547 5.34288 10.9705 5.34288C14.0862 5.34288 16.6008 7.85744 16.6008 10.9732C16.6008 14.0889 14.0862 16.6035 10.9705 16.6035ZM16.8314 6.42722C16.1039 6.42722 15.5164 5.83976 15.5164 5.11229C15.5164 4.38483 16.1039 3.79736 16.8314 3.79736C17.5588 3.79736 18.1463 4.38483 18.1463 5.11229C18.1465 5.28503 18.1126 5.45612 18.0466 5.61575C17.9806 5.77538 17.8838 5.92042 17.7616 6.04257C17.6395 6.16472 17.4944 6.26156 17.3348 6.32757C17.1752 6.39357 17.0041 6.42744 16.8314 6.42722Z" fill="#A3A3A3"/>
</svg>
