<svg width="28" height="22" viewBox="0 0 28 22" fill="none" xmlns="http://www.w3.org/2000/svg">
<path d="M27.433 2.60696C26.4242 3.0355 25.3263 3.34391 24.1955 3.46403C25.3695 2.77719 26.2487 1.69209 26.6681 0.41232C25.5664 1.05769 24.3595 1.51023 23.1009 1.74988C22.5749 1.19611 21.9387 0.754955 21.232 0.453899C20.5252 0.152843 19.7631 -0.00166151 18.9931 1.34743e-05C15.8776 1.34743e-05 13.372 2.48684 13.372 5.53855C13.372 5.96709 13.4247 6.39563 13.5104 6.80794C8.84542 6.56769 4.68481 4.37306 1.91876 1.01292C1.41476 1.86064 1.15064 2.82586 1.15389 3.80816C1.15389 5.73009 2.14624 7.42477 3.65949 8.42145C2.76771 8.38686 1.89681 8.14549 1.11763 7.71696V7.78513C1.11763 10.4765 3.04958 12.7068 5.62441 13.2198C5.14095 13.3434 4.64362 13.4067 4.14413 13.4081C3.77818 13.4081 3.43201 13.3724 3.08254 13.3237C3.79466 15.5183 5.86837 17.1123 8.3377 17.1643C6.40576 18.6544 3.98588 19.531 1.3583 19.531C0.88685 19.531 0.451667 19.5148 0 19.4628C2.49241 21.0374 5.44967 21.9464 8.63442 21.9464C18.9733 21.9464 24.6307 13.512 24.6307 6.1911C24.6307 5.95086 24.6307 5.71062 24.6142 5.47037C25.7087 4.68147 26.6681 3.70428 27.433 2.60696Z" fill="#A3A3A3"/>
</svg>
