<svg width="22" height="22" viewBox="0 0 22 22" fill="none" xmlns="http://www.w3.org/2000/svg">
<path d="M21.0685 0H0.877856C0.392292 0 0 0.392292 0 0.877856V21.0685C0 21.5541 0.392292 21.9464 0.877856 21.9464H21.0685C21.5541 21.9464 21.9464 21.5541 21.9464 21.0685V0.877856C21.9464 0.392292 21.5541 0 21.0685 0ZM17.996 5.64297L16.8768 6.71559C16.778 6.78966 16.7314 6.91037 16.7506 7.02833V14.9208C16.7314 15.0415 16.778 15.1622 16.8768 15.2335L17.9741 16.3062V16.5448H12.4655V16.3171L13.5985 15.2171C13.711 15.1046 13.711 15.0717 13.711 14.9043V8.51794L10.5562 16.5174H10.131L6.46047 8.51794V13.8811C6.42755 14.106 6.5071 14.3337 6.66622 14.4956L8.14211 16.2815V16.5201H3.95035V16.2815L5.42624 14.4956C5.504 14.4153 5.56188 14.3178 5.59522 14.2111C5.62857 14.1044 5.63646 13.9914 5.61828 13.8811V7.68124C5.63748 7.50841 5.57164 7.34107 5.43996 7.2231L4.12866 5.64297V5.4043H8.20246L11.3463 12.3037L14.1143 5.40979H17.996V5.64297Z" fill="#A3A3A3"/>
</svg>
