<svg width="29" height="21" viewBox="0 0 29 21" fill="none" xmlns="http://www.w3.org/2000/svg">
<path d="M27.7558 3.14256C27.5944 2.53403 27.278 1.97909 26.8383 1.53328C26.3986 1.08746 25.8509 0.766405 25.2501 0.602244C23.0386 1.22201e-07 14.1737 0 14.1737 0C14.1737 0 5.30881 -1.22201e-07 3.09734 0.599041C2.49628 0.762669 1.94833 1.08354 1.50851 1.52944C1.06868 1.97534 0.75247 2.53057 0.591626 3.13936C-1.20688e-07 5.38176 0 10.0588 0 10.0588C0 10.0588 -1.20688e-07 14.7358 0.591626 16.975C0.917495 18.2115 1.87928 19.1853 3.09734 19.5153C5.30881 20.1175 14.1737 20.1175 14.1737 20.1175C14.1737 20.1175 23.0386 20.1175 25.2501 19.5153C26.4713 19.1853 27.4299 18.2115 27.7558 16.975C28.3474 14.7358 28.3474 10.0588 28.3474 10.0588C28.3474 10.0588 28.3474 5.38176 27.7558 3.14256ZM11.358 14.3514V5.76617L18.6979 10.0267L11.358 14.3514Z" fill="#A3A3A3"/>
</svg>
