<svg width="22" height="22" viewBox="0 0 22 22" fill="none" xmlns="http://www.w3.org/2000/svg">
<path d="M21.0685 0H0.877856C0.392292 0 0 0.392292 0 0.877856V21.0685C0 21.5541 0.392292 21.9464 0.877856 21.9464H21.0685C21.5541 21.9464 21.9464 21.5541 21.9464 21.0685V0.877856C21.9464 0.392292 21.5541 0 21.0685 0ZM6.50985 18.7011H3.25355V8.22715H6.50985V18.7011ZM4.88307 6.79515C4.50978 6.79515 4.14487 6.68446 3.83449 6.47707C3.52411 6.26968 3.2822 5.97491 3.13935 5.63003C2.9965 5.28516 2.95912 4.90567 3.03195 4.53955C3.10477 4.17343 3.28453 3.83713 3.54849 3.57318C3.81244 3.30922 4.14874 3.12946 4.51486 3.05664C4.88098 2.98381 5.26047 3.02119 5.60534 3.16404C5.95022 3.30689 6.24499 3.5488 6.45238 3.85918C6.65977 4.16956 6.77046 4.53447 6.77046 4.90776C6.76772 5.95021 5.92278 6.79515 4.88307 6.79515ZM18.7011 18.7011H15.4475V13.6068C15.4475 12.3915 15.4256 10.8305 13.7549 10.8305C12.0623 10.8305 11.8017 12.1528 11.8017 13.519V18.7011H8.55086V8.22715H11.6727V9.65915H11.7166C12.1501 8.83616 13.2117 7.96654 14.7974 7.96654C18.0948 7.96654 18.7011 10.1365 18.7011 12.9566V18.7011Z" fill="#A3A3A3"/>
</svg>
