<svg width="22" height="22" viewBox="0 0 22 22" fill="none" xmlns="http://www.w3.org/2000/svg">
<path d="M10.9744 9.43091e-07C4.91103 -0.00251758 0 5.03956 0 11.2628C0 16.184 3.07215 20.3673 7.35061 21.9036C7.92679 22.0522 7.83852 21.6316 7.83852 21.3445V19.3926C4.51138 19.7931 4.37653 17.5314 4.15341 17.1536C3.70227 16.3628 2.63572 16.1613 2.95446 15.7836C3.71208 15.3831 4.48441 15.8843 5.37933 17.2418C6.02661 18.2265 7.28931 18.0603 7.92924 17.8966C8.06899 17.3048 8.36812 16.7759 8.78003 16.3653C5.33274 15.7307 3.89597 13.5698 3.89597 11.0009C3.89597 9.75423 4.29562 8.6083 5.08021 7.68401C4.58003 6.1603 5.12679 4.85571 5.20035 4.66178C6.62486 4.53082 8.10577 5.70949 8.22101 5.80267C9.03011 5.57852 9.95446 5.46015 10.9891 5.46015C12.0287 5.46015 12.9555 5.58356 13.772 5.81023C14.049 5.59363 15.4221 4.58119 16.746 4.7046C16.8171 4.89852 17.3516 6.17289 16.8809 7.67645C17.6753 8.60327 18.0798 9.75927 18.0798 11.0085C18.0798 13.5824 16.6333 15.7458 13.1762 16.3704C13.4723 16.6695 13.7074 17.0262 13.8678 17.4197C14.0282 17.8132 14.1106 18.2356 14.1103 18.6622V21.4956C14.1299 21.7222 14.1103 21.9464 14.4781 21.9464C18.8203 20.4428 21.9464 16.2293 21.9464 11.2653C21.9464 5.03956 17.0329 9.43091e-07 10.9744 9.43091e-07Z" fill="#A3A3A3"/>
</svg>
