<svg width="380" height="129" viewBox="0 0 380 129" fill="none" xmlns="http://www.w3.org/2000/svg">
<rect x="136.957" y="36.4114" width="48.0048" height="15.7257" rx="7.86285" transform="rotate(-30 136.957 36.4114)" fill="#DB4437"/>
<rect x="144.741" y="28.5725" width="48.0048" height="15.7257" rx="7.86285" transform="rotate(29.5587 144.741 28.5725)" fill="#4285F4"/>
<rect x="242.262" y="41.6824" width="48.0048" height="15.7257" rx="7.86285" transform="rotate(150 242.262 41.6824)" fill="#F4B400"/>
<rect x="234.478" y="49.5215" width="48.0048" height="15.7257" rx="7.86285" transform="rotate(-150.441 234.478 49.5215)" fill="#0F9D58"/>
<path d="M10.2843 97.8935C8.61878 97.8935 7.0826 97.5054 5.67578 96.7292C4.28513 95.9369 3.17747 94.8534 2.35278 93.479C1.5281 92.0883 1.11575 90.536 1.11575 88.8219C1.11575 87.1079 1.5281 85.5636 2.35278 84.1891C3.17747 82.7985 4.28513 81.7151 5.67578 80.9389C7.0826 80.1465 8.61878 79.7504 10.2843 79.7504C11.6426 79.7504 12.8797 79.9929 13.9954 80.478C15.1273 80.947 16.0976 81.618 16.9061 82.4912L14.6503 84.6985C14.0682 84.084 13.4214 83.6232 12.7099 83.3159C12.0145 83.0087 11.1979 82.8551 10.2601 82.8551C9.19283 82.8551 8.21452 83.1057 7.32516 83.607C6.43579 84.0921 5.72429 84.7955 5.19067 85.7172C4.67322 86.6227 4.4145 87.6576 4.4145 88.8219C4.4145 89.9862 4.68131 91.0292 5.21493 91.9509C5.74855 92.8564 6.46004 93.5598 7.34941 94.0611C8.25495 94.5462 9.24134 94.7888 10.3086 94.7888C11.9256 94.7888 13.2516 94.3117 14.2865 93.3577C14.6099 93.0666 14.8929 92.6947 15.1354 92.2419C15.378 91.7892 15.5558 91.296 15.669 90.7623H10.2116V87.973H18.7252C18.8384 88.4257 18.895 88.9351 18.895 89.5011C18.895 90.6492 18.7171 91.7164 18.3614 92.7028C18.0218 93.6892 17.4963 94.5543 16.7848 95.2981C16.0086 96.139 15.0707 96.7858 13.9712 97.2386C12.8716 97.6752 11.6426 97.8935 10.2843 97.8935ZM27.3914 97.8935C26.114 97.8935 24.974 97.6105 23.9714 97.0445C22.9689 96.4624 22.1846 95.6781 21.6186 94.6917C21.0689 93.6892 20.794 92.5653 20.794 91.3202C20.794 90.0913 21.0689 88.9755 21.6186 87.973C22.1846 86.9704 22.9689 86.1861 23.9714 85.6202C24.974 85.0381 26.114 84.747 27.3914 84.747C28.6527 84.747 29.7847 85.0381 30.7872 85.6202C31.7898 86.1861 32.566 86.9704 33.1157 87.973C33.6817 88.9755 33.9647 90.0913 33.9647 91.3202C33.9647 92.5653 33.6817 93.6892 33.1157 94.6917C32.566 95.6781 31.7898 96.4624 30.7872 97.0445C29.7847 97.6105 28.6527 97.8935 27.3914 97.8935ZM27.3914 94.9585C28.0059 94.9585 28.5719 94.813 29.0893 94.5219C29.6068 94.2309 30.0191 93.8105 30.3264 93.2607C30.6336 92.7109 30.7872 92.0641 30.7872 91.3202C30.7872 90.5926 30.6336 89.9538 30.3264 89.404C30.0191 88.8542 29.6068 88.4338 29.0893 88.1428C28.5719 87.8517 28.0059 87.7062 27.3914 87.7062C26.777 87.7062 26.211 87.8517 25.6936 88.1428C25.1761 88.4338 24.7557 88.8542 24.4323 89.404C24.125 89.9538 23.9714 90.5926 23.9714 91.3202C23.9714 92.0479 24.125 92.6947 24.4323 93.2607C24.7557 93.8105 25.1761 94.2309 25.6936 94.5219C26.211 94.813 26.777 94.9585 27.3914 94.9585ZM42.3143 97.8935C41.0368 97.8935 39.8968 97.6105 38.8942 97.0445C37.8917 96.4624 37.1074 95.6781 36.5415 94.6917C35.9917 93.6892 35.7168 92.5653 35.7168 91.3202C35.7168 90.0913 35.9917 88.9755 36.5415 87.973C37.1074 86.9704 37.8917 86.1861 38.8942 85.6202C39.8968 85.0381 41.0368 84.747 42.3143 84.747C43.5755 84.747 44.7075 85.0381 45.71 85.6202C46.7126 86.1861 47.4888 86.9704 48.0385 87.973C48.6045 88.9755 48.8875 90.0913 48.8875 91.3202C48.8875 92.5653 48.6045 93.6892 48.0385 94.6917C47.4888 95.6781 46.7126 96.4624 45.71 97.0445C44.7075 97.6105 43.5755 97.8935 42.3143 97.8935ZM42.3143 94.9585C42.9287 94.9585 43.4947 94.813 44.0121 94.5219C44.5296 94.2309 44.9419 93.8105 45.2492 93.2607C45.5564 92.7109 45.71 92.0641 45.71 91.3202C45.71 90.5926 45.5564 89.9538 45.2492 89.404C44.9419 88.8542 44.5296 88.4338 44.0121 88.1428C43.4947 87.8517 42.9287 87.7062 42.3143 87.7062C41.6998 87.7062 41.1338 87.8517 40.6164 88.1428C40.0989 88.4338 39.6785 88.8542 39.3551 89.404C39.0479 89.9538 38.8942 90.5926 38.8942 91.3202C38.8942 92.0479 39.0479 92.6947 39.3551 93.2607C39.6785 93.8105 40.0989 94.2309 40.6164 94.5219C41.1338 94.813 41.6998 94.9585 42.3143 94.9585ZM57.0188 103.133C55.4502 103.133 54.1485 102.777 53.1136 102.065C52.0787 101.37 51.3834 100.529 51.0277 99.5428L54.0111 98.3301C54.2698 98.9445 54.666 99.4296 55.1996 99.7854C55.7332 100.141 56.3396 100.319 57.0188 100.319C58.0213 100.319 58.8137 100.012 59.3958 99.3973C59.9941 98.7828 60.2933 97.9096 60.2933 96.7777V95.8075H60.0992C59.7111 96.3573 59.2018 96.7777 58.5711 97.0688C57.9405 97.3598 57.2209 97.5054 56.4124 97.5054C55.3936 97.5054 54.4396 97.2466 53.5502 96.7292C52.677 96.1956 51.9736 95.4517 51.44 94.4977C50.9064 93.5275 50.6396 92.4036 50.6396 91.1262C50.6396 89.8487 50.9064 88.733 51.44 87.7789C51.9736 86.8087 52.677 86.0649 53.5502 85.5474C54.4396 85.0138 55.3936 84.747 56.4124 84.747C57.2209 84.747 57.9405 84.8925 58.5711 85.1836C59.2018 85.4747 59.7111 85.8951 60.0992 86.4449H60.2933V85.1351H63.3494V96.6564C63.3494 97.9824 63.0907 99.1305 62.5733 100.101C62.0558 101.071 61.3201 101.815 60.366 102.332C59.412 102.866 58.2962 103.133 57.0188 103.133ZM57.0673 94.619C57.9566 94.619 58.7166 94.3117 59.3473 93.6973C59.9779 93.0666 60.2933 92.2096 60.2933 91.1262C60.2933 90.0104 59.9779 89.1534 59.3473 88.5551C58.7328 87.9406 57.9728 87.6334 57.0673 87.6334C56.1617 87.6334 55.3936 87.9406 54.763 88.5551C54.1324 89.1696 53.817 90.0266 53.817 91.1262C53.817 92.2258 54.1324 93.0828 54.763 93.6973C55.3936 94.3117 56.1617 94.619 57.0673 94.619ZM66.4547 80.1384H69.6322V97.5054H66.4547V80.1384ZM78.4341 97.8935C77.2051 97.8935 76.0975 97.6105 75.1111 97.0445C74.1247 96.4786 73.3485 95.7024 72.7825 94.716C72.2328 93.7134 71.9579 92.5896 71.9579 91.3445C71.9579 90.164 72.2328 89.0725 72.7825 88.07C73.3323 87.0513 74.0923 86.2427 75.0626 85.6444C76.0328 85.0461 77.1162 84.747 78.3128 84.747C79.5903 84.747 80.6898 85.0219 81.6115 85.5717C82.5333 86.1215 83.2286 86.8734 83.6975 87.8274C84.1826 88.7815 84.4252 89.8406 84.4252 91.0049C84.4252 91.3768 84.4009 91.7326 84.3524 92.0721H75.0626C75.2243 93.0585 75.6124 93.8105 76.2268 94.3279C76.8575 94.8292 77.6094 95.0798 78.4826 95.0798C79.2102 95.0798 79.8328 94.9262 80.3503 94.619C80.8839 94.2956 81.3043 93.867 81.6115 93.3334L84.1826 94.5947C82.9213 96.7939 81.0052 97.8935 78.4341 97.8935ZM81.369 89.8164C81.3366 89.4283 81.1911 89.0483 80.9324 88.6764C80.6898 88.2883 80.3422 87.973 79.8894 87.7304C79.4528 87.4717 78.9354 87.3423 78.3371 87.3423C77.577 87.3423 76.9221 87.5687 76.3724 88.0215C75.8387 88.4581 75.4506 89.0564 75.2081 89.8164H81.369ZM92.9944 80.1384H98.8642C100.675 80.1384 102.252 80.5023 103.594 81.2299C104.936 81.9576 105.971 82.9763 106.699 84.2861C107.426 85.5959 107.79 87.1079 107.79 88.8219C107.79 90.536 107.426 92.0479 106.699 93.3577C105.971 94.6675 104.936 95.6862 103.594 96.4139C102.252 97.1415 100.675 97.5054 98.8642 97.5054H92.9944V80.1384ZM98.7187 94.4007C100.594 94.4007 102.025 93.9075 103.012 92.9211C103.998 91.9185 104.491 90.5521 104.491 88.8219C104.491 87.0917 103.998 85.7334 103.012 84.747C102.025 83.7444 100.594 83.2431 98.7187 83.2431H96.2689V94.4007H98.7187ZM115.907 97.8935C114.678 97.8935 113.57 97.6105 112.584 97.0445C111.598 96.4786 110.821 95.7024 110.255 94.716C109.706 93.7134 109.431 92.5896 109.431 91.3445C109.431 90.164 109.706 89.0725 110.255 88.07C110.805 87.0513 111.565 86.2427 112.535 85.6444C113.506 85.0461 114.589 84.747 115.786 84.747C117.063 84.747 118.163 85.0219 119.084 85.5717C120.006 86.1215 120.701 86.8734 121.17 87.8274C121.655 88.7815 121.898 89.8406 121.898 91.0049C121.898 91.3768 121.874 91.7326 121.825 92.0721H112.535C112.697 93.0585 113.085 93.8105 113.7 94.3279C114.33 94.8292 115.082 95.0798 115.955 95.0798C116.683 95.0798 117.306 94.9262 117.823 94.619C118.357 94.2956 118.777 93.867 119.084 93.3334L121.655 94.5947C120.394 96.7939 118.478 97.8935 115.907 97.8935ZM118.842 89.8164C118.809 89.4283 118.664 89.0483 118.405 88.6764C118.163 88.2883 117.815 87.973 117.362 87.7304C116.926 87.4717 116.408 87.3423 115.81 87.3423C115.05 87.3423 114.395 87.5687 113.845 88.0215C113.312 88.4581 112.923 89.0564 112.681 89.8164H118.842ZM122.726 85.1351H126.34L129.469 93.1879H129.663L132.841 85.1351H136.406L131.119 97.5054H127.965L122.726 85.1351ZM143.573 97.8935C142.344 97.8935 141.237 97.6105 140.25 97.0445C139.264 96.4786 138.488 95.7024 137.922 94.716C137.372 93.7134 137.097 92.5896 137.097 91.3445C137.097 90.164 137.372 89.0725 137.922 88.07C138.472 87.0513 139.232 86.2427 140.202 85.6444C141.172 85.0461 142.255 84.747 143.452 84.747C144.729 84.747 145.829 85.0219 146.751 85.5717C147.672 86.1215 148.368 86.8734 148.837 87.8274C149.322 88.7815 149.564 89.8406 149.564 91.0049C149.564 91.3768 149.54 91.7326 149.492 92.0721H140.202C140.363 93.0585 140.752 93.8105 141.366 94.3279C141.997 94.8292 142.749 95.0798 143.622 95.0798C144.349 95.0798 144.972 94.9262 145.489 94.619C146.023 94.2956 146.444 93.867 146.751 93.3334L149.322 94.5947C148.061 96.7939 146.144 97.8935 143.573 97.8935ZM146.508 89.8164C146.476 89.4283 146.33 89.0483 146.072 88.6764C145.829 88.2883 145.481 87.973 145.029 87.7304C144.592 87.4717 144.075 87.3423 143.476 87.3423C142.716 87.3423 142.061 87.5687 141.512 88.0215C140.978 88.4581 140.59 89.0564 140.347 89.8164H146.508ZM152.012 80.1384H155.19V97.5054H152.012V80.1384ZM164.113 97.8935C162.835 97.8935 161.695 97.6105 160.693 97.0445C159.69 96.4624 158.906 95.6781 158.34 94.6917C157.79 93.6892 157.515 92.5653 157.515 91.3202C157.515 90.0913 157.79 88.9755 158.34 87.973C158.906 86.9704 159.69 86.1861 160.693 85.6202C161.695 85.0381 162.835 84.747 164.113 84.747C165.374 84.747 166.506 85.0381 167.509 85.6202C168.511 86.1861 169.287 86.9704 169.837 87.973C170.403 88.9755 170.686 90.0913 170.686 91.3202C170.686 92.5653 170.403 93.6892 169.837 94.6917C169.287 95.6781 168.511 96.4624 167.509 97.0445C166.506 97.6105 165.374 97.8935 164.113 97.8935ZM164.113 94.9585C164.727 94.9585 165.293 94.813 165.811 94.5219C166.328 94.2309 166.74 93.8105 167.048 93.2607C167.355 92.7109 167.509 92.0641 167.509 91.3202C167.509 90.5926 167.355 89.9538 167.048 89.404C166.74 88.8542 166.328 88.4338 165.811 88.1428C165.293 87.8517 164.727 87.7062 164.113 87.7062C163.498 87.7062 162.932 87.8517 162.415 88.1428C161.897 88.4338 161.477 88.8542 161.154 89.404C160.846 89.9538 160.693 90.5926 160.693 91.3202C160.693 92.0479 160.846 92.6947 161.154 93.2607C161.477 93.8105 161.897 94.2309 162.415 94.5219C162.932 94.813 163.498 94.9585 164.113 94.9585ZM172.902 85.1351H175.885V86.6389H176.079C176.419 86.1053 176.912 85.6606 177.559 85.3049C178.206 84.9329 178.949 84.747 179.79 84.747C180.906 84.747 181.917 85.03 182.822 85.5959C183.744 86.1457 184.464 86.9219 184.981 87.9245C185.498 88.927 185.757 90.0589 185.757 91.3202C185.757 92.5977 185.498 93.7377 184.981 94.7402C184.464 95.7266 183.744 96.5028 182.822 97.0688C181.917 97.6186 180.906 97.8935 179.79 97.8935C178.949 97.8935 178.198 97.7156 177.535 97.3598C176.888 97.0041 176.403 96.5594 176.079 96.0258H175.885L176.079 97.7722V102.745H172.902V85.1351ZM179.232 94.9585C179.831 94.9585 180.389 94.8049 180.906 94.4977C181.424 94.1905 181.836 93.7619 182.143 93.2122C182.45 92.6624 182.604 92.0317 182.604 91.3202C182.604 90.6087 182.45 89.9781 182.143 89.4283C181.836 88.8785 181.424 88.4581 180.906 88.167C180.389 87.8598 179.831 87.7062 179.232 87.7062C178.65 87.7062 178.101 87.8598 177.583 88.167C177.066 88.4581 176.653 88.8785 176.346 89.4283C176.039 89.9781 175.885 90.6087 175.885 91.3202C175.885 92.0317 176.039 92.6624 176.346 93.2122C176.653 93.7619 177.066 94.1905 177.583 94.4977C178.101 94.8049 178.65 94.9585 179.232 94.9585ZM194.003 97.8935C192.774 97.8935 191.666 97.6105 190.68 97.0445C189.694 96.4786 188.917 95.7024 188.351 94.716C187.802 93.7134 187.527 92.5896 187.527 91.3445C187.527 90.164 187.802 89.0725 188.351 88.07C188.901 87.0513 189.661 86.2427 190.631 85.6444C191.602 85.0461 192.685 84.747 193.882 84.747C195.159 84.747 196.259 85.0219 197.18 85.5717C198.102 86.1215 198.797 86.8734 199.266 87.8274C199.751 88.7815 199.994 89.8406 199.994 91.0049C199.994 91.3768 199.97 91.7326 199.921 92.0721H190.631C190.793 93.0585 191.181 93.8105 191.796 94.3279C192.426 94.8292 193.178 95.0798 194.051 95.0798C194.779 95.0798 195.402 94.9262 195.919 94.619C196.453 94.2956 196.873 93.867 197.18 93.3334L199.751 94.5947C198.49 96.7939 196.574 97.8935 194.003 97.8935ZM196.938 89.8164C196.905 89.4283 196.76 89.0483 196.501 88.6764C196.259 88.2883 195.911 87.973 195.458 87.7304C195.022 87.4717 194.504 87.3423 193.906 87.3423C193.146 87.3423 192.491 87.5687 191.941 88.0215C191.408 88.4581 191.019 89.0564 190.777 89.8164H196.938ZM202.442 85.1351H205.425V86.7844H205.619C205.926 86.2023 206.403 85.7253 207.05 85.3534C207.697 84.9653 208.409 84.7712 209.185 84.7712C209.751 84.7712 210.268 84.8602 210.737 85.0381V88.2155C210.301 88.0538 209.929 87.9406 209.621 87.8759C209.33 87.7951 209.015 87.7547 208.675 87.7547C207.738 87.7547 206.994 88.0942 206.444 88.7734C205.894 89.4526 205.619 90.3096 205.619 91.3445V97.5054H202.442V85.1351ZM223.419 97.8935C221.899 97.8935 220.557 97.4649 219.393 96.6079C218.229 95.7509 217.412 94.5381 216.943 92.9696L220.024 91.7568C220.266 92.6785 220.678 93.4143 221.261 93.9641C221.843 94.5139 222.57 94.7888 223.444 94.7888C224.171 94.7888 224.794 94.6109 225.311 94.2551C225.829 93.8832 226.087 93.3739 226.087 92.727C226.087 92.0802 225.837 91.5547 225.335 91.1504C224.85 90.73 223.977 90.2853 222.716 89.8164L221.649 89.4283C220.533 89.0402 219.579 88.45 218.787 87.6576C217.994 86.8491 217.598 85.8385 217.598 84.6257C217.598 83.7202 217.832 82.8955 218.301 82.1517C218.77 81.4078 219.433 80.8257 220.29 80.4053C221.147 79.9687 222.118 79.7504 223.201 79.7504C224.77 79.7504 226.007 80.1223 226.912 80.8661C227.818 81.5938 228.44 82.4508 228.78 83.4372L225.893 84.65C225.715 84.1163 225.4 83.6717 224.947 83.3159C224.511 82.944 223.945 82.758 223.25 82.758C222.538 82.758 221.948 82.9278 221.479 83.2674C221.026 83.5908 220.8 84.0193 220.8 84.5529C220.8 85.0704 221.018 85.5151 221.455 85.887C221.891 86.2427 222.611 86.5904 223.613 86.93L224.705 87.2938C226.209 87.8113 227.357 88.4985 228.149 89.3555C228.958 90.1964 229.362 91.3041 229.362 92.6785C229.362 93.8105 229.071 94.7726 228.489 95.5649C227.907 96.3411 227.155 96.9232 226.233 97.3113C225.327 97.6994 224.39 97.8935 223.419 97.8935ZM236.796 97.6994C236.181 97.6994 235.615 97.6105 235.098 97.4326C234.58 97.2386 234.16 96.9798 233.836 96.6564C233.076 95.9288 232.696 94.8939 232.696 93.5517V87.8517H230.538V85.1351H232.696V81.6423H235.874V85.1351H238.906V87.8517H235.874V92.9696C235.874 93.6002 236.011 94.053 236.286 94.3279C236.513 94.5866 236.901 94.716 237.451 94.716C237.758 94.716 238.008 94.6756 238.202 94.5947C238.413 94.5139 238.679 94.3764 239.003 94.1824V97.2871C238.308 97.562 237.572 97.6994 236.796 97.6994ZM246.012 97.8935C244.524 97.8935 243.392 97.4326 242.616 96.5109C241.84 95.5892 241.452 94.3036 241.452 92.6543V85.1351H244.629V92.2662C244.629 93.107 244.832 93.77 245.236 94.2551C245.64 94.7241 246.174 94.9585 246.837 94.9585C247.742 94.9585 248.462 94.6271 248.995 93.9641C249.529 93.3011 249.796 92.4602 249.796 91.4415V85.1351H252.973V97.5054H249.99V95.953H249.796C249.424 96.5513 248.898 97.0283 248.219 97.3841C247.556 97.7237 246.82 97.8935 246.012 97.8935ZM261.263 97.8935C260.147 97.8935 259.128 97.6186 258.206 97.0688C257.301 96.5028 256.581 95.7266 256.048 94.7402C255.53 93.7377 255.271 92.5977 255.271 91.3202C255.271 90.0589 255.53 88.927 256.048 87.9245C256.581 86.9219 257.301 86.1457 258.206 85.5959C259.128 85.03 260.147 84.747 261.263 84.747C262.103 84.747 262.847 84.9329 263.494 85.3049C264.141 85.6606 264.634 86.1053 264.974 86.6389H265.168L264.974 84.8925V80.1384H268.127V97.5054H265.168V96.0258H264.974C264.65 96.5594 264.157 97.0041 263.494 97.3598C262.847 97.7156 262.103 97.8935 261.263 97.8935ZM261.796 94.9585C262.395 94.9585 262.952 94.8049 263.47 94.4977C263.987 94.1905 264.4 93.7619 264.707 93.2122C265.014 92.6624 265.168 92.0317 265.168 91.3202C265.168 90.6087 265.014 89.9781 264.707 89.4283C264.4 88.8785 263.987 88.4581 263.47 88.167C262.952 87.8598 262.395 87.7062 261.796 87.7062C261.214 87.7062 260.664 87.8598 260.147 88.167C259.629 88.4581 259.217 88.8785 258.91 89.4283C258.603 89.9781 258.449 90.6087 258.449 91.3202C258.449 92.0317 258.603 92.6624 258.91 93.2122C259.217 93.7619 259.629 94.1905 260.147 94.4977C260.664 94.8049 261.214 94.9585 261.796 94.9585ZM276.931 97.8935C275.702 97.8935 274.594 97.6105 273.608 97.0445C272.622 96.4786 271.846 95.7024 271.28 94.716C270.73 93.7134 270.455 92.5896 270.455 91.3445C270.455 90.164 270.73 89.0725 271.28 88.07C271.829 87.0513 272.589 86.2427 273.56 85.6444C274.53 85.0461 275.613 84.747 276.81 84.747C278.087 84.747 279.187 85.0219 280.109 85.5717C281.03 86.1215 281.726 86.8734 282.195 87.8274C282.68 88.7815 282.922 89.8406 282.922 91.0049C282.922 91.3768 282.898 91.7326 282.849 92.0721H273.56C273.721 93.0585 274.109 93.8105 274.724 94.3279C275.354 94.8292 276.106 95.0798 276.98 95.0798C277.707 95.0798 278.33 94.9262 278.847 94.619C279.381 94.2956 279.801 93.867 280.109 93.3334L282.68 94.5947C281.418 96.7939 279.502 97.8935 276.931 97.8935ZM279.866 89.8164C279.834 89.4283 279.688 89.0483 279.429 88.6764C279.187 88.2883 278.839 87.973 278.386 87.7304C277.95 87.4717 277.432 87.3423 276.834 87.3423C276.074 87.3423 275.419 87.5687 274.869 88.0215C274.336 88.4581 273.948 89.0564 273.705 89.8164H279.866ZM285.37 85.1351H288.353V86.6874H288.547C288.919 86.0891 289.445 85.6202 290.124 85.2806C290.803 84.9249 291.539 84.747 292.331 84.747C293.819 84.747 294.951 85.1998 295.727 86.1053C296.503 87.0108 296.891 88.2479 296.891 89.8164V97.5054H293.714V90.2045C293.714 89.4121 293.512 88.7977 293.107 88.3611C292.703 87.9245 292.137 87.7062 291.41 87.7062C290.552 87.7062 289.857 88.0376 289.324 88.7006C288.806 89.3636 288.547 90.1964 288.547 91.1989V97.5054H285.37V85.1351ZM304.659 97.6994C304.044 97.6994 303.478 97.6105 302.961 97.4326C302.444 97.2386 302.023 96.9798 301.7 96.6564C300.94 95.9288 300.56 94.8939 300.56 93.5517V87.8517H298.401V85.1351H300.56V81.6423H303.737V85.1351H306.769V87.8517H303.737V92.9696C303.737 93.6002 303.875 94.053 304.15 94.3279C304.376 94.5866 304.764 94.716 305.314 94.716C305.621 94.716 305.872 94.6756 306.066 94.5947C306.276 94.5139 306.543 94.3764 306.866 94.1824V97.2871C306.171 97.562 305.435 97.6994 304.659 97.6994ZM323.283 97.8935C321.601 97.8935 320.065 97.4973 318.674 96.7049C317.283 95.8964 316.184 94.8049 315.375 93.4305C314.583 92.0398 314.187 90.5036 314.187 88.8219C314.187 87.1402 314.583 85.6121 315.375 84.2376C316.184 82.847 317.283 81.7555 318.674 80.9631C320.065 80.1546 321.601 79.7504 323.283 79.7504C325.902 79.7504 328.069 80.6963 329.783 82.5883L327.479 84.8198C326.363 83.51 324.972 82.8551 323.307 82.8551C322.223 82.8551 321.237 83.1057 320.348 83.607C319.458 84.0921 318.755 84.7874 318.237 85.693C317.736 86.5985 317.485 87.6415 317.485 88.8219C317.485 90.0023 317.736 91.0453 318.237 91.9509C318.755 92.8564 319.458 93.5598 320.348 94.0611C321.237 94.5462 322.223 94.7888 323.307 94.7888C325.134 94.7888 326.662 94.0288 327.891 92.5087L330.22 94.716C329.363 95.7509 328.344 96.5432 327.163 97.093C325.999 97.6266 324.706 97.8935 323.283 97.8935ZM332.578 80.1384H335.756V97.5054H332.578V80.1384ZM343.342 97.8935C341.854 97.8935 340.722 97.4326 339.946 96.5109C339.17 95.5892 338.782 94.3036 338.782 92.6543V85.1351H341.959V92.2662C341.959 93.107 342.161 93.77 342.566 94.2551C342.97 94.7241 343.504 94.9585 344.166 94.9585C345.072 94.9585 345.792 94.6271 346.325 93.9641C346.859 93.3011 347.126 92.4602 347.126 91.4415V85.1351H350.303V97.5054H347.32V95.953H347.126C346.754 96.5513 346.228 97.0283 345.549 97.3841C344.886 97.7237 344.15 97.8935 343.342 97.8935ZM360.287 97.8935C359.447 97.8935 358.695 97.7156 358.032 97.3598C357.385 97.0041 356.9 96.5594 356.576 96.0258H356.382V97.5054H353.399V80.1384H356.576V84.8925L356.382 86.6389H356.576C356.916 86.1053 357.409 85.6606 358.056 85.3049C358.703 84.9329 359.447 84.747 360.287 84.747C361.403 84.747 362.414 85.03 363.319 85.5959C364.241 86.1457 364.961 86.9219 365.478 87.9245C365.996 88.927 366.254 90.0589 366.254 91.3202C366.254 92.5977 365.996 93.7377 365.478 94.7402C364.961 95.7266 364.241 96.5028 363.319 97.0688C362.414 97.6186 361.403 97.8935 360.287 97.8935ZM359.73 94.9585C360.328 94.9585 360.886 94.8049 361.403 94.4977C361.921 94.1905 362.333 93.7619 362.64 93.2122C362.948 92.6624 363.101 92.0317 363.101 91.3202C363.101 90.6087 362.948 89.9781 362.64 89.4283C362.333 88.8785 361.921 88.4581 361.403 88.167C360.886 87.8598 360.328 87.7062 359.73 87.7062C359.147 87.7062 358.598 87.8598 358.08 88.167C357.563 88.4581 357.15 88.8785 356.843 89.4283C356.536 89.9781 356.382 90.6087 356.382 91.3202C356.382 92.0317 356.536 92.6624 356.843 93.2122C357.15 93.7619 357.563 94.1905 358.08 94.4977C358.598 94.8049 359.147 94.9585 359.73 94.9585ZM373.288 97.8935C371.784 97.8935 370.563 97.5862 369.625 96.9718C368.704 96.3573 368.057 95.5568 367.685 94.5705L370.523 93.3334C370.781 93.9156 371.145 94.3602 371.614 94.6675C372.099 94.9585 372.657 95.1041 373.288 95.1041C373.87 95.1041 374.355 95.0151 374.743 94.8373C375.131 94.6432 375.325 94.336 375.325 93.9156C375.325 93.5113 375.147 93.2122 374.792 93.0181C374.436 92.8079 373.902 92.6219 373.191 92.4602L371.736 92.1449C370.733 91.9024 369.9 91.4658 369.237 90.8351C368.574 90.1883 368.243 89.3879 368.243 88.4338C368.243 87.7223 368.453 87.0836 368.873 86.5176C369.31 85.9517 369.892 85.5151 370.62 85.2078C371.364 84.9006 372.18 84.747 373.07 84.747C375.624 84.747 377.33 85.6444 378.187 87.4393L375.471 88.6279C374.986 87.7547 374.21 87.3181 373.142 87.3181C372.593 87.3181 372.156 87.4232 371.833 87.6334C371.509 87.8274 371.347 88.0781 371.347 88.3853C371.347 88.9674 371.897 89.404 372.997 89.6951L374.816 90.1317C376.045 90.4389 376.967 90.9079 377.581 91.5385C378.212 92.1692 378.527 92.9453 378.527 93.867C378.527 94.6594 378.293 95.3628 377.824 95.9773C377.371 96.5756 376.74 97.0445 375.932 97.3841C375.139 97.7237 374.258 97.8935 373.288 97.8935Z" fill="#434343"/>
<path d="M57.1272 124.246C56.2472 124.246 55.4786 124.007 54.8213 123.528C54.1641 123.037 53.7018 122.352 53.4344 121.472L54.7712 120.921C55.1722 122.235 55.9576 122.893 57.1272 122.893C57.7844 122.893 58.308 122.664 58.6979 122.208C59.0989 121.751 59.2994 121.149 59.2994 120.403V112.015H60.7197V120.286C60.7197 121.121 60.5638 121.84 60.2519 122.442C59.9511 123.032 59.5278 123.483 58.9819 123.795C58.4472 124.096 57.829 124.246 57.1272 124.246ZM66.5391 124.246C65.6034 124.246 64.7457 123.962 63.9659 123.394C63.1861 122.826 62.6514 122.029 62.3618 121.004L63.7153 120.453C63.9046 121.166 64.2555 121.751 64.7679 122.208C65.2804 122.664 65.8819 122.893 66.5725 122.893C67.2632 122.893 67.848 122.709 68.327 122.341C68.806 121.963 69.0455 121.45 69.0455 120.804C69.0455 120.247 68.8394 119.79 68.4273 119.434C68.0263 119.066 67.3635 118.726 66.4389 118.415L65.687 118.147C64.8403 117.846 64.1497 117.451 63.615 116.961C63.0803 116.471 62.8129 115.791 62.8129 114.922C62.8129 114.354 62.9689 113.831 63.2808 113.352C63.5927 112.861 64.0272 112.472 64.5841 112.182C65.1411 111.892 65.7649 111.748 66.4556 111.748C67.1462 111.748 67.7478 111.876 68.2602 112.132C68.7726 112.388 69.1792 112.7 69.48 113.068C69.7919 113.435 70.0091 113.797 70.1316 114.154L68.7949 114.722C68.6835 114.31 68.4273 113.936 68.0263 113.602C67.6364 113.268 67.1184 113.101 66.4723 113.101C65.8596 113.101 65.3361 113.274 64.9016 113.619C64.4672 113.964 64.2499 114.399 64.2499 114.922C64.2499 115.39 64.4338 115.774 64.8014 116.075C65.169 116.365 65.7259 116.638 66.4723 116.894L67.2576 117.161C68.2713 117.529 69.0622 117.991 69.6304 118.548C70.1985 119.094 70.4825 119.84 70.4825 120.787C70.4825 121.556 70.282 122.202 69.881 122.726C69.4911 123.249 68.9954 123.633 68.3939 123.879C67.7923 124.124 67.1741 124.246 66.5391 124.246ZM75.9055 124.246C74.9698 124.246 74.112 123.962 73.3323 123.394C72.5525 122.826 72.0178 122.029 71.7282 121.004L73.0816 120.453C73.271 121.166 73.6219 121.751 74.1343 122.208C74.6467 122.664 75.2483 122.893 75.9389 122.893C76.6296 122.893 77.2144 122.709 77.6934 122.341C78.1724 121.963 78.4119 121.45 78.4119 120.804C78.4119 120.247 78.2058 119.79 77.7936 119.434C77.3926 119.066 76.7298 118.726 75.8052 118.415L75.0533 118.147C74.2067 117.846 73.5161 117.451 72.9814 116.961C72.4467 116.471 72.1793 115.791 72.1793 114.922C72.1793 114.354 72.3353 113.831 72.6472 113.352C72.9591 112.861 73.3935 112.472 73.9505 112.182C74.5075 111.892 75.1313 111.748 75.8219 111.748C76.5126 111.748 77.1141 111.876 77.6266 112.132C78.139 112.388 78.5456 112.7 78.8463 113.068C79.1582 113.435 79.3755 113.797 79.498 114.154L78.1613 114.722C78.0499 114.31 77.7936 113.936 77.3926 113.602C77.0027 113.268 76.4847 113.101 75.8387 113.101C75.226 113.101 74.7024 113.274 74.268 113.619C73.8335 113.964 73.6163 114.399 73.6163 114.922C73.6163 115.39 73.8001 115.774 74.1677 116.075C74.5353 116.365 75.0923 116.638 75.8387 116.894L76.624 117.161C77.6377 117.529 78.4286 117.991 78.9967 118.548C79.5648 119.094 79.8489 119.84 79.8489 120.787C79.8489 121.556 79.6484 122.202 79.2474 122.726C78.8575 123.249 78.3618 123.633 77.7602 123.879C77.1587 124.124 76.5404 124.246 75.9055 124.246ZM88.7499 112.015H90.354L94.8989 123.979H93.3449L92.1419 120.687H86.9787L85.7756 123.979H84.2216L88.7499 112.015ZM91.6573 119.35L90.0699 115.039L89.5853 113.753H89.5185L89.0506 115.039L87.4633 119.35H91.6573ZM99.8164 124.246C98.9921 124.246 98.2513 124.051 97.5941 123.661C96.9368 123.26 96.4244 122.72 96.0568 122.04C95.6892 121.35 95.5054 120.576 95.5054 119.718C95.5054 118.86 95.6892 118.086 96.0568 117.395C96.4244 116.705 96.9368 116.164 97.5941 115.774C98.2513 115.385 98.9921 115.19 99.8164 115.19C100.741 115.19 101.515 115.407 102.139 115.841C102.774 116.265 103.225 116.833 103.492 117.546L102.206 118.08C101.994 117.557 101.677 117.161 101.253 116.894C100.841 116.616 100.34 116.476 99.7496 116.476C99.2483 116.476 98.7804 116.616 98.346 116.894C97.9115 117.161 97.5607 117.54 97.2933 118.03C97.0371 118.52 96.909 119.083 96.909 119.718C96.909 120.353 97.0371 120.915 97.2933 121.406C97.5607 121.896 97.9115 122.28 98.346 122.558C98.7804 122.826 99.2483 122.959 99.7496 122.959C100.351 122.959 100.869 122.82 101.304 122.542C101.738 122.263 102.061 121.868 102.273 121.355L103.543 121.89C103.253 122.592 102.785 123.16 102.139 123.594C101.504 124.029 100.73 124.246 99.8164 124.246ZM107.72 124.246C107.096 124.246 106.539 124.124 106.049 123.879C105.559 123.633 105.18 123.299 104.913 122.876C104.646 122.442 104.512 121.951 104.512 121.406C104.512 120.503 104.852 119.801 105.531 119.3C106.211 118.788 107.069 118.532 108.105 118.532C108.617 118.532 109.09 118.587 109.525 118.699C109.97 118.81 110.31 118.938 110.544 119.083V118.565C110.544 117.93 110.321 117.423 109.876 117.044C109.43 116.655 108.868 116.46 108.188 116.46C107.709 116.46 107.269 116.565 106.868 116.777C106.467 116.978 106.15 117.262 105.916 117.629L104.846 116.827C105.18 116.315 105.637 115.914 106.216 115.624C106.807 115.334 107.458 115.19 108.171 115.19C109.33 115.19 110.238 115.496 110.895 116.109C111.563 116.71 111.898 117.535 111.898 118.582V123.979H110.544V122.759H110.477C110.232 123.171 109.865 123.522 109.374 123.812C108.884 124.101 108.333 124.246 107.72 124.246ZM107.854 122.993C108.333 122.993 108.778 122.87 109.191 122.625C109.603 122.38 109.931 122.052 110.176 121.639C110.422 121.227 110.544 120.776 110.544 120.286C110.277 120.108 109.948 119.963 109.558 119.852C109.168 119.74 108.756 119.684 108.322 119.684C107.542 119.684 106.952 119.846 106.551 120.169C106.161 120.492 105.966 120.91 105.966 121.422C105.966 121.89 106.144 122.269 106.5 122.558C106.857 122.848 107.308 122.993 107.854 122.993ZM117.401 124.246C116.644 124.246 115.953 124.051 115.329 123.661C114.716 123.271 114.232 122.737 113.875 122.057C113.519 121.367 113.341 120.587 113.341 119.718C113.341 118.86 113.519 118.086 113.875 117.395C114.232 116.705 114.716 116.164 115.329 115.774C115.953 115.385 116.644 115.19 117.401 115.19C118.058 115.19 118.643 115.34 119.156 115.641C119.668 115.93 120.058 116.292 120.325 116.727H120.392L120.325 115.541V112.015H121.745V123.979H120.392V122.726H120.325C120.058 123.149 119.668 123.511 119.156 123.812C118.643 124.101 118.058 124.246 117.401 124.246ZM117.568 122.959C118.069 122.959 118.532 122.826 118.955 122.558C119.389 122.291 119.735 121.912 119.991 121.422C120.258 120.932 120.392 120.364 120.392 119.718C120.392 119.072 120.258 118.504 119.991 118.014C119.735 117.523 119.389 117.145 118.955 116.877C118.532 116.61 118.069 116.476 117.568 116.476C117.078 116.476 116.616 116.61 116.181 116.877C115.747 117.145 115.396 117.529 115.129 118.03C114.872 118.52 114.744 119.083 114.744 119.718C114.744 120.353 114.872 120.921 115.129 121.422C115.396 121.912 115.747 122.291 116.181 122.558C116.616 122.826 117.078 122.959 117.568 122.959ZM127.555 124.246C126.742 124.246 126.012 124.051 125.366 123.661C124.72 123.271 124.213 122.737 123.845 122.057C123.489 121.367 123.311 120.592 123.311 119.735C123.311 118.91 123.478 118.153 123.812 117.462C124.157 116.771 124.642 116.22 125.266 115.808C125.89 115.396 126.614 115.19 127.438 115.19C128.273 115.19 128.998 115.379 129.61 115.758C130.223 116.125 130.691 116.638 131.014 117.295C131.348 117.952 131.515 118.704 131.515 119.551C131.515 119.718 131.498 119.863 131.465 119.985H124.731C124.764 120.631 124.92 121.177 125.199 121.623C125.477 122.068 125.828 122.403 126.252 122.625C126.686 122.848 127.137 122.959 127.605 122.959C128.697 122.959 129.538 122.447 130.128 121.422L131.331 122.007C130.964 122.698 130.462 123.244 129.827 123.645C129.204 124.046 128.446 124.246 127.555 124.246ZM130.011 118.816C129.989 118.459 129.889 118.103 129.71 117.746C129.532 117.39 129.248 117.089 128.858 116.844C128.48 116.599 128.001 116.476 127.421 116.476C126.753 116.476 126.185 116.693 125.717 117.128C125.26 117.551 124.959 118.114 124.815 118.816H130.011ZM133.177 115.457H134.531V116.71H134.598C134.843 116.276 135.21 115.914 135.7 115.624C136.19 115.334 136.708 115.19 137.254 115.19C137.878 115.19 138.418 115.34 138.875 115.641C139.343 115.942 139.677 116.343 139.878 116.844C140.178 116.343 140.574 115.942 141.064 115.641C141.565 115.34 142.145 115.19 142.802 115.19C143.782 115.19 144.517 115.49 145.007 116.092C145.509 116.682 145.759 117.49 145.759 118.515V123.979H144.356V118.732C144.356 117.941 144.194 117.367 143.871 117.011C143.548 116.655 143.069 116.476 142.434 116.476C142.011 116.476 141.627 116.599 141.281 116.844C140.936 117.089 140.663 117.418 140.463 117.83C140.273 118.242 140.178 118.687 140.178 119.166V123.979H138.758V118.749C138.758 117.947 138.597 117.367 138.274 117.011C137.951 116.655 137.477 116.476 136.853 116.476C136.43 116.476 136.046 116.604 135.7 116.861C135.355 117.106 135.082 117.44 134.882 117.863C134.692 118.275 134.598 118.721 134.598 119.2V123.979H133.177V115.457ZM150.176 123.444L146.65 115.457H148.188L150.861 121.79H150.895L153.468 115.457H155.005L149.742 127.588H148.271L150.176 123.444ZM163.996 124.246C163.16 124.246 162.408 124.046 161.74 123.645C161.071 123.244 160.548 122.698 160.169 122.007C159.801 121.316 159.618 120.553 159.618 119.718C159.618 118.882 159.801 118.119 160.169 117.429C160.548 116.738 161.071 116.192 161.74 115.791C162.408 115.39 163.16 115.19 163.996 115.19C164.831 115.19 165.583 115.39 166.251 115.791C166.92 116.192 167.438 116.738 167.805 117.429C168.184 118.119 168.373 118.882 168.373 119.718C168.373 120.553 168.184 121.316 167.805 122.007C167.438 122.698 166.92 123.244 166.251 123.645C165.583 124.046 164.831 124.246 163.996 124.246ZM163.996 122.959C164.519 122.959 165.004 122.831 165.449 122.575C165.906 122.308 166.268 121.929 166.535 121.439C166.814 120.949 166.953 120.375 166.953 119.718C166.953 119.061 166.814 118.487 166.535 117.997C166.268 117.507 165.906 117.134 165.449 116.877C165.004 116.61 164.519 116.476 163.996 116.476C163.472 116.476 162.982 116.61 162.525 116.877C162.068 117.134 161.701 117.507 161.422 117.997C161.155 118.487 161.021 119.061 161.021 119.718C161.021 120.375 161.155 120.949 161.422 121.439C161.701 121.929 162.068 122.308 162.525 122.575C162.982 122.831 163.472 122.959 163.996 122.959ZM170.764 116.744H169.193V115.457H170.764V114.538C170.764 114.003 170.886 113.535 171.131 113.134C171.376 112.733 171.705 112.427 172.117 112.215C172.529 111.993 172.986 111.881 173.487 111.881C173.966 111.881 174.384 111.948 174.741 112.082V113.469C174.54 113.391 174.351 113.329 174.172 113.285C173.994 113.229 173.783 113.201 173.537 113.201C173.17 113.201 172.852 113.335 172.585 113.602C172.318 113.858 172.184 114.221 172.184 114.688V115.457H174.373V116.744H172.184V123.979H170.764V116.744ZM182.064 113.368H178.705V112.015H186.826V113.368H183.484V123.979H182.064V113.368ZM190.786 124.246C189.973 124.246 189.243 124.051 188.597 123.661C187.951 123.271 187.444 122.737 187.077 122.057C186.72 121.367 186.542 120.592 186.542 119.735C186.542 118.91 186.709 118.153 187.043 117.462C187.388 116.771 187.873 116.22 188.497 115.808C189.121 115.396 189.845 115.19 190.669 115.19C191.505 115.19 192.229 115.379 192.841 115.758C193.454 116.125 193.922 116.638 194.245 117.295C194.579 117.952 194.746 118.704 194.746 119.551C194.746 119.718 194.729 119.863 194.696 119.985H187.962C187.996 120.631 188.152 121.177 188.43 121.623C188.709 122.068 189.059 122.403 189.483 122.625C189.917 122.848 190.368 122.959 190.836 122.959C191.928 122.959 192.769 122.447 193.359 121.422L194.562 122.007C194.195 122.698 193.693 123.244 193.059 123.645C192.435 124.046 191.677 124.246 190.786 124.246ZM193.242 118.816C193.22 118.459 193.12 118.103 192.942 117.746C192.763 117.39 192.479 117.089 192.089 116.844C191.711 116.599 191.232 116.476 190.652 116.476C189.984 116.476 189.416 116.693 188.948 117.128C188.491 117.551 188.191 118.114 188.046 118.816H193.242ZM200.35 124.246C199.525 124.246 198.785 124.051 198.127 123.661C197.47 123.26 196.958 122.72 196.59 122.04C196.223 121.35 196.039 120.576 196.039 119.718C196.039 118.86 196.223 118.086 196.59 117.395C196.958 116.705 197.47 116.164 198.127 115.774C198.785 115.385 199.525 115.19 200.35 115.19C201.274 115.19 202.049 115.407 202.672 115.841C203.307 116.265 203.759 116.833 204.026 117.546L202.739 118.08C202.528 117.557 202.21 117.161 201.787 116.894C201.375 116.616 200.873 116.476 200.283 116.476C199.782 116.476 199.314 116.616 198.879 116.894C198.445 117.161 198.094 117.54 197.827 118.03C197.57 118.52 197.442 119.083 197.442 119.718C197.442 120.353 197.57 120.915 197.827 121.406C198.094 121.896 198.445 122.28 198.879 122.558C199.314 122.826 199.782 122.959 200.283 122.959C200.884 122.959 201.402 122.82 201.837 122.542C202.271 122.263 202.594 121.868 202.806 121.355L204.076 121.89C203.786 122.592 203.318 123.16 202.672 123.594C202.037 124.029 201.263 124.246 200.35 124.246ZM205.612 112.015H207.032V115.541L206.965 116.71H207.032C207.266 116.276 207.633 115.914 208.135 115.624C208.647 115.334 209.204 115.19 209.806 115.19C210.842 115.19 211.632 115.496 212.178 116.109C212.724 116.71 212.997 117.512 212.997 118.515V123.979H211.577V118.732C211.577 117.963 211.382 117.395 210.992 117.028C210.602 116.66 210.095 116.476 209.471 116.476C209.026 116.476 208.614 116.61 208.235 116.877C207.867 117.145 207.572 117.49 207.349 117.913C207.138 118.337 207.032 118.777 207.032 119.233V123.979H205.612V112.015ZM215.043 115.457H216.397V116.71H216.463C216.697 116.287 217.071 115.93 217.583 115.641C218.095 115.34 218.641 115.19 219.221 115.19C220.245 115.19 221.025 115.49 221.56 116.092C222.106 116.682 222.379 117.49 222.379 118.515V123.979H220.958V118.732C220.958 117.941 220.769 117.367 220.39 117.011C220.011 116.655 219.493 116.476 218.836 116.476C218.379 116.476 217.967 116.604 217.6 116.861C217.243 117.117 216.965 117.457 216.764 117.88C216.564 118.292 216.463 118.726 216.463 119.183V123.979H215.043V115.457ZM225.245 113.886C224.967 113.886 224.727 113.786 224.527 113.586C224.326 113.385 224.226 113.146 224.226 112.867C224.226 112.589 224.326 112.355 224.527 112.165C224.727 111.965 224.967 111.864 225.245 111.864C225.524 111.864 225.763 111.965 225.964 112.165C226.164 112.355 226.264 112.589 226.264 112.867C226.264 113.146 226.164 113.385 225.964 113.586C225.774 113.786 225.535 113.886 225.245 113.886ZM224.543 115.457H225.947V123.979H224.543V115.457ZM231.957 124.246C231.133 124.246 230.392 124.051 229.735 123.661C229.078 123.26 228.565 122.72 228.198 122.04C227.83 121.35 227.646 120.576 227.646 119.718C227.646 118.86 227.83 118.086 228.198 117.395C228.565 116.705 229.078 116.164 229.735 115.774C230.392 115.385 231.133 115.19 231.957 115.19C232.882 115.19 233.656 115.407 234.28 115.841C234.915 116.265 235.366 116.833 235.633 117.546L234.347 118.08C234.135 117.557 233.818 117.161 233.394 116.894C232.982 116.616 232.481 116.476 231.89 116.476C231.389 116.476 230.921 116.616 230.487 116.894C230.052 117.161 229.701 117.54 229.434 118.03C229.178 118.52 229.05 119.083 229.05 119.718C229.05 120.353 229.178 120.915 229.434 121.406C229.701 121.896 230.052 122.28 230.487 122.558C230.921 122.826 231.389 122.959 231.89 122.959C232.492 122.959 233.01 122.82 233.444 122.542C233.879 122.263 234.202 121.868 234.413 121.355L235.683 121.89C235.394 122.592 234.926 123.16 234.28 123.594C233.645 124.029 232.871 124.246 231.957 124.246ZM239.861 124.246C239.237 124.246 238.68 124.124 238.19 123.879C237.7 123.633 237.321 123.299 237.054 122.876C236.786 122.442 236.653 121.951 236.653 121.406C236.653 120.503 236.993 119.801 237.672 119.3C238.352 118.788 239.209 118.532 240.245 118.532C240.758 118.532 241.231 118.587 241.666 118.699C242.111 118.81 242.451 118.938 242.685 119.083V118.565C242.685 117.93 242.462 117.423 242.016 117.044C241.571 116.655 241.008 116.46 240.329 116.46C239.85 116.46 239.41 116.565 239.009 116.777C238.608 116.978 238.29 117.262 238.056 117.629L236.987 116.827C237.321 116.315 237.778 115.914 238.357 115.624C238.948 115.334 239.599 115.19 240.312 115.19C241.471 115.19 242.379 115.496 243.036 116.109C243.704 116.71 244.038 117.535 244.038 118.582V123.979H242.685V122.759H242.618C242.373 123.171 242.005 123.522 241.515 123.812C241.025 124.101 240.474 124.246 239.861 124.246ZM239.995 122.993C240.474 122.993 240.919 122.87 241.331 122.625C241.744 122.38 242.072 122.052 242.317 121.639C242.562 121.227 242.685 120.776 242.685 120.286C242.418 120.108 242.089 119.963 241.699 119.852C241.309 119.74 240.897 119.684 240.463 119.684C239.683 119.684 239.092 119.846 238.691 120.169C238.301 120.492 238.107 120.91 238.107 121.422C238.107 121.89 238.285 122.269 238.641 122.558C238.998 122.848 239.449 122.993 239.995 122.993ZM246.014 112.015H247.434V123.979H246.014V112.015ZM253.706 112.015H260.624V113.368H255.11V117.328H260.089V118.665H255.11V122.625H260.624V123.979H253.706V112.015ZM265.908 124.246C265.151 124.246 264.46 124.051 263.837 123.661C263.224 123.271 262.739 122.737 262.383 122.057C262.026 121.367 261.848 120.587 261.848 119.718C261.848 118.86 262.026 118.086 262.383 117.395C262.739 116.705 263.224 116.164 263.837 115.774C264.46 115.385 265.151 115.19 265.908 115.19C266.566 115.19 267.151 115.34 267.663 115.641C268.175 115.93 268.565 116.292 268.833 116.727H268.899L268.833 115.541V112.015H270.253V123.979H268.899V122.726H268.833C268.565 123.149 268.175 123.511 267.663 123.812C267.151 124.101 266.566 124.246 265.908 124.246ZM266.076 122.959C266.577 122.959 267.039 122.826 267.462 122.558C267.897 122.291 268.242 121.912 268.498 121.422C268.766 120.932 268.899 120.364 268.899 119.718C268.899 119.072 268.766 118.504 268.498 118.014C268.242 117.523 267.897 117.145 267.462 116.877C267.039 116.61 266.577 116.476 266.076 116.476C265.585 116.476 265.123 116.61 264.689 116.877C264.254 117.145 263.903 117.529 263.636 118.03C263.38 118.52 263.252 119.083 263.252 119.718C263.252 120.353 263.38 120.921 263.636 121.422C263.903 121.912 264.254 122.291 264.689 122.558C265.123 122.826 265.585 122.959 266.076 122.959ZM275.442 124.246C274.417 124.246 273.632 123.945 273.086 123.344C272.551 122.742 272.284 121.901 272.284 120.821V115.457H273.704V120.603C273.704 121.417 273.888 122.013 274.256 122.391C274.623 122.77 275.119 122.959 275.743 122.959C276.222 122.959 276.645 122.831 277.013 122.575C277.392 122.319 277.681 121.985 277.882 121.573C278.093 121.16 278.199 120.726 278.199 120.269V115.457H279.62V123.979H278.266V122.742H278.199C277.965 123.166 277.592 123.522 277.08 123.812C276.567 124.101 276.021 124.246 275.442 124.246ZM285.496 124.246C284.671 124.246 283.93 124.051 283.273 123.661C282.616 123.26 282.104 122.72 281.736 122.04C281.368 121.35 281.185 120.576 281.185 119.718C281.185 118.86 281.368 118.086 281.736 117.395C282.104 116.705 282.616 116.164 283.273 115.774C283.93 115.385 284.671 115.19 285.496 115.19C286.42 115.19 287.194 115.407 287.818 115.841C288.453 116.265 288.904 116.833 289.172 117.546L287.885 118.08C287.673 117.557 287.356 117.161 286.933 116.894C286.52 116.616 286.019 116.476 285.429 116.476C284.927 116.476 284.46 116.616 284.025 116.894C283.591 117.161 283.24 117.54 282.972 118.03C282.716 118.52 282.588 119.083 282.588 119.718C282.588 120.353 282.716 120.915 282.972 121.406C283.24 121.896 283.591 122.28 284.025 122.558C284.46 122.826 284.927 122.959 285.429 122.959C286.03 122.959 286.548 122.82 286.983 122.542C287.417 122.263 287.74 121.868 287.952 121.355L289.222 121.89C288.932 122.592 288.464 123.16 287.818 123.594C287.183 124.029 286.409 124.246 285.496 124.246ZM293.399 124.246C292.776 124.246 292.219 124.124 291.728 123.879C291.238 123.633 290.86 123.299 290.592 122.876C290.325 122.442 290.191 121.951 290.191 121.406C290.191 120.503 290.531 119.801 291.21 119.3C291.89 118.788 292.748 118.532 293.784 118.532C294.296 118.532 294.77 118.587 295.204 118.699C295.65 118.81 295.989 118.938 296.223 119.083V118.565C296.223 117.93 296 117.423 295.555 117.044C295.109 116.655 294.547 116.46 293.867 116.46C293.388 116.46 292.948 116.565 292.547 116.777C292.146 116.978 291.829 117.262 291.595 117.629L290.525 116.827C290.86 116.315 291.316 115.914 291.896 115.624C292.486 115.334 293.138 115.19 293.851 115.19C295.009 115.19 295.917 115.496 296.574 116.109C297.243 116.71 297.577 117.535 297.577 118.582V123.979H296.223V122.759H296.156C295.911 123.171 295.544 123.522 295.054 123.812C294.563 124.101 294.012 124.246 293.399 124.246ZM293.533 122.993C294.012 122.993 294.458 122.87 294.87 122.625C295.282 122.38 295.611 122.052 295.856 121.639C296.101 121.227 296.223 120.776 296.223 120.286C295.956 120.108 295.627 119.963 295.237 119.852C294.848 119.74 294.435 119.684 294.001 119.684C293.221 119.684 292.631 119.846 292.23 120.169C291.84 120.492 291.645 120.91 291.645 121.422C291.645 121.89 291.823 122.269 292.18 122.558C292.536 122.848 292.987 122.993 293.533 122.993ZM302.664 124.112C302.319 124.112 301.996 124.057 301.695 123.945C301.406 123.834 301.161 123.684 300.96 123.494C300.737 123.283 300.57 123.037 300.459 122.759C300.347 122.48 300.292 122.141 300.292 121.74V116.744H298.805V115.457H300.292V113.051H301.712V115.457H303.784V116.744H301.712V121.389C301.712 121.857 301.801 122.202 301.979 122.425C302.191 122.67 302.497 122.792 302.898 122.792C303.221 122.792 303.533 122.698 303.834 122.508V123.895C303.667 123.973 303.494 124.029 303.316 124.062C303.149 124.096 302.932 124.112 302.664 124.112ZM306.426 113.886C306.147 113.886 305.908 113.786 305.707 113.586C305.507 113.385 305.406 113.146 305.406 112.867C305.406 112.589 305.507 112.355 305.707 112.165C305.908 111.965 306.147 111.864 306.426 111.864C306.704 111.864 306.944 111.965 307.144 112.165C307.345 112.355 307.445 112.589 307.445 112.867C307.445 113.146 307.345 113.385 307.144 113.586C306.955 113.786 306.715 113.886 306.426 113.886ZM305.724 115.457H307.127V123.979H305.724V115.457ZM313.205 124.246C312.369 124.246 311.617 124.046 310.949 123.645C310.28 123.244 309.757 122.698 309.378 122.007C309.011 121.316 308.827 120.553 308.827 119.718C308.827 118.882 309.011 118.119 309.378 117.429C309.757 116.738 310.28 116.192 310.949 115.791C311.617 115.39 312.369 115.19 313.205 115.19C314.04 115.19 314.792 115.39 315.46 115.791C316.129 116.192 316.647 116.738 317.014 117.429C317.393 118.119 317.582 118.882 317.582 119.718C317.582 120.553 317.393 121.316 317.014 122.007C316.647 122.698 316.129 123.244 315.46 123.645C314.792 124.046 314.04 124.246 313.205 124.246ZM313.205 122.959C313.728 122.959 314.213 122.831 314.658 122.575C315.115 122.308 315.477 121.929 315.744 121.439C316.023 120.949 316.162 120.375 316.162 119.718C316.162 119.061 316.023 118.487 315.744 117.997C315.477 117.507 315.115 117.134 314.658 116.877C314.213 116.61 313.728 116.476 313.205 116.476C312.681 116.476 312.191 116.61 311.734 116.877C311.277 117.134 310.91 117.507 310.631 117.997C310.364 118.487 310.23 119.061 310.23 119.718C310.23 120.375 310.364 120.949 310.631 121.439C310.91 121.929 311.277 122.308 311.734 122.575C312.191 122.831 312.681 122.959 313.205 122.959ZM319.069 115.457H320.422V116.71H320.489C320.723 116.287 321.096 115.93 321.608 115.641C322.121 115.34 322.667 115.19 323.246 115.19C324.271 115.19 325.05 115.49 325.585 116.092C326.131 116.682 326.404 117.49 326.404 118.515V123.979H324.984V118.732C324.984 117.941 324.794 117.367 324.416 117.011C324.037 116.655 323.519 116.476 322.862 116.476C322.405 116.476 321.993 116.604 321.625 116.861C321.269 117.117 320.99 117.457 320.79 117.88C320.589 118.292 320.489 118.726 320.489 119.183V123.979H319.069V115.457Z" fill="#585858"/>
</svg>
