<svg width="350" height="47" viewBox="0 0 350 47" fill="none" xmlns="http://www.w3.org/2000/svg">
<rect x="1.50085" y="13.8091" width="18.2062" height="5.96408" rx="2.98204" transform="rotate(-30 1.50085 13.8091)" fill="#DB4437"/>
<rect x="4.45312" y="10.8362" width="18.2062" height="5.96408" rx="2.98204" transform="rotate(29.5587 4.45312 10.8362)" fill="#4285F4"/>
<rect x="41.4385" y="15.8083" width="18.2062" height="5.96408" rx="2.98204" transform="rotate(150 41.4385 15.8083)" fill="#F4B400"/>
<rect x="38.4862" y="18.7813" width="18.2062" height="5.96408" rx="2.98204" transform="rotate(-150.441 38.4862 18.7813)" fill="#0F9D58"/>
<path d="M60.9839 21.0419C59.6826 21.0419 58.4823 20.7387 57.3831 20.1323C56.2965 19.5132 55.431 18.6666 54.7867 17.5927C54.1423 16.5061 53.8201 15.2932 53.8201 13.954C53.8201 12.6147 54.1423 11.4081 54.7867 10.3342C55.431 9.24761 56.2965 8.40109 57.3831 7.79464C58.4823 7.17554 59.6826 6.866 60.9839 6.866C62.0452 6.866 63.0118 7.05552 63.8835 7.43455C64.768 7.80095 65.526 8.32529 66.1578 9.00755L64.3952 10.7322C63.9404 10.2521 63.435 9.89197 62.8791 9.65191C62.3358 9.41185 61.6978 9.29183 60.965 9.29183C60.1311 9.29183 59.3667 9.48766 58.6718 9.87933C57.9769 10.2584 57.421 10.808 57.004 11.5281C56.5997 12.2357 56.3976 13.0443 56.3976 13.954C56.3976 14.8637 56.6061 15.6786 57.023 16.3987C57.4399 17.1063 57.9959 17.6559 58.6908 18.0476C59.3983 18.4266 60.169 18.6161 61.0029 18.6161C62.2663 18.6161 63.3024 18.2434 64.111 17.498C64.3637 17.2705 64.5848 16.9799 64.7743 16.6262C64.9638 16.2724 65.1028 15.8871 65.1912 15.4701H60.9271V13.2907H67.5791C67.6676 13.6444 67.7118 14.0424 67.7118 14.4846C67.7118 15.3817 67.5728 16.2155 67.2949 16.9863C67.0295 17.757 66.6189 18.4329 66.063 19.0141C65.4565 19.6711 64.7237 20.1765 63.8646 20.5302C63.0054 20.8714 62.0452 21.0419 60.9839 21.0419ZM74.3504 21.0419C73.3523 21.0419 72.4616 20.8208 71.6782 20.3786C70.8949 19.9238 70.2821 19.311 69.8399 18.5403C69.4103 17.757 69.1955 16.8789 69.1955 15.906C69.1955 14.9458 69.4103 14.074 69.8399 13.2907C70.2821 12.5073 70.8949 11.8945 71.6782 11.4523C72.4616 10.9975 73.3523 10.7701 74.3504 10.7701C75.3359 10.7701 76.2203 10.9975 77.0037 11.4523C77.787 11.8945 78.3935 12.5073 78.823 13.2907C79.2652 14.074 79.4863 14.9458 79.4863 15.906C79.4863 16.8789 79.2652 17.757 78.823 18.5403C78.3935 19.311 77.787 19.9238 77.0037 20.3786C76.2203 20.8208 75.3359 21.0419 74.3504 21.0419ZM74.3504 18.7488C74.8305 18.7488 75.2727 18.6351 75.677 18.4076C76.0813 18.1802 76.4035 17.8517 76.6436 17.4221C76.8836 16.9926 77.0037 16.4872 77.0037 15.906C77.0037 15.3374 76.8836 14.8384 76.6436 14.4088C76.4035 13.9792 76.0813 13.6507 75.677 13.4233C75.2727 13.1959 74.8305 13.0822 74.3504 13.0822C73.8703 13.0822 73.4281 13.1959 73.0238 13.4233C72.6195 13.6507 72.291 13.9792 72.0383 14.4088C71.7982 14.8384 71.6782 15.3374 71.6782 15.906C71.6782 16.4746 71.7982 16.9799 72.0383 17.4221C72.291 17.8517 72.6195 18.1802 73.0238 18.4076C73.4281 18.6351 73.8703 18.7488 74.3504 18.7488ZM86.0102 21.0419C85.0121 21.0419 84.1213 20.8208 83.338 20.3786C82.5547 19.9238 81.9419 19.311 81.4997 18.5403C81.0701 17.757 80.8553 16.8789 80.8553 15.906C80.8553 14.9458 81.0701 14.074 81.4997 13.2907C81.9419 12.5073 82.5547 11.8945 83.338 11.4523C84.1213 10.9975 85.0121 10.7701 86.0102 10.7701C86.9957 10.7701 87.8801 10.9975 88.6635 11.4523C89.4468 11.8945 90.0533 12.5073 90.4828 13.2907C90.925 14.074 91.1461 14.9458 91.1461 15.906C91.1461 16.8789 90.925 17.757 90.4828 18.5403C90.0533 19.311 89.4468 19.9238 88.6635 20.3786C87.8801 20.8208 86.9957 21.0419 86.0102 21.0419ZM86.0102 18.7488C86.4903 18.7488 86.9325 18.6351 87.3368 18.4076C87.7411 18.1802 88.0633 17.8517 88.3034 17.4221C88.5434 16.9926 88.6635 16.4872 88.6635 15.906C88.6635 15.3374 88.5434 14.8384 88.3034 14.4088C88.0633 13.9792 87.7411 13.6507 87.3368 13.4233C86.9325 13.1959 86.4903 13.0822 86.0102 13.0822C85.5301 13.0822 85.0879 13.1959 84.6836 13.4233C84.2793 13.6507 83.9508 13.9792 83.6981 14.4088C83.458 14.8384 83.338 15.3374 83.338 15.906C83.338 16.4746 83.458 16.9799 83.6981 17.4221C83.9508 17.8517 84.2793 18.1802 84.6836 18.4076C85.0879 18.6351 85.5301 18.7488 86.0102 18.7488ZM97.4994 25.1355C96.2739 25.1355 95.2568 24.8576 94.4482 24.3016C93.6396 23.7584 93.0963 23.1014 92.8183 22.3307L95.1494 21.3831C95.3516 21.8632 95.6611 22.2422 96.078 22.5202C96.495 22.7981 96.9688 22.9371 97.4994 22.9371C98.2828 22.9371 98.9019 22.6971 99.3567 22.2169C99.8242 21.7368 100.058 21.0546 100.058 20.1702V19.4121H99.9063C99.6031 19.8417 99.2051 20.1702 98.7123 20.3976C98.2196 20.625 97.6574 20.7387 97.0256 20.7387C96.2297 20.7387 95.4842 20.5366 94.7893 20.1323C94.1071 19.7153 93.5575 19.1341 93.1405 18.3887C92.7236 17.6306 92.5151 16.7525 92.5151 15.7544C92.5151 14.7563 92.7236 13.8845 93.1405 13.139C93.5575 12.381 94.1071 11.7998 94.7893 11.3955C95.4842 10.9785 96.2297 10.7701 97.0256 10.7701C97.6574 10.7701 98.2196 10.8838 98.7123 11.1112C99.2051 11.3386 99.6031 11.6671 99.9063 12.0967H100.058V11.0733H102.446V20.0754C102.446 21.1114 102.244 22.0085 101.839 22.7666C101.435 23.5246 100.86 24.1058 100.115 24.5101C99.3693 24.9271 98.4976 25.1355 97.4994 25.1355ZM97.5373 18.4834C98.2322 18.4834 98.8261 18.2434 99.3188 17.7633C99.8116 17.2705 100.058 16.6009 100.058 15.7544C100.058 14.8826 99.8116 14.213 99.3188 13.7455C98.8387 13.2654 98.2449 13.0253 97.5373 13.0253C96.8298 13.0253 96.2297 13.2654 95.7369 13.7455C95.2442 14.2256 94.9978 14.8952 94.9978 15.7544C94.9978 16.6135 95.2442 17.2832 95.7369 17.7633C96.2297 18.2434 96.8298 18.4834 97.5373 18.4834ZM104.872 7.16923H107.355V20.7387H104.872V7.16923ZM114.232 21.0419C113.272 21.0419 112.406 20.8208 111.636 20.3786C110.865 19.9364 110.259 19.33 109.816 18.5593C109.387 17.7759 109.172 16.8978 109.172 15.925C109.172 15.0026 109.387 14.1498 109.816 13.3665C110.246 12.5705 110.84 11.9388 111.598 11.4713C112.356 11.0038 113.202 10.7701 114.137 10.7701C115.135 10.7701 115.995 10.9849 116.715 11.4144C117.435 11.844 117.978 12.4315 118.345 13.1769C118.724 13.9224 118.913 14.7499 118.913 15.6596C118.913 15.9502 118.894 16.2282 118.856 16.4935H111.598C111.724 17.2642 112.027 17.8517 112.507 18.256C113 18.6477 113.588 18.8435 114.27 18.8435C114.839 18.8435 115.325 18.7235 115.729 18.4834C116.146 18.2308 116.475 17.8959 116.715 17.479L118.724 18.4645C117.738 20.1828 116.241 21.0419 114.232 21.0419ZM116.525 14.731C116.5 14.4278 116.386 14.1309 116.184 13.8403C115.995 13.537 115.723 13.2907 115.369 13.1011C115.028 12.899 114.624 12.7979 114.156 12.7979C113.562 12.7979 113.051 12.9748 112.621 13.3286C112.204 13.6697 111.901 14.1372 111.711 14.731H116.525ZM125.609 7.16923H130.195C131.61 7.16923 132.842 7.4535 133.891 8.02206C134.939 8.59061 135.748 9.38659 136.316 10.41C136.885 11.4334 137.169 12.6147 137.169 13.954C137.169 15.2932 136.885 16.4746 136.316 17.498C135.748 18.5213 134.939 19.3173 133.891 19.8859C132.842 20.4544 131.61 20.7387 130.195 20.7387H125.609V7.16923ZM130.081 18.3129C131.547 18.3129 132.665 17.9275 133.436 17.1568C134.206 16.3735 134.592 15.3059 134.592 13.954C134.592 12.6021 134.206 11.5408 133.436 10.7701C132.665 9.98673 131.547 9.59506 130.081 9.59506H128.167V18.3129H130.081ZM143.511 21.0419C142.551 21.0419 141.685 20.8208 140.915 20.3786C140.144 19.9364 139.538 19.33 139.095 18.5593C138.666 17.7759 138.451 16.8978 138.451 15.925C138.451 15.0026 138.666 14.1498 139.095 13.3665C139.525 12.5705 140.119 11.9388 140.877 11.4713C141.635 11.0038 142.481 10.7701 143.416 10.7701C144.414 10.7701 145.274 10.9849 145.994 11.4144C146.714 11.844 147.257 12.4315 147.624 13.1769C148.003 13.9224 148.192 14.7499 148.192 15.6596C148.192 15.9502 148.173 16.2282 148.135 16.4935H140.877C141.003 17.2642 141.306 17.8517 141.787 18.256C142.279 18.6477 142.867 18.8435 143.549 18.8435C144.118 18.8435 144.604 18.7235 145.008 18.4834C145.425 18.2308 145.754 17.8959 145.994 17.479L148.003 18.4645C147.017 20.1828 145.52 21.0419 143.511 21.0419ZM145.804 14.731C145.779 14.4278 145.665 14.1309 145.463 13.8403C145.274 13.537 145.002 13.2907 144.648 13.1011C144.307 12.899 143.903 12.7979 143.435 12.7979C142.841 12.7979 142.33 12.9748 141.9 13.3286C141.483 13.6697 141.18 14.1372 140.991 14.731H145.804ZM148.839 11.0733H151.663L154.108 17.3653H154.26L156.742 11.0733H159.528L155.397 20.7387H152.933L148.839 11.0733ZM165.128 21.0419C164.168 21.0419 163.302 20.8208 162.532 20.3786C161.761 19.9364 161.154 19.33 160.712 18.5593C160.283 17.7759 160.068 16.8978 160.068 15.925C160.068 15.0026 160.283 14.1498 160.712 13.3665C161.142 12.5705 161.736 11.9388 162.494 11.4713C163.252 11.0038 164.098 10.7701 165.033 10.7701C166.031 10.7701 166.891 10.9849 167.611 11.4144C168.331 11.844 168.874 12.4315 169.241 13.1769C169.62 13.9224 169.809 14.7499 169.809 15.6596C169.809 15.9502 169.79 16.2282 169.752 16.4935H162.494C162.62 17.2642 162.923 17.8517 163.403 18.256C163.896 18.6477 164.484 18.8435 165.166 18.8435C165.734 18.8435 166.221 18.7235 166.625 18.4834C167.042 18.2308 167.371 17.8959 167.611 17.479L169.62 18.4645C168.634 20.1828 167.137 21.0419 165.128 21.0419ZM167.421 14.731C167.396 14.4278 167.282 14.1309 167.08 13.8403C166.891 13.537 166.619 13.2907 166.265 13.1011C165.924 12.899 165.52 12.7979 165.052 12.7979C164.458 12.7979 163.947 12.9748 163.517 13.3286C163.1 13.6697 162.797 14.1372 162.607 14.731H167.421ZM171.722 7.16923H174.204V20.7387H171.722V7.16923ZM181.176 21.0419C180.178 21.0419 179.287 20.8208 178.504 20.3786C177.721 19.9238 177.108 19.311 176.666 18.5403C176.236 17.757 176.021 16.8789 176.021 15.906C176.021 14.9458 176.236 14.074 176.666 13.2907C177.108 12.5073 177.721 11.8945 178.504 11.4523C179.287 10.9975 180.178 10.7701 181.176 10.7701C182.162 10.7701 183.046 10.9975 183.83 11.4523C184.613 11.8945 185.219 12.5073 185.649 13.2907C186.091 14.074 186.312 14.9458 186.312 15.906C186.312 16.8789 186.091 17.757 185.649 18.5403C185.219 19.311 184.613 19.9238 183.83 20.3786C183.046 20.8208 182.162 21.0419 181.176 21.0419ZM181.176 18.7488C181.656 18.7488 182.099 18.6351 182.503 18.4076C182.907 18.1802 183.229 17.8517 183.469 17.4221C183.71 16.9926 183.83 16.4872 183.83 15.906C183.83 15.3374 183.71 14.8384 183.469 14.4088C183.229 13.9792 182.907 13.6507 182.503 13.4233C182.099 13.1959 181.656 13.0822 181.176 13.0822C180.696 13.0822 180.254 13.1959 179.85 13.4233C179.445 13.6507 179.117 13.9792 178.864 14.4088C178.624 14.8384 178.504 15.3374 178.504 15.906C178.504 16.4746 178.624 16.9799 178.864 17.4221C179.117 17.8517 179.445 18.1802 179.85 18.4076C180.254 18.6351 180.696 18.7488 181.176 18.7488ZM188.044 11.0733H190.375V12.2483H190.526C190.792 11.8314 191.177 11.4839 191.682 11.206C192.188 10.9154 192.769 10.7701 193.426 10.7701C194.298 10.7701 195.087 10.9912 195.795 11.4334C196.515 11.863 197.077 12.4694 197.482 13.2528C197.886 14.0361 198.088 14.9205 198.088 15.906C198.088 16.9041 197.886 17.7949 197.482 18.5782C197.077 19.3489 196.515 19.9554 195.795 20.3976C195.087 20.8272 194.298 21.0419 193.426 21.0419C192.769 21.0419 192.181 20.903 191.663 20.625C191.158 20.347 190.779 19.9996 190.526 19.5826H190.375L190.526 20.9472V24.8323H188.044V11.0733ZM192.99 18.7488C193.457 18.7488 193.893 18.6287 194.298 18.3887C194.702 18.1486 195.024 17.8138 195.264 17.3842C195.504 16.9547 195.624 16.4619 195.624 15.906C195.624 15.3501 195.504 14.8573 195.264 14.4278C195.024 13.9982 194.702 13.6697 194.298 13.4423C193.893 13.2022 193.457 13.0822 192.99 13.0822C192.535 13.0822 192.106 13.2022 191.701 13.4423C191.297 13.6697 190.975 13.9982 190.735 14.4278C190.495 14.8573 190.375 15.3501 190.375 15.906C190.375 16.4619 190.495 16.9547 190.735 17.3842C190.975 17.8138 191.297 18.1486 191.701 18.3887C192.106 18.6287 192.535 18.7488 192.99 18.7488ZM204.531 21.0419C203.57 21.0419 202.705 20.8208 201.934 20.3786C201.164 19.9364 200.557 19.33 200.115 18.5593C199.685 17.7759 199.471 16.8978 199.471 15.925C199.471 15.0026 199.685 14.1498 200.115 13.3665C200.545 12.5705 201.138 11.9388 201.896 11.4713C202.654 11.0038 203.501 10.7701 204.436 10.7701C205.434 10.7701 206.293 10.9849 207.013 11.4144C207.734 11.844 208.277 12.4315 208.643 13.1769C209.022 13.9224 209.212 14.7499 209.212 15.6596C209.212 15.9502 209.193 16.2282 209.155 16.4935H201.896C202.023 17.2642 202.326 17.8517 202.806 18.256C203.299 18.6477 203.886 18.8435 204.569 18.8435C205.137 18.8435 205.624 18.7235 206.028 18.4834C206.445 18.2308 206.773 17.8959 207.013 17.479L209.022 18.4645C208.037 20.1828 206.54 21.0419 204.531 21.0419ZM206.824 14.731C206.799 14.4278 206.685 14.1309 206.483 13.8403C206.293 13.537 206.022 13.2907 205.668 13.1011C205.327 12.899 204.922 12.7979 204.455 12.7979C203.861 12.7979 203.349 12.9748 202.92 13.3286C202.503 13.6697 202.2 14.1372 202.01 14.731H206.824ZM211.124 11.0733H213.455V12.362H213.607C213.847 11.9072 214.22 11.5345 214.725 11.2439C215.231 10.9406 215.786 10.789 216.393 10.789C216.835 10.789 217.239 10.8585 217.606 10.9975V13.4802C217.265 13.3538 216.974 13.2654 216.734 13.2148C216.507 13.1517 216.26 13.1201 215.995 13.1201C215.262 13.1201 214.681 13.3854 214.251 13.9161C213.822 14.4467 213.607 15.1163 213.607 15.925V20.7387H211.124V11.0733ZM227.515 21.0419C226.327 21.0419 225.279 20.7071 224.369 20.0375C223.459 19.3679 222.821 18.4203 222.455 17.1947L224.862 16.2471C225.051 16.9673 225.373 17.5422 225.828 17.9717C226.283 18.4013 226.852 18.6161 227.534 18.6161C228.102 18.6161 228.589 18.4771 228.993 18.1992C229.397 17.9086 229.6 17.5106 229.6 17.0052C229.6 16.4998 229.404 16.0892 229.012 15.7733C228.633 15.4448 227.951 15.0974 226.965 14.731L226.131 14.4278C225.26 14.1245 224.514 13.6634 223.895 13.0443C223.276 12.4126 222.966 11.6229 222.966 10.6753C222.966 9.96777 223.15 9.32341 223.516 8.74223C223.883 8.16104 224.401 7.70619 225.07 7.3777C225.74 7.03656 226.498 6.866 227.344 6.866C228.57 6.866 229.536 7.15659 230.244 7.73778C230.952 8.30633 231.438 8.97596 231.703 9.74667L229.448 10.6943C229.309 10.2773 229.063 9.92987 228.709 9.65191C228.368 9.36132 227.926 9.21602 227.382 9.21602C226.826 9.21602 226.365 9.34868 225.999 9.61401C225.645 9.8667 225.468 10.2015 225.468 10.6185C225.468 11.0228 225.639 11.3702 225.98 11.6608C226.321 11.9388 226.883 12.2104 227.667 12.4757L228.519 12.76C229.694 13.1643 230.591 13.7013 231.211 14.3709C231.842 15.0279 232.158 15.8934 232.158 16.9673C232.158 17.8517 231.931 18.6035 231.476 19.2226C231.021 19.829 230.434 20.2839 229.713 20.5871C229.006 20.8903 228.273 21.0419 227.515 21.0419ZM237.966 20.8903C237.486 20.8903 237.044 20.8208 236.64 20.6819C236.235 20.5302 235.907 20.3281 235.654 20.0754C235.06 19.5068 234.764 18.6982 234.764 17.6496V13.1959H233.077V11.0733H234.764V8.34424H237.246V11.0733H239.615V13.1959H237.246V17.1947C237.246 17.6875 237.354 18.0412 237.568 18.256C237.745 18.4582 238.049 18.5593 238.478 18.5593C238.718 18.5593 238.914 18.5277 239.066 18.4645C239.23 18.4013 239.438 18.2939 239.691 18.1423V20.5681C239.148 20.7829 238.573 20.8903 237.966 20.8903ZM245.167 21.0419C244.005 21.0419 243.121 20.6819 242.514 19.9617C241.908 19.2415 241.605 18.2371 241.605 16.9484V11.0733H244.087V16.6451C244.087 17.3021 244.245 17.8201 244.561 18.1992C244.877 18.5656 245.294 18.7488 245.812 18.7488C246.519 18.7488 247.082 18.4898 247.499 17.9717C247.915 17.4537 248.124 16.7967 248.124 16.0008V11.0733H250.607V20.7387H248.276V19.5258H248.124C247.833 19.9933 247.423 20.366 246.892 20.6439C246.374 20.9093 245.799 21.0419 245.167 21.0419ZM257.083 21.0419C256.212 21.0419 255.416 20.8272 254.695 20.3976C253.988 19.9554 253.426 19.3489 253.009 18.5782C252.604 17.7949 252.402 16.9041 252.402 15.906C252.402 14.9205 252.604 14.0361 253.009 13.2528C253.426 12.4694 253.988 11.863 254.695 11.4334C255.416 10.9912 256.212 10.7701 257.083 10.7701C257.74 10.7701 258.322 10.9154 258.827 11.206C259.332 11.4839 259.718 11.8314 259.983 12.2483H260.135L259.983 10.8838V7.16923H262.447V20.7387H260.135V19.5826H259.983C259.73 19.9996 259.345 20.347 258.827 20.625C258.322 20.903 257.74 21.0419 257.083 21.0419ZM257.5 18.7488C257.968 18.7488 258.404 18.6287 258.808 18.3887C259.212 18.1486 259.535 17.8138 259.775 17.3842C260.015 16.9547 260.135 16.4619 260.135 15.906C260.135 15.3501 260.015 14.8573 259.775 14.4278C259.535 13.9982 259.212 13.6697 258.808 13.4423C258.404 13.2022 257.968 13.0822 257.5 13.0822C257.046 13.0822 256.616 13.2022 256.212 13.4423C255.807 13.6697 255.485 13.9982 255.245 14.4278C255.005 14.8573 254.885 15.3501 254.885 15.906C254.885 16.4619 255.005 16.9547 255.245 17.3842C255.485 17.8138 255.807 18.1486 256.212 18.3887C256.616 18.6287 257.046 18.7488 257.5 18.7488ZM269.326 21.0419C268.366 21.0419 267.5 20.8208 266.729 20.3786C265.959 19.9364 265.352 19.33 264.91 18.5593C264.481 17.7759 264.266 16.8978 264.266 15.925C264.266 15.0026 264.481 14.1498 264.91 13.3665C265.34 12.5705 265.933 11.9388 266.692 11.4713C267.45 11.0038 268.296 10.7701 269.231 10.7701C270.229 10.7701 271.088 10.9849 271.809 11.4144C272.529 11.844 273.072 12.4315 273.438 13.1769C273.817 13.9224 274.007 14.7499 274.007 15.6596C274.007 15.9502 273.988 16.2282 273.95 16.4935H266.692C266.818 17.2642 267.121 17.8517 267.601 18.256C268.094 18.6477 268.681 18.8435 269.364 18.8435C269.932 18.8435 270.419 18.7235 270.823 18.4834C271.24 18.2308 271.568 17.8959 271.809 17.479L273.817 18.4645C272.832 20.1828 271.335 21.0419 269.326 21.0419ZM271.619 14.731C271.594 14.4278 271.48 14.1309 271.278 13.8403C271.088 13.537 270.817 13.2907 270.463 13.1011C270.122 12.899 269.718 12.7979 269.25 12.7979C268.656 12.7979 268.145 12.9748 267.715 13.3286C267.298 13.6697 266.995 14.1372 266.805 14.731H271.619ZM275.919 11.0733H278.25V12.2862H278.402C278.693 11.8187 279.103 11.4523 279.634 11.187C280.165 10.909 280.739 10.7701 281.359 10.7701C282.521 10.7701 283.405 11.1238 284.012 11.8314C284.618 12.5389 284.922 13.5054 284.922 14.731V20.7387H282.439V15.0342C282.439 14.4151 282.281 13.935 281.965 13.5939C281.649 13.2528 281.207 13.0822 280.638 13.0822C279.969 13.0822 279.426 13.3412 279.009 13.8592C278.604 14.3772 278.402 15.0279 278.402 15.8112V20.7387H275.919V11.0733ZM290.991 20.8903C290.511 20.8903 290.068 20.8208 289.664 20.6819C289.26 20.5302 288.931 20.3281 288.679 20.0754C288.085 19.5068 287.788 18.6982 287.788 17.6496V13.1959H286.101V11.0733H287.788V8.34424H290.271V11.0733H292.639V13.1959H290.271V17.1947C290.271 17.6875 290.378 18.0412 290.593 18.256C290.77 18.4582 291.073 18.5593 291.502 18.5593C291.742 18.5593 291.938 18.5277 292.09 18.4645C292.254 18.4013 292.463 18.2939 292.715 18.1423V20.5681C292.172 20.7829 291.597 20.8903 290.991 20.8903ZM305.542 21.0419C304.228 21.0419 303.028 20.7324 301.941 20.1133C300.855 19.4816 299.996 18.6287 299.364 17.5548C298.745 16.4682 298.435 15.268 298.435 13.954C298.435 12.64 298.745 11.446 299.364 10.3721C299.996 9.28551 300.855 8.43268 301.941 7.81359C303.028 7.18186 304.228 6.866 305.542 6.866C307.589 6.866 309.282 7.60512 310.621 9.08336L308.821 10.8269C307.949 9.80353 306.862 9.29183 305.561 9.29183C304.715 9.29183 303.944 9.48766 303.249 9.87933C302.554 10.2584 302.004 10.8017 301.6 11.5092C301.208 12.2167 301.013 13.0316 301.013 13.954C301.013 14.8763 301.208 15.6912 301.6 16.3987C302.004 17.1063 302.554 17.6559 303.249 18.0476C303.944 18.4266 304.715 18.6161 305.561 18.6161C306.989 18.6161 308.183 18.0223 309.143 16.8346L310.962 18.5593C310.293 19.3679 309.497 19.987 308.574 20.4165C307.665 20.8335 306.654 21.0419 305.542 21.0419ZM312.805 7.16923H315.288V20.7387H312.805V7.16923ZM321.215 21.0419C320.053 21.0419 319.168 20.6819 318.562 19.9617C317.956 19.2415 317.652 18.2371 317.652 16.9484V11.0733H320.135V16.6451C320.135 17.3021 320.293 17.8201 320.609 18.1992C320.925 18.5656 321.342 18.7488 321.86 18.7488C322.567 18.7488 323.129 18.4898 323.546 17.9717C323.963 17.4537 324.172 16.7967 324.172 16.0008V11.0733H326.654V20.7387H324.323V19.5258H324.172C323.881 19.9933 323.471 20.366 322.94 20.6439C322.422 20.9093 321.847 21.0419 321.215 21.0419ZM334.456 21.0419C333.799 21.0419 333.211 20.903 332.693 20.625C332.188 20.347 331.809 19.9996 331.556 19.5826H331.404V20.7387H329.073V7.16923H331.556V10.8838L331.404 12.2483H331.556C331.821 11.8314 332.207 11.4839 332.712 11.206C333.217 10.9154 333.799 10.7701 334.456 10.7701C335.327 10.7701 336.117 10.9912 336.825 11.4334C337.545 11.863 338.107 12.4694 338.511 13.2528C338.916 14.0361 339.118 14.9205 339.118 15.906C339.118 16.9041 338.916 17.7949 338.511 18.5782C338.107 19.3489 337.545 19.9554 336.825 20.3976C336.117 20.8272 335.327 21.0419 334.456 21.0419ZM334.02 18.7488C334.487 18.7488 334.923 18.6287 335.327 18.3887C335.732 18.1486 336.054 17.8138 336.294 17.3842C336.534 16.9547 336.654 16.4619 336.654 15.906C336.654 15.3501 336.534 14.8573 336.294 14.4278C336.054 13.9982 335.732 13.6697 335.327 13.4423C334.923 13.2022 334.487 13.0822 334.02 13.0822C333.565 13.0822 333.135 13.2022 332.731 13.4423C332.327 13.6697 332.004 13.9982 331.764 14.4278C331.524 14.8573 331.404 15.3501 331.404 15.906C331.404 16.4619 331.524 16.9547 331.764 17.3842C332.004 17.8138 332.327 18.1486 332.731 18.3887C333.135 18.6287 333.565 18.7488 334.02 18.7488ZM344.613 21.0419C343.438 21.0419 342.484 20.8019 341.752 20.3218C341.031 19.8417 340.526 19.2162 340.235 18.4455L342.453 17.479C342.655 17.9338 342.939 18.2813 343.306 18.5213C343.685 18.7488 344.121 18.8625 344.613 18.8625C345.068 18.8625 345.447 18.793 345.75 18.654C346.054 18.5024 346.205 18.2623 346.205 17.9338C346.205 17.618 346.066 17.3842 345.788 17.2326C345.51 17.0684 345.093 16.9231 344.537 16.7967L343.4 16.5504C342.617 16.3608 341.966 16.0197 341.448 15.527C340.93 15.0216 340.671 14.3962 340.671 13.6507C340.671 13.0948 340.836 12.5958 341.164 12.1535C341.505 11.7113 341.96 11.3702 342.529 11.1302C343.11 10.8901 343.748 10.7701 344.443 10.7701C346.439 10.7701 347.772 11.4713 348.442 12.8737L346.319 13.8024C345.94 13.1201 345.333 12.779 344.5 12.779C344.07 12.779 343.729 12.8611 343.476 13.0253C343.223 13.1769 343.097 13.3728 343.097 13.6128C343.097 14.0677 343.527 14.4088 344.386 14.6362L345.807 14.9774C346.767 15.2174 347.488 15.5838 347.968 16.0766C348.461 16.5693 348.707 17.1758 348.707 17.8959C348.707 18.515 348.524 19.0646 348.157 19.5447C347.804 20.0122 347.311 20.3786 346.679 20.6439C346.06 20.9093 345.371 21.0419 344.613 21.0419Z" fill="#434343"/>
<path d="M56.2717 42.8831C55.5842 42.8831 54.9836 42.696 54.4701 42.3217C53.9565 41.9387 53.5953 41.4034 53.3864 40.7158L54.4309 40.285C54.7442 41.3121 55.3579 41.8256 56.2717 41.8256C56.7853 41.8256 57.1944 41.6471 57.499 41.2903C57.8123 40.9334 57.969 40.4634 57.969 39.8803V33.3263H59.0787V39.7889C59.0787 40.4417 58.9569 41.0031 58.7132 41.4731C58.4782 41.9344 58.1474 42.2869 57.7209 42.5306C57.3031 42.7656 56.8201 42.8831 56.2717 42.8831ZM63.6257 42.8831C62.8945 42.8831 62.2244 42.6611 61.6151 42.2172C61.0058 41.7734 60.588 41.151 60.3617 40.3503L61.4193 39.9194C61.5672 40.4765 61.8414 40.9334 62.2418 41.2903C62.6421 41.6471 63.1121 41.8256 63.6518 41.8256C64.1914 41.8256 64.6484 41.682 65.0226 41.3947C65.3969 41.0988 65.584 40.6984 65.584 40.1936C65.584 39.7584 65.423 39.4016 65.101 39.123C64.7876 38.8358 64.2697 38.5704 63.5473 38.3267L62.9598 38.1178C62.2983 37.8828 61.7587 37.5738 61.3409 37.1908C60.9231 36.8078 60.7142 36.2769 60.7142 35.598C60.7142 35.1541 60.8361 34.745 61.0798 34.3708C61.3235 33.9878 61.663 33.6832 62.0982 33.4569C62.5333 33.2306 63.0208 33.1174 63.5604 33.1174C64.1 33.1174 64.57 33.2175 64.9704 33.4177C65.3708 33.6179 65.6885 33.8616 65.9235 34.1488C66.1672 34.4361 66.3369 34.7189 66.4326 34.9975L65.3882 35.4413C65.3011 35.1193 65.101 34.8277 64.7876 34.5666C64.483 34.3055 64.0783 34.1749 63.5734 34.1749C63.0947 34.1749 62.6857 34.3099 62.3462 34.5797C62.0068 34.8495 61.837 35.1889 61.837 35.598C61.837 35.9636 61.9807 36.2639 62.2679 36.4989C62.5551 36.7252 62.9903 36.9384 63.5734 37.1386L64.1871 37.3475C64.9791 37.6347 65.5971 37.9959 66.041 38.4311C66.4849 38.8576 66.7068 39.4407 66.7068 40.1806C66.7068 40.7811 66.5501 41.2859 66.2368 41.695C65.9322 42.1041 65.5449 42.4044 65.0748 42.5959C64.6048 42.7873 64.1218 42.8831 63.6257 42.8831ZM70.944 42.8831C70.2129 42.8831 69.5427 42.6611 68.9334 42.2172C68.3241 41.7734 67.9064 41.151 67.6801 40.3503L68.7376 39.9194C68.8855 40.4765 69.1597 40.9334 69.5601 41.2903C69.9605 41.6471 70.4305 41.8256 70.9701 41.8256C71.5097 41.8256 71.9667 41.682 72.3409 41.3947C72.7152 41.0988 72.9023 40.6984 72.9023 40.1936C72.9023 39.7584 72.7413 39.4016 72.4193 39.123C72.1059 38.8358 71.5881 38.5704 70.8657 38.3267L70.2781 38.1178C69.6167 37.8828 69.077 37.5738 68.6592 37.1908C68.2415 36.8078 68.0326 36.2769 68.0326 35.598C68.0326 35.1541 68.1544 34.745 68.3981 34.3708C68.6418 33.9878 68.9813 33.6832 69.4165 33.4569C69.8517 33.2306 70.3391 33.1174 70.8787 33.1174C71.4183 33.1174 71.8883 33.2175 72.2887 33.4177C72.6891 33.6179 73.0068 33.8616 73.2418 34.1488C73.4855 34.4361 73.6552 34.7189 73.751 34.9975L72.7065 35.4413C72.6195 35.1193 72.4193 34.8277 72.1059 34.5666C71.8013 34.3055 71.3966 34.1749 70.8918 34.1749C70.4131 34.1749 70.004 34.3099 69.6645 34.5797C69.3251 34.8495 69.1554 35.1889 69.1554 35.598C69.1554 35.9636 69.299 36.2639 69.5862 36.4989C69.8734 36.7252 70.3086 36.9384 70.8918 37.1386L71.5054 37.3475C72.2974 37.6347 72.9154 37.9959 73.3593 38.4311C73.8032 38.8576 74.0251 39.4407 74.0251 40.1806C74.0251 40.7811 73.8685 41.2859 73.5551 41.695C73.2505 42.1041 72.8632 42.4044 72.3932 42.5959C71.9232 42.7873 71.4401 42.8831 70.944 42.8831ZM80.9798 33.3263H82.2332L85.7843 42.6742H84.5701L83.6301 40.1022H79.5959L78.6559 42.6742H77.4417L80.9798 33.3263ZM83.2515 39.0578L82.0112 35.6894L81.6326 34.6841H81.5804L81.2148 35.6894L79.9745 39.0578H83.2515ZM89.6266 42.8831C88.9825 42.8831 88.4037 42.7308 87.8902 42.4261C87.3766 42.1128 86.9763 41.6907 86.689 41.1597C86.4018 40.6201 86.2582 40.0152 86.2582 39.345C86.2582 38.6748 86.4018 38.0699 86.689 37.5303C86.9763 36.9906 87.3766 36.5685 87.8902 36.2639C88.4037 35.9592 88.9825 35.8069 89.6266 35.8069C90.349 35.8069 90.9539 35.9766 91.4413 36.3161C91.9374 36.6468 92.2899 37.0907 92.4988 37.6478L91.4935 38.0655C91.3281 37.6565 91.0801 37.3475 90.7493 37.1386C90.4273 36.921 90.0356 36.8122 89.5743 36.8122C89.1827 36.8122 88.8171 36.921 88.4777 37.1386C88.1382 37.3475 87.864 37.6434 87.6552 38.0264C87.455 38.4093 87.3549 38.8489 87.3549 39.345C87.3549 39.8411 87.455 40.2807 87.6552 40.6636C87.864 41.0466 88.1382 41.3469 88.4777 41.5645C88.8171 41.7734 89.1827 41.8778 89.5743 41.8778C90.0443 41.8778 90.4491 41.769 90.7885 41.5514C91.128 41.3338 91.3804 41.0248 91.5457 40.6245L92.538 41.0422C92.3117 41.5906 91.9461 42.0345 91.4413 42.3739C90.9452 42.7134 90.3403 42.8831 89.6266 42.8831ZM95.8021 42.8831C95.3147 42.8831 94.8795 42.7873 94.4965 42.5959C94.1136 42.4044 93.8176 42.1433 93.6087 41.8125C93.3999 41.4731 93.2954 41.0901 93.2954 40.6636C93.2954 39.9586 93.5609 39.4103 94.0918 39.0186C94.6227 38.6182 95.2929 38.418 96.1024 38.418C96.5028 38.418 96.8727 38.4616 97.2121 38.5486C97.5603 38.6356 97.8257 38.7357 98.0085 38.8489V38.4442C98.0085 37.948 97.8344 37.552 97.4863 37.2561C97.1381 36.9515 96.6986 36.7991 96.1677 36.7991C95.7934 36.7991 95.4496 36.8818 95.1363 37.0472C94.8229 37.2039 94.5749 37.4258 94.3921 37.713L93.5565 37.0864C93.8176 36.686 94.1745 36.3727 94.6271 36.1464C95.0884 35.9201 95.5976 35.8069 96.1546 35.8069C97.0598 35.8069 97.7692 36.0463 98.2827 36.525C98.8049 36.995 99.066 37.6391 99.066 38.4572V42.6742H98.0085V41.7211H97.9563C97.7648 42.0432 97.4776 42.3173 97.0946 42.5436C96.7116 42.7699 96.2808 42.8831 95.8021 42.8831ZM95.9065 41.9039C96.2808 41.9039 96.629 41.8082 96.951 41.6167C97.273 41.4252 97.5298 41.1684 97.7213 40.8464C97.9128 40.5244 98.0085 40.1719 98.0085 39.7889C97.7996 39.6496 97.5429 39.5365 97.2382 39.4494C96.9336 39.3624 96.6115 39.3189 96.2721 39.3189C95.6628 39.3189 95.2015 39.4451 94.8882 39.6975C94.5836 39.9499 94.4312 40.2763 94.4312 40.6767C94.4312 41.0422 94.5705 41.3382 94.849 41.5645C95.1276 41.7908 95.4801 41.9039 95.9065 41.9039ZM103.366 42.8831C102.774 42.8831 102.235 42.7308 101.747 42.4261C101.269 42.1215 100.89 41.7037 100.611 41.1728C100.333 40.6332 100.194 40.0239 100.194 39.345C100.194 38.6748 100.333 38.0699 100.611 37.5303C100.89 36.9906 101.269 36.5685 101.747 36.2639C102.235 35.9592 102.774 35.8069 103.366 35.8069C103.88 35.8069 104.337 35.9244 104.737 36.1594C105.137 36.3857 105.442 36.6686 105.651 37.008H105.703L105.651 36.0811V33.3263H106.761V42.6742H105.703V41.695H105.651C105.442 42.0258 105.137 42.3086 104.737 42.5436C104.337 42.7699 103.88 42.8831 103.366 42.8831ZM103.497 41.8778C103.888 41.8778 104.25 41.7734 104.58 41.5645C104.92 41.3556 105.19 41.0596 105.39 40.6767C105.599 40.2937 105.703 39.8498 105.703 39.345C105.703 38.8402 105.599 38.3963 105.39 38.0133C105.19 37.6304 104.92 37.3344 104.58 37.1255C104.25 36.9166 103.888 36.8122 103.497 36.8122C103.114 36.8122 102.753 36.9166 102.413 37.1255C102.074 37.3344 101.799 37.6347 101.591 38.0264C101.39 38.4093 101.29 38.8489 101.29 39.345C101.29 39.8411 101.39 40.285 101.591 40.6767C101.799 41.0596 102.074 41.3556 102.413 41.5645C102.753 41.7734 103.114 41.8778 103.497 41.8778ZM111.3 42.8831C110.664 42.8831 110.094 42.7308 109.59 42.4261C109.085 42.1215 108.689 41.7037 108.401 41.1728C108.123 40.6332 107.984 40.0282 107.984 39.3581C107.984 38.714 108.114 38.1221 108.375 37.5825C108.645 37.0428 109.024 36.612 109.511 36.29C109.999 35.9679 110.564 35.8069 111.208 35.8069C111.861 35.8069 112.427 35.9549 112.906 36.2508C113.384 36.538 113.75 36.9384 114.002 37.4519C114.263 37.9654 114.394 38.553 114.394 39.2144C114.394 39.345 114.381 39.4581 114.355 39.5539H109.093C109.12 40.0587 109.241 40.4852 109.459 40.8333C109.677 41.1815 109.951 41.4426 110.281 41.6167C110.621 41.7908 110.973 41.8778 111.339 41.8778C112.192 41.8778 112.849 41.4774 113.31 40.6767L114.25 41.1336C113.963 41.6733 113.571 42.0997 113.075 42.4131C112.588 42.7264 111.996 42.8831 111.3 42.8831ZM113.219 38.64C113.202 38.3615 113.123 38.0829 112.984 37.8044C112.845 37.5259 112.623 37.2909 112.318 37.0994C112.022 36.9079 111.648 36.8122 111.195 36.8122C110.673 36.8122 110.229 36.9819 109.864 37.3214C109.507 37.6521 109.272 38.0917 109.159 38.64H113.219ZM115.693 36.0158H116.75V36.995H116.802C116.994 36.6555 117.281 36.3727 117.664 36.1464C118.047 35.9201 118.452 35.8069 118.878 35.8069C119.366 35.8069 119.788 35.9244 120.145 36.1594C120.51 36.3944 120.771 36.7077 120.928 37.0994C121.163 36.7077 121.472 36.3944 121.855 36.1594C122.247 35.9244 122.699 35.8069 123.213 35.8069C123.979 35.8069 124.553 36.0419 124.936 36.5119C125.328 36.9732 125.524 37.6042 125.524 38.405V42.6742H124.427V38.5747C124.427 37.9567 124.301 37.5085 124.048 37.23C123.796 36.9515 123.422 36.8122 122.926 36.8122C122.595 36.8122 122.295 36.9079 122.025 37.0994C121.755 37.2909 121.542 37.5477 121.385 37.8697C121.237 38.1917 121.163 38.5399 121.163 38.9142V42.6742H120.053V38.5878C120.053 37.9611 119.927 37.5085 119.675 37.23C119.422 36.9515 119.052 36.8122 118.565 36.8122C118.234 36.8122 117.934 36.9123 117.664 37.1125C117.394 37.304 117.181 37.5651 117.024 37.8958C116.876 38.2179 116.802 38.566 116.802 38.9403V42.6742H115.693V36.0158ZM128.975 42.2564L126.22 36.0158H127.421L129.51 40.9639H129.536L131.547 36.0158H132.748L128.635 45.4942H127.486L128.975 42.2564ZM139.772 42.8831C139.12 42.8831 138.532 42.7264 138.01 42.4131C137.488 42.0997 137.078 41.6733 136.783 41.1336C136.495 40.594 136.352 39.9978 136.352 39.345C136.352 38.6922 136.495 38.096 136.783 37.5564C137.078 37.0167 137.488 36.5902 138.01 36.2769C138.532 35.9636 139.12 35.8069 139.772 35.8069C140.425 35.8069 141.013 35.9636 141.535 36.2769C142.057 36.5902 142.462 37.0167 142.749 37.5564C143.045 38.096 143.193 38.6922 143.193 39.345C143.193 39.9978 143.045 40.594 142.749 41.1336C142.462 41.6733 142.057 42.0997 141.535 42.4131C141.013 42.7264 140.425 42.8831 139.772 42.8831ZM139.772 41.8778C140.181 41.8778 140.56 41.7777 140.908 41.5775C141.265 41.3686 141.548 41.0727 141.757 40.6897C141.974 40.3068 142.083 39.8585 142.083 39.345C142.083 38.8315 141.974 38.3832 141.757 38.0003C141.548 37.6173 141.265 37.3257 140.908 37.1255C140.56 36.9166 140.181 36.8122 139.772 36.8122C139.363 36.8122 138.98 36.9166 138.623 37.1255C138.267 37.3257 137.979 37.6173 137.762 38.0003C137.553 38.3832 137.448 38.8315 137.448 39.345C137.448 39.8585 137.553 40.3068 137.762 40.6897C137.979 41.0727 138.267 41.3686 138.623 41.5775C138.98 41.7777 139.363 41.8778 139.772 41.8778ZM145.061 37.0211H143.833V36.0158H145.061V35.2977C145.061 34.88 145.156 34.5144 145.348 34.2011C145.539 33.8877 145.796 33.6484 146.118 33.483C146.44 33.3089 146.797 33.2219 147.189 33.2219C147.563 33.2219 147.889 33.2741 148.168 33.3786V34.4622C148.011 34.4012 147.863 34.3534 147.724 34.3186C147.585 34.275 147.419 34.2533 147.228 34.2533C146.941 34.2533 146.693 34.3577 146.484 34.5666C146.275 34.7668 146.17 35.0497 146.17 35.4152V36.0158H147.881V37.0211H146.17V42.6742H145.061V37.0211ZM153.89 34.3838H151.266V33.3263H157.611V34.3838H155V42.6742H153.89V34.3838ZM160.705 42.8831C160.069 42.8831 159.499 42.7308 158.995 42.4261C158.49 42.1215 158.094 41.7037 157.806 41.1728C157.528 40.6332 157.389 40.0282 157.389 39.3581C157.389 38.714 157.519 38.1221 157.78 37.5825C158.05 37.0428 158.429 36.612 158.916 36.29C159.404 35.9679 159.969 35.8069 160.613 35.8069C161.266 35.8069 161.832 35.9549 162.311 36.2508C162.789 36.538 163.155 36.9384 163.407 37.4519C163.668 37.9654 163.799 38.553 163.799 39.2144C163.799 39.345 163.786 39.4581 163.76 39.5539H158.498C158.525 40.0587 158.646 40.4852 158.864 40.8333C159.082 41.1815 159.356 41.4426 159.686 41.6167C160.026 41.7908 160.378 41.8778 160.744 41.8778C161.597 41.8778 162.254 41.4774 162.715 40.6767L163.655 41.1336C163.368 41.6733 162.977 42.0997 162.48 42.4131C161.993 42.7264 161.401 42.8831 160.705 42.8831ZM162.624 38.64C162.607 38.3615 162.528 38.0829 162.389 37.8044C162.25 37.5259 162.028 37.2909 161.723 37.0994C161.427 36.9079 161.053 36.8122 160.6 36.8122C160.078 36.8122 159.634 36.9819 159.269 37.3214C158.912 37.6521 158.677 38.0917 158.564 38.64H162.624ZM168.177 42.8831C167.533 42.8831 166.954 42.7308 166.441 42.4261C165.927 42.1128 165.527 41.6907 165.24 41.1597C164.953 40.6201 164.809 40.0152 164.809 39.345C164.809 38.6748 164.953 38.0699 165.24 37.5303C165.527 36.9906 165.927 36.5685 166.441 36.2639C166.954 35.9592 167.533 35.8069 168.177 35.8069C168.9 35.8069 169.505 35.9766 169.992 36.3161C170.488 36.6468 170.841 37.0907 171.05 37.6478L170.044 38.0655C169.879 37.6565 169.631 37.3475 169.3 37.1386C168.978 36.921 168.586 36.8122 168.125 36.8122C167.733 36.8122 167.368 36.921 167.028 37.1386C166.689 37.3475 166.415 37.6434 166.206 38.0264C166.006 38.4093 165.906 38.8489 165.906 39.345C165.906 39.8411 166.006 40.2807 166.206 40.6636C166.415 41.0466 166.689 41.3469 167.028 41.5645C167.368 41.7734 167.733 41.8778 168.125 41.8778C168.595 41.8778 169 41.769 169.339 41.5514C169.679 41.3338 169.931 41.0248 170.097 40.6245L171.089 41.0422C170.862 41.5906 170.497 42.0345 169.992 42.3739C169.496 42.7134 168.891 42.8831 168.177 42.8831ZM172.289 33.3263H173.398V36.0811L173.346 36.995H173.398C173.581 36.6555 173.868 36.3727 174.26 36.1464C174.66 35.9201 175.096 35.8069 175.566 35.8069C176.375 35.8069 176.993 36.0463 177.419 36.525C177.846 36.995 178.059 37.6216 178.059 38.405V42.6742H176.949V38.5747C176.949 37.9742 176.797 37.5303 176.493 37.243C176.188 36.9558 175.792 36.8122 175.304 36.8122C174.956 36.8122 174.634 36.9166 174.338 37.1255C174.051 37.3344 173.82 37.6042 173.646 37.935C173.481 38.2657 173.398 38.6095 173.398 38.9664V42.6742H172.289V33.3263ZM179.658 36.0158H180.715V36.995H180.768C180.95 36.6642 181.242 36.3857 181.642 36.1594C182.043 35.9244 182.469 35.8069 182.922 35.8069C183.723 35.8069 184.332 36.0419 184.75 36.5119C185.176 36.9732 185.389 37.6042 185.389 38.405V42.6742H184.28V38.5747C184.28 37.9567 184.132 37.5085 183.836 37.23C183.54 36.9515 183.135 36.8122 182.622 36.8122C182.265 36.8122 181.943 36.9123 181.655 37.1125C181.377 37.3127 181.159 37.5781 181.003 37.9089C180.846 38.2309 180.768 38.5704 180.768 38.9272V42.6742H179.658V36.0158ZM187.629 34.7886C187.411 34.7886 187.224 34.7102 187.068 34.5536C186.911 34.3969 186.833 34.2098 186.833 33.9922C186.833 33.7746 186.911 33.5918 187.068 33.4438C187.224 33.2872 187.411 33.2088 187.629 33.2088C187.847 33.2088 188.034 33.2872 188.19 33.4438C188.347 33.5918 188.425 33.7746 188.425 33.9922C188.425 34.2098 188.347 34.3969 188.19 34.5536C188.042 34.7102 187.855 34.7886 187.629 34.7886ZM187.081 36.0158H188.177V42.6742H187.081V36.0158ZM192.874 42.8831C192.229 42.8831 191.651 42.7308 191.137 42.4261C190.624 42.1128 190.223 41.6907 189.936 41.1597C189.649 40.6201 189.505 40.0152 189.505 39.345C189.505 38.6748 189.649 38.0699 189.936 37.5303C190.223 36.9906 190.624 36.5685 191.137 36.2639C191.651 35.9592 192.229 35.8069 192.874 35.8069C193.596 35.8069 194.201 35.9766 194.688 36.3161C195.184 36.6468 195.537 37.0907 195.746 37.6478L194.74 38.0655C194.575 37.6565 194.327 37.3475 193.996 37.1386C193.674 36.921 193.283 36.8122 192.821 36.8122C192.43 36.8122 192.064 36.921 191.725 37.1386C191.385 37.3475 191.111 37.6434 190.902 38.0264C190.702 38.4093 190.602 38.8489 190.602 39.345C190.602 39.8411 190.702 40.2807 190.902 40.6636C191.111 41.0466 191.385 41.3469 191.725 41.5645C192.064 41.7734 192.43 41.8778 192.821 41.8778C193.291 41.8778 193.696 41.769 194.035 41.5514C194.375 41.3338 194.627 41.0248 194.793 40.6245L195.785 41.0422C195.559 41.5906 195.193 42.0345 194.688 42.3739C194.192 42.7134 193.587 42.8831 192.874 42.8831ZM199.049 42.8831C198.562 42.8831 198.126 42.7873 197.743 42.5959C197.361 42.4044 197.065 42.1433 196.856 41.8125C196.647 41.4731 196.542 41.0901 196.542 40.6636C196.542 39.9586 196.808 39.4103 197.339 39.0186C197.87 38.6182 198.54 38.418 199.349 38.418C199.75 38.418 200.12 38.4616 200.459 38.5486C200.807 38.6356 201.073 38.7357 201.255 38.8489V38.4442C201.255 37.948 201.081 37.552 200.733 37.2561C200.385 36.9515 199.946 36.7991 199.415 36.7991C199.04 36.7991 198.697 36.8818 198.383 37.0472C198.07 37.2039 197.822 37.4258 197.639 37.713L196.803 37.0864C197.065 36.686 197.421 36.3727 197.874 36.1464C198.335 35.9201 198.845 35.8069 199.402 35.8069C200.307 35.8069 201.016 36.0463 201.53 36.525C202.052 36.995 202.313 37.6391 202.313 38.4572V42.6742H201.255V41.7211H201.203C201.012 42.0432 200.725 42.3173 200.342 42.5436C199.959 42.7699 199.528 42.8831 199.049 42.8831ZM199.153 41.9039C199.528 41.9039 199.876 41.8082 200.198 41.6167C200.52 41.4252 200.777 41.1684 200.968 40.8464C201.16 40.5244 201.255 40.1719 201.255 39.7889C201.047 39.6496 200.79 39.5365 200.485 39.4494C200.181 39.3624 199.859 39.3189 199.519 39.3189C198.91 39.3189 198.448 39.4451 198.135 39.6975C197.831 39.9499 197.678 40.2763 197.678 40.6767C197.678 41.0422 197.817 41.3382 198.096 41.5645C198.375 41.7908 198.727 41.9039 199.153 41.9039ZM203.857 33.3263H204.967V42.6742H203.857V33.3263ZM209.867 33.3263H215.272V34.3838H210.964V37.478H214.854V38.5225H210.964V41.6167H215.272V42.6742H209.867V33.3263ZM219.401 42.8831C218.809 42.8831 218.27 42.7308 217.782 42.4261C217.303 42.1215 216.925 41.7037 216.646 41.1728C216.368 40.6332 216.228 40.0239 216.228 39.345C216.228 38.6748 216.368 38.0699 216.646 37.5303C216.925 36.9906 217.303 36.5685 217.782 36.2639C218.27 35.9592 218.809 35.8069 219.401 35.8069C219.915 35.8069 220.371 35.9244 220.772 36.1594C221.172 36.3857 221.477 36.6686 221.686 37.008H221.738L221.686 36.0811V33.3263H222.795V42.6742H221.738V41.695H221.686C221.477 42.0258 221.172 42.3086 220.772 42.5436C220.371 42.7699 219.915 42.8831 219.401 42.8831ZM219.532 41.8778C219.923 41.8778 220.284 41.7734 220.615 41.5645C220.955 41.3556 221.224 41.0596 221.425 40.6767C221.634 40.2937 221.738 39.8498 221.738 39.345C221.738 38.8402 221.634 38.3963 221.425 38.0133C221.224 37.6304 220.955 37.3344 220.615 37.1255C220.284 36.9166 219.923 36.8122 219.532 36.8122C219.149 36.8122 218.787 36.9166 218.448 37.1255C218.109 37.3344 217.834 37.6347 217.625 38.0264C217.425 38.4093 217.325 38.8489 217.325 39.345C217.325 39.8411 217.425 40.285 217.625 40.6767C217.834 41.0596 218.109 41.3556 218.448 41.5645C218.787 41.7734 219.149 41.8778 219.532 41.8778ZM226.85 42.8831C226.049 42.8831 225.436 42.6481 225.009 42.1781C224.591 41.7081 224.383 41.0509 224.383 40.2067V36.0158H225.492V40.0369C225.492 40.6723 225.636 41.138 225.923 41.4339C226.21 41.7298 226.598 41.8778 227.085 41.8778C227.459 41.8778 227.79 41.7777 228.077 41.5775C228.373 41.3773 228.6 41.1162 228.756 40.7942C228.922 40.4721 229.004 40.1327 229.004 39.7758V36.0158H230.114V42.6742H229.057V41.7081H229.004C228.822 42.0388 228.53 42.3173 228.13 42.5436C227.729 42.7699 227.303 42.8831 226.85 42.8831ZM234.705 42.8831C234.061 42.8831 233.482 42.7308 232.969 42.4261C232.455 42.1128 232.055 41.6907 231.768 41.1597C231.48 40.6201 231.337 40.0152 231.337 39.345C231.337 38.6748 231.48 38.0699 231.768 37.5303C232.055 36.9906 232.455 36.5685 232.969 36.2639C233.482 35.9592 234.061 35.8069 234.705 35.8069C235.428 35.8069 236.033 35.9766 236.52 36.3161C237.016 36.6468 237.369 37.0907 237.577 37.6478L236.572 38.0655C236.407 37.6565 236.159 37.3475 235.828 37.1386C235.506 36.921 235.114 36.8122 234.653 36.8122C234.261 36.8122 233.896 36.921 233.556 37.1386C233.217 37.3475 232.943 37.6434 232.734 38.0264C232.534 38.4093 232.434 38.8489 232.434 39.345C232.434 39.8411 232.534 40.2807 232.734 40.6636C232.943 41.0466 233.217 41.3469 233.556 41.5645C233.896 41.7734 234.261 41.8778 234.653 41.8778C235.123 41.8778 235.528 41.769 235.867 41.5514C236.207 41.3338 236.459 41.0248 236.624 40.6245L237.617 41.0422C237.39 41.5906 237.025 42.0345 236.52 42.3739C236.024 42.7134 235.419 42.8831 234.705 42.8831ZM240.881 42.8831C240.393 42.8831 239.958 42.7873 239.575 42.5959C239.192 42.4044 238.896 42.1433 238.687 41.8125C238.479 41.4731 238.374 41.0901 238.374 40.6636C238.374 39.9586 238.64 39.4103 239.17 39.0186C239.701 38.6182 240.372 38.418 241.181 38.418C241.581 38.418 241.951 38.4616 242.291 38.5486C242.639 38.6356 242.904 38.7357 243.087 38.8489V38.4442C243.087 37.948 242.913 37.552 242.565 37.2561C242.217 36.9515 241.777 36.7991 241.246 36.7991C240.872 36.7991 240.528 36.8818 240.215 37.0472C239.902 37.2039 239.654 37.4258 239.471 37.713L238.635 37.0864C238.896 36.686 239.253 36.3727 239.706 36.1464C240.167 35.9201 240.676 35.8069 241.233 35.8069C242.138 35.8069 242.848 36.0463 243.361 36.525C243.884 36.995 244.145 37.6391 244.145 38.4572V42.6742H243.087V41.7211H243.035C242.843 42.0432 242.556 42.3173 242.173 42.5436C241.79 42.7699 241.359 42.8831 240.881 42.8831ZM240.985 41.9039C241.359 41.9039 241.708 41.8082 242.03 41.6167C242.352 41.4252 242.608 41.1684 242.8 40.8464C242.991 40.5244 243.087 40.1719 243.087 39.7889C242.878 39.6496 242.622 39.5365 242.317 39.4494C242.012 39.3624 241.69 39.3189 241.351 39.3189C240.741 39.3189 240.28 39.4451 239.967 39.6975C239.662 39.9499 239.51 40.2763 239.51 40.6767C239.51 41.0422 239.649 41.3382 239.928 41.5645C240.206 41.7908 240.559 41.9039 240.985 41.9039ZM248.12 42.7786C247.85 42.7786 247.598 42.7351 247.363 42.6481C247.136 42.561 246.945 42.4435 246.788 42.2956C246.614 42.1302 246.484 41.9387 246.397 41.7211C246.31 41.5035 246.266 41.2381 246.266 40.9247V37.0211H245.104V36.0158H246.266V34.1358H247.376V36.0158H248.995V37.0211H247.376V40.6506C247.376 41.0161 247.445 41.2859 247.585 41.46C247.75 41.6515 247.989 41.7472 248.303 41.7472C248.555 41.7472 248.799 41.6733 249.034 41.5253V42.6089C248.903 42.6698 248.768 42.7134 248.629 42.7395C248.499 42.7656 248.329 42.7786 248.12 42.7786ZM251.059 34.7886C250.841 34.7886 250.654 34.7102 250.497 34.5536C250.341 34.3969 250.262 34.2098 250.262 33.9922C250.262 33.7746 250.341 33.5918 250.497 33.4438C250.654 33.2872 250.841 33.2088 251.059 33.2088C251.276 33.2088 251.463 33.2872 251.62 33.4438C251.777 33.5918 251.855 33.7746 251.855 33.9922C251.855 34.2098 251.777 34.3969 251.62 34.5536C251.472 34.7102 251.285 34.7886 251.059 34.7886ZM250.51 36.0158H251.607V42.6742H250.51V36.0158ZM256.355 42.8831C255.703 42.8831 255.115 42.7264 254.593 42.4131C254.071 42.0997 253.662 41.6733 253.366 41.1336C253.078 40.594 252.935 39.9978 252.935 39.345C252.935 38.6922 253.078 38.096 253.366 37.5564C253.662 37.0167 254.071 36.5902 254.593 36.2769C255.115 35.9636 255.703 35.8069 256.355 35.8069C257.008 35.8069 257.596 35.9636 258.118 36.2769C258.64 36.5902 259.045 37.0167 259.332 37.5564C259.628 38.096 259.776 38.6922 259.776 39.345C259.776 39.9978 259.628 40.594 259.332 41.1336C259.045 41.6733 258.64 42.0997 258.118 42.4131C257.596 42.7264 257.008 42.8831 256.355 42.8831ZM256.355 41.8778C256.764 41.8778 257.143 41.7777 257.491 41.5775C257.848 41.3686 258.131 41.0727 258.34 40.6897C258.557 40.3068 258.666 39.8585 258.666 39.345C258.666 38.8315 258.557 38.3832 258.34 38.0003C258.131 37.6173 257.848 37.3257 257.491 37.1255C257.143 36.9166 256.764 36.8122 256.355 36.8122C255.946 36.8122 255.563 36.9166 255.207 37.1255C254.85 37.3257 254.562 37.6173 254.345 38.0003C254.136 38.3832 254.031 38.8315 254.031 39.345C254.031 39.8585 254.136 40.3068 254.345 40.6897C254.562 41.0727 254.85 41.3686 255.207 41.5775C255.563 41.7777 255.946 41.8778 256.355 41.8778ZM260.937 36.0158H261.995V36.995H262.047C262.23 36.6642 262.521 36.3857 262.922 36.1594C263.322 35.9244 263.748 35.8069 264.201 35.8069C265.002 35.8069 265.611 36.0419 266.029 36.5119C266.455 36.9732 266.669 37.6042 266.669 38.405V42.6742H265.559V38.5747C265.559 37.9567 265.411 37.5085 265.115 37.23C264.819 36.9515 264.414 36.8122 263.901 36.8122C263.544 36.8122 263.222 36.9123 262.935 37.1125C262.656 37.3127 262.439 37.5781 262.282 37.9089C262.125 38.2309 262.047 38.5704 262.047 38.9272V42.6742H260.937V36.0158Z" fill="#585858"/>
</svg>
