<svg width="194" height="69" viewBox="0 0 194 69" fill="none" xmlns="http://www.w3.org/2000/svg">
<g filter="url(#filter0_d)">
<rect x="13" y="9" width="168" height="43" rx="21.5" fill="white"/>
<path d="M41.0708 29.9761C41.0708 31.8141 42.8298 33.5298 45.6028 34.4969C45.049 37.3413 45.5036 39.634 47.0217 40.5273C48.5821 41.4456 50.9068 40.81 53.1133 38.8419C55.2641 40.7305 57.4378 41.4737 58.9546 40.5778C60.5136 39.657 60.9877 37.2089 60.4187 34.2756C63.307 33.3013 64.9226 31.8383 64.9226 29.9761C64.9226 28.1808 63.1605 26.6277 60.4248 25.6668C61.0374 22.6123 60.5183 20.3753 58.9373 19.4451C57.4131 18.5483 55.2141 19.3299 53.0317 21.2678C50.7611 19.2109 48.5839 18.583 47.0046 19.5158C45.4817 20.4152 45.0472 22.7496 45.6028 25.6466C42.9233 26.5998 41.0708 28.1881 41.0708 29.9761Z" fill="white"/>
<path d="M59.8453 26.621C59.6198 26.542 59.3925 26.4689 59.1634 26.4017C59.2014 26.2442 59.2365 26.086 59.2688 25.9272C59.7849 23.3706 59.4474 21.311 58.2949 20.633C57.1899 19.9828 55.3827 20.6608 53.5575 22.2814C53.3776 22.4415 53.2017 22.6061 53.03 22.7753C52.9151 22.6628 52.798 22.5525 52.6791 22.4445C50.7662 20.7115 48.8488 19.9813 47.6975 20.6613C46.5935 21.3133 46.2665 23.2496 46.7312 25.6725C46.7775 25.9124 46.8297 26.1511 46.8878 26.3883C46.6165 26.467 46.3545 26.5507 46.1038 26.6399C43.8612 27.4376 42.429 28.688 42.429 29.9849C42.429 31.3244 43.9664 32.6679 46.3024 33.4825C46.4918 33.5482 46.6828 33.6091 46.8751 33.6652C46.8126 33.9207 46.7572 34.178 46.7087 34.4368C46.2657 36.8176 46.6117 38.7079 47.7128 39.356C48.85 40.0251 50.7587 39.3373 52.6173 37.6797C52.7642 37.5486 52.9116 37.4097 53.0593 37.264C53.2453 37.4471 53.4362 37.6248 53.6319 37.7971C55.4322 39.3777 57.2102 40.016 58.3103 39.3662C59.4465 38.6951 59.8157 36.6643 59.3363 34.1935C59.2997 34.0048 59.257 33.8121 59.2092 33.6158C59.3433 33.5754 59.4748 33.5337 59.6031 33.4903C62.0315 32.6694 63.6114 31.3423 63.6114 29.9849C63.6114 28.6833 62.1331 27.4245 59.8453 26.621Z" fill="#53C1DE"/>
<path d="M59.3185 32.6139C59.2027 32.6531 59.0838 32.6909 58.9627 32.7275C58.6946 31.8615 58.3327 30.9407 57.8901 29.9894C58.3126 29.0607 58.6604 28.1517 58.921 27.2913C59.1376 27.3554 59.348 27.4228 59.5507 27.4941C61.5109 28.1825 62.7066 29.2005 62.7066 29.9849C62.7066 30.8204 61.4152 31.9051 59.3186 32.6139H59.3185ZM58.4485 34.3729C58.6605 35.4654 58.6908 36.4532 58.5503 37.2254C58.4241 37.9193 58.1705 38.3819 57.8568 38.5671C57.1892 38.9614 55.7616 38.4489 54.2221 37.0972C54.0455 36.9422 53.8677 36.7767 53.6894 36.6017C54.2863 35.9356 54.8828 35.1612 55.465 34.3013C56.489 34.2086 57.4565 34.057 58.3339 33.8501C58.377 34.028 58.4154 34.2023 58.4485 34.3729ZM49.6504 38.499C48.9983 38.7341 48.4788 38.7408 48.1649 38.5561C47.4966 38.1629 47.219 36.6449 47.5978 34.609C47.6428 34.3684 47.6944 34.1291 47.7525 33.8914C48.6201 34.0872 49.5805 34.2281 50.607 34.313C51.193 35.1545 51.8068 35.9279 52.4253 36.6052C52.2939 36.735 52.1593 36.8614 52.0218 36.9844C51.1999 37.7175 50.3763 38.2374 49.6505 38.499H49.6504ZM46.595 32.6088C45.5621 32.2486 44.7091 31.7804 44.1244 31.2697C43.599 30.8105 43.3337 30.3547 43.3337 29.9849C43.3337 29.1979 44.4837 28.1941 46.4017 27.5118C46.6424 27.4265 46.8855 27.3484 47.1307 27.2777C47.3959 28.1574 47.7436 29.0772 48.1632 30.0073C47.7381 30.9513 47.3854 31.8857 47.1179 32.7758C46.9423 32.7245 46.7679 32.6688 46.595 32.6088ZM47.6192 25.4951C47.2211 23.4192 47.4855 21.8533 48.1508 21.4603C48.8595 21.0418 50.4265 21.6386 52.0781 23.1349C52.1837 23.2306 52.2897 23.3307 52.3959 23.4343C51.7805 24.1086 51.1724 24.8762 50.5915 25.7127C49.5952 25.807 48.6416 25.9583 47.7648 26.161C47.7108 25.9403 47.6623 25.7182 47.6192 25.495V25.4951ZM56.7564 27.7972C56.5493 27.4322 56.3346 27.0719 56.1123 26.7163C56.7882 26.8034 57.4357 26.9191 58.0437 27.0608C57.8612 27.6577 57.6337 28.282 57.3657 28.9219C57.17 28.5429 56.9668 28.1679 56.7564 27.7972ZM53.0303 24.0941C53.4476 24.5554 53.8656 25.0706 54.2768 25.6295C53.4428 25.5893 52.6073 25.5891 51.7732 25.6289C52.1848 25.0752 52.6064 24.5608 53.0303 24.0941ZM49.2802 27.8035C49.0724 28.1713 48.8731 28.5439 48.6823 28.9212C48.4188 28.2835 48.1933 27.6565 48.0092 27.051C48.6136 26.913 49.2581 26.8002 49.9296 26.7146C49.7048 27.0723 49.4883 27.4354 49.2802 27.8035ZM49.9489 33.321C49.2552 33.242 48.601 33.135 47.9968 33.0008C48.1838 32.3846 48.4142 31.7441 48.6834 31.0927C48.8749 31.4702 49.0752 31.8431 49.2839 32.2111C49.4969 32.5864 49.7186 32.9565 49.9489 33.321ZM53.0553 35.9408C52.6264 35.4686 52.1987 34.9463 51.7808 34.3846C52.1864 34.4008 52.5999 34.4091 53.0201 34.4091C53.4519 34.4091 53.8788 34.3992 54.2988 34.3801C53.8864 34.9521 53.4698 35.4751 53.0553 35.9408ZM57.3744 31.0595C57.6575 31.718 57.8962 32.355 58.0857 32.9608C57.4715 33.1038 56.8084 33.2189 56.1097 33.3045C56.3336 32.9423 56.5505 32.5756 56.7601 32.2047C56.9731 31.8276 57.178 31.4458 57.3744 31.0595ZM55.9762 31.7434C55.6553 32.3122 55.3164 32.8701 54.9599 33.4164C54.3315 33.4622 53.682 33.4858 53.0201 33.4858C52.361 33.4858 51.7198 33.4649 51.1023 33.424C50.7366 32.879 50.3913 32.3201 50.0671 31.7485C49.7443 31.1799 49.4429 30.599 49.1633 30.007C49.4422 29.4149 49.7427 28.8337 50.0643 28.2646V28.2648C50.3859 27.6956 50.7285 27.1391 51.0914 26.5965C51.7214 26.5479 52.3673 26.5224 53.0202 26.5224C53.6761 26.5224 54.3228 26.5481 54.9526 26.597C55.3119 27.1389 55.6523 27.6934 55.9732 28.2598C56.296 28.8276 56.6005 29.4059 56.8864 29.9939C56.6035 30.5879 56.2999 31.1715 55.9762 31.7434H55.9762ZM57.8429 21.4329C58.5522 21.8503 58.8281 23.5335 58.3824 25.7409C58.3532 25.8847 58.3215 26.0279 58.2872 26.1705C57.4084 25.9636 56.4541 25.8096 55.4549 25.714C54.8729 24.8683 54.2698 24.0994 53.6644 23.4338C53.823 23.2778 53.9854 23.1258 54.1515 22.9779C55.7153 21.5893 57.1769 21.041 57.8429 21.4329Z" fill="white"/>
<path d="M53.0202 28.0549C54.0649 28.0549 54.9117 28.9191 54.9117 29.9849C54.9117 31.0508 54.0649 31.915 53.0202 31.915C51.9756 31.915 51.1287 31.0508 51.1287 29.9849C51.1287 28.9191 51.9756 28.0549 53.0202 28.0549Z" fill="#53C1DE"/>
<path d="M82.6079 37V24.4873H86.3793C87.378 24.4873 88.2357 24.6459 88.9523 24.9631C89.6808 25.2803 90.2389 25.7327 90.6266 26.3201C91.0143 26.9076 91.2082 27.6066 91.2082 28.4173C91.2082 28.9225 91.1142 29.3984 90.9262 29.8448C90.75 30.2795 90.4915 30.6731 90.1508 31.0256C89.8218 31.3781 89.4223 31.6659 88.9523 31.8892L91.8602 37H89.4811L87.0666 32.4531C86.9374 32.4649 86.7905 32.4766 86.626 32.4884C86.4733 32.4884 86.3147 32.4884 86.1502 32.4884C85.739 32.4884 85.2631 32.4472 84.7227 32.365V37H82.6079ZM84.7227 26.3554V30.4969C84.9694 30.5439 85.222 30.5791 85.4805 30.6026C85.7507 30.6144 86.0151 30.6203 86.2736 30.6203C87.143 30.6203 87.8186 30.4323 88.3003 30.0563C88.782 29.6803 89.0228 29.1575 89.0228 28.4878C89.0228 27.8181 88.7879 27.2953 88.3179 26.9193C87.8479 26.5433 87.19 26.3554 86.3441 26.3554H84.7227ZM97.4371 37.2644C96.7557 37.2644 96.1271 37.1469 95.5514 36.9119C94.9875 36.6652 94.494 36.3244 94.071 35.8897C93.6481 35.455 93.3191 34.9439 93.0841 34.3565C92.8609 33.7573 92.7493 33.0993 92.7493 32.3826C92.7493 31.6894 92.8609 31.0491 93.0841 30.4617C93.3191 29.8742 93.6363 29.3631 94.0358 28.9284C94.447 28.4819 94.9287 28.1353 95.4809 27.8886C96.0331 27.6419 96.6323 27.5185 97.2785 27.5185C97.9247 27.5185 98.5122 27.636 99.0409 27.871C99.5813 28.0942 100.045 28.4173 100.433 28.8403C100.833 29.2632 101.138 29.7685 101.35 30.3559C101.561 30.9316 101.667 31.5719 101.667 32.2769V32.8761H94.8465C94.9052 33.4165 95.0462 33.8865 95.2694 34.286C95.5044 34.6737 95.804 34.9733 96.1682 35.1848C96.5325 35.3963 96.9554 35.502 97.4371 35.502C98.4006 35.502 99.1525 35.0732 99.693 34.2155L101.473 34.9028C101.261 35.3845 100.95 35.8075 100.539 36.1717C100.139 36.5242 99.6695 36.7944 99.129 36.9824C98.6003 37.1704 98.0363 37.2644 97.4371 37.2644ZM97.2785 29.1575C96.8673 29.1575 96.4972 29.2515 96.1682 29.4395C95.851 29.6275 95.5808 29.8918 95.3576 30.2325C95.1343 30.5733 94.9816 30.9727 94.8993 31.4309H99.552C99.4815 30.9727 99.3464 30.5733 99.1466 30.2325C98.9469 29.8918 98.6825 29.6275 98.3536 29.4395C98.0363 29.2515 97.678 29.1575 97.2785 29.1575ZM106.215 37.2644C105.745 37.2644 105.31 37.1939 104.91 37.0529C104.523 36.9119 104.182 36.7121 103.888 36.4537C103.595 36.1952 103.365 35.8897 103.201 35.5372C103.037 35.1848 102.954 34.7971 102.954 34.3741C102.954 33.7866 103.107 33.2755 103.412 32.8408C103.73 32.3944 104.17 32.0478 104.734 31.801C105.298 31.5543 105.956 31.4309 106.708 31.4309C107.119 31.4309 107.513 31.4721 107.889 31.5543C108.265 31.6248 108.623 31.7305 108.964 31.8715V31.29C108.964 30.8787 108.888 30.5204 108.735 30.2149C108.582 29.8977 108.365 29.651 108.083 29.4747C107.801 29.2985 107.46 29.2104 107.061 29.2104C106.638 29.2104 106.256 29.322 105.915 29.5452C105.574 29.7685 105.322 30.0798 105.157 30.4793L103.289 30.0563C103.43 29.5394 103.683 29.0929 104.047 28.7169C104.423 28.3409 104.869 28.0472 105.386 27.8357C105.915 27.6243 106.485 27.5185 107.096 27.5185C107.672 27.5185 108.194 27.6125 108.664 27.8005C109.146 27.9885 109.557 28.2528 109.898 28.5936C110.239 28.9343 110.503 29.3396 110.691 29.8096C110.879 30.2795 110.973 30.8024 110.973 31.3781V37H109.123L109.052 35.784C108.805 36.2304 108.435 36.5888 107.942 36.859C107.448 37.1292 106.873 37.2644 106.215 37.2644ZM104.999 34.286C104.999 34.5444 105.069 34.7794 105.21 34.9909C105.351 35.1906 105.545 35.3493 105.792 35.4667C106.05 35.5842 106.35 35.643 106.69 35.643C107.125 35.643 107.513 35.549 107.854 35.361C108.194 35.173 108.465 34.9204 108.664 34.6032C108.864 34.2742 108.964 33.9041 108.964 33.4929V33.2814C108.658 33.1522 108.341 33.0523 108.012 32.9818C107.695 32.8996 107.366 32.8585 107.025 32.8585C106.414 32.8585 105.921 32.9877 105.545 33.2462C105.181 33.5047 104.999 33.8513 104.999 34.286ZM117.312 37.2644C116.654 37.2644 116.049 37.1469 115.497 36.9119C114.945 36.6652 114.463 36.3303 114.052 35.9073C113.641 35.4726 113.318 34.9615 113.083 34.3741C112.86 33.7866 112.748 33.1463 112.748 32.4531C112.748 31.7599 112.865 31.1137 113.1 30.5145C113.335 29.9153 113.658 29.3925 114.07 28.946C114.481 28.4996 114.963 28.153 115.515 27.9062C116.079 27.6478 116.69 27.5185 117.348 27.5185C117.982 27.5185 118.564 27.636 119.092 27.871C119.621 28.0942 120.073 28.4173 120.449 28.8403C120.837 29.2515 121.113 29.7391 121.278 30.303L119.357 30.7613C119.157 30.3148 118.875 29.9682 118.511 29.7215C118.158 29.4747 117.759 29.3514 117.312 29.3514C116.842 29.3514 116.419 29.4865 116.044 29.7567C115.668 30.0269 115.368 30.397 115.145 30.867C114.933 31.3252 114.827 31.848 114.827 32.4355C114.827 33.0112 114.933 33.5282 115.145 33.9864C115.356 34.4328 115.644 34.7853 116.008 35.0438C116.384 35.3023 116.819 35.4315 117.312 35.4315C117.782 35.4315 118.211 35.314 118.599 35.079C118.987 34.8323 119.274 34.4857 119.462 34.0392L121.366 34.4798C121.201 35.0438 120.919 35.5372 120.52 35.9602C120.12 36.3714 119.645 36.6945 119.092 36.9295C118.54 37.1527 117.947 37.2644 117.312 37.2644ZM126.77 37.2644C125.842 37.2644 125.113 37 124.585 36.4713C124.056 35.9308 123.792 35.1613 123.792 34.1626V29.4219H122.17V27.7829H123.792V24.6635H125.818V27.7829H128.497V29.4219H125.818V33.9511C125.818 34.4446 125.918 34.8264 126.118 35.0967C126.329 35.3551 126.635 35.4844 127.034 35.4844C127.246 35.4844 127.475 35.455 127.722 35.3963C127.968 35.3258 128.197 35.2318 128.409 35.1143L128.867 36.6475C128.597 36.8355 128.28 36.9824 127.915 37.0881C127.563 37.2056 127.181 37.2644 126.77 37.2644ZM137.515 37.2644C136.845 37.2644 136.234 37.141 135.682 36.8943C135.141 36.6358 134.677 36.2716 134.289 35.8016C133.902 35.3316 133.608 34.7559 133.408 34.0745L135.488 33.6339C135.899 34.7618 136.58 35.3258 137.532 35.3258C137.92 35.3258 138.255 35.2318 138.537 35.0438C138.83 34.844 139.054 34.5679 139.206 34.2155C139.359 33.863 139.436 33.4518 139.436 32.9818V24.4873H141.586V32.929C141.586 33.5752 141.486 34.1685 141.286 34.7089C141.098 35.2376 140.822 35.6959 140.458 36.0836C140.105 36.4595 139.676 36.7533 139.171 36.9648C138.678 37.1645 138.125 37.2644 137.515 37.2644ZM147.595 37.2644C146.89 37.2644 146.232 37.141 145.621 36.8943C145.022 36.6358 144.511 36.2774 144.088 35.8192C143.665 35.361 143.365 34.8147 143.189 34.1802L145.216 33.6868C145.404 34.2272 145.703 34.6443 146.115 34.938C146.526 35.2318 147.025 35.3786 147.613 35.3786C148.036 35.3786 148.412 35.2964 148.741 35.1319C149.07 34.9674 149.328 34.7442 149.516 34.4622C149.716 34.1802 149.816 33.8571 149.816 33.4929C149.816 33.0464 149.651 32.6763 149.322 32.3826C149.005 32.0771 148.5 31.848 147.807 31.6953L147.154 31.5543C145.909 31.2841 144.987 30.8376 144.388 30.2149C143.8 29.5922 143.506 28.8344 143.506 27.9415C143.506 27.401 143.612 26.9076 143.824 26.4611C144.035 26.0029 144.329 25.6093 144.705 25.2803C145.081 24.9396 145.521 24.6811 146.027 24.5049C146.532 24.3169 147.078 24.2229 147.666 24.2229C148.335 24.2229 148.952 24.3463 149.516 24.593C150.08 24.8397 150.562 25.1922 150.961 25.6504C151.361 26.0969 151.643 26.6315 151.807 27.2542L149.798 27.7476C149.61 27.2189 149.328 26.8136 148.952 26.5316C148.576 26.2496 148.13 26.1086 147.613 26.1086C147.237 26.1086 146.902 26.185 146.608 26.3377C146.326 26.4787 146.097 26.6785 145.921 26.9369C145.756 27.1837 145.674 27.4656 145.674 27.7829C145.674 28.2411 145.844 28.6053 146.185 28.8755C146.526 29.1458 147.049 29.3631 147.754 29.5276L148.406 29.6686C150.803 30.209 152.001 31.4251 152.001 33.3167C152.001 33.8924 151.889 34.427 151.666 34.9204C151.455 35.4021 151.149 35.8192 150.75 36.1717C150.35 36.5124 149.88 36.7826 149.34 36.9824C148.811 37.1704 148.23 37.2644 147.595 37.2644Z" fill="black"/>
<rect x="13.5" y="9.5" width="167" height="42" rx="21" stroke="#EBEBEB"/>
</g>
<defs>
<filter id="filter0_d" x="0" y="0" width="194" height="69" filterUnits="userSpaceOnUse" color-interpolation-filters="sRGB">
<feFlood flood-opacity="0" result="BackgroundImageFix"/>
<feColorMatrix in="SourceAlpha" type="matrix" values="0 0 0 0 0 0 0 0 0 0 0 0 0 0 0 0 0 0 127 0"/>
<feOffset dy="4"/>
<feGaussianBlur stdDeviation="6.5"/>
<feColorMatrix type="matrix" values="0 0 0 0 0.275 0 0 0 0 0.289732 0 0 0 0 0.55 0 0 0 0.1 0"/>
<feBlend mode="normal" in2="BackgroundImageFix" result="effect1_dropShadow"/>
<feBlend mode="normal" in="SourceGraphic" in2="effect1_dropShadow" result="shape"/>
</filter>
</defs>
</svg>
